{
    "asset" : {
        "generator" : "Khronos glTF Blender I/O v1.4.40",
        "version" : "2.0"
    },
    "scene" : 0,
    "scenes" : [
        {
            "name" : "Scene",
            "nodes" : [
                0
            ]
        }
    ],
    "nodes" : [
        {
            "mesh" : 0,
            "name" : "12321_skis_v1_l3",
            "rotation" : [
                0.5981462001800537,
                -0.09357653558254242,
                -0.08335447311401367,
                0.791528046131134
            ]
        }
    ],
    "materials" : [
        {
            "doubleSided" : true,
            "name" : "12321_skin_v1",
            "pbrMetallicRoughness" : {
                "baseColorTexture" : {
                    "index" : 0,
                    "texCoord" : 0
                },
                "metallicFactor" : 0,
                "roughnessFactor" : 0.8945907354354858
            }
        }
    ],
    "meshes" : [
        {
            "name" : "12321_skis_v1_l3",
            "primitives" : [
                {
                    "attributes" : {
                        "POSITION" : 0,
                        "NORMAL" : 1,
                        "TEXCOORD_0" : 2
                    },
                    "indices" : 3,
                    "material" : 0
                }
            ]
        }
    ],
    "textures" : [
        {
            "sampler" : 0,
            "source" : 0
        }
    ],
    "images" : [
        {
            "bufferView" : 4,
            "mimeType" : "image/jpeg",
            "name" : "12321_skin_v1_diff"
        }
    ],
    "accessors" : [
        {
            "bufferView" : 0,
            "componentType" : 5126,
            "count" : 55530,
            "max" : [
                2.4453999996185303,
                4.122900009155273,
                32.86980056762695
            ],
            "min" : [
                -10.589400291442871,
                0,
                -31.982500076293945
            ],
            "type" : "VEC3"
        },
        {
            "bufferView" : 1,
            "componentType" : 5126,
            "count" : 55530,
            "type" : "VEC3"
        },
        {
            "bufferView" : 2,
            "componentType" : 5126,
            "count" : 55530,
            "type" : "VEC2"
        },
        {
            "bufferView" : 3,
            "componentType" : 5123,
            "count" : 298464,
            "type" : "SCALAR"
        }
    ],
    "bufferViews" : [
        {
            "buffer" : 0,
            "byteLength" : 666360,
            "byteOffset" : 0
        },
        {
            "buffer" : 0,
            "byteLength" : 666360,
            "byteOffset" : 666360
        },
        {
            "buffer" : 0,
            "byteLength" : 444240,
            "byteOffset" : 1332720
        },
        {
            "buffer" : 0,
            "byteLength" : 596928,
            "byteOffset" : 1776960
        },
        {
            "buffer" : 0,
            "byteLength" : 366125,
            "byteOffset" : 2373888
        }
    ],
    "samplers" : [
        {
            "magFilter" : 9729,
            "minFilter" : 9986
        }
    ],
    "buffers" : [
        {
            "byteLength" : 2740016,
            "uri" : "data:application/octet-stream;base64,"
        }
    ]
}
