{
    "asset" : {
        "generator" : "Khronos glTF Blender I/O v1.4.40",
        "version" : "2.0"
    },
    "scene" : 0,
    "scenes" : [
        {
            "name" : "Scene",
            "nodes" : [
                0
            ]
        }
    ],
    "nodes" : [
        {
            "mesh" : 0,
            "name" : "globe",
            "rotation" : [
                0.7071068286895752,
                0,
                0,
                0.7071067094802856
            ]
        }
    ],
    "materials" : [
        {
            "doubleSided" : true,
            "name" : "metal__Gold",
            "pbrMetallicRoughness" : {
                "baseColorFactor" : [
                    0.800000011920929,
                    0.800000011920929,
                    0.800000011920929,
                    1
                ],
                "metallicFactor" : 0,
                "roughnessFactor" : 0.5
            }
        },
        {
            "doubleSided" : true,
            "name" : "Material__120",
            "pbrMetallicRoughness" : {
                "baseColorFactor" : [
                    0.28999999165534973,
                    0.09000000357627869,
                    0.019999999552965164,
                    1
                ],
                "metallicFactor" : 0
            }
        },
        {
            "doubleSided" : true,
            "name" : "Rubber",
            "pbrMetallicRoughness" : {
                "baseColorFactor" : [
                    0.03999999910593033,
                    0.03999999910593033,
                    0.03999999910593033,
                    1
                ],
                "metallicFactor" : 0
            }
        },
        {
            "doubleSided" : true,
            "name" : "02___Default",
            "pbrMetallicRoughness" : {
                "baseColorTexture" : {
                    "index" : 0,
                    "texCoord" : 0
                },
                "metallicFactor" : 0,
                "roughnessFactor" : 0.5
            }
        }
    ],
    "meshes" : [
        {
            "name" : "globe",
            "primitives" : [
                {
                    "attributes" : {
                        "POSITION" : 0,
                        "NORMAL" : 1,
                        "TEXCOORD_0" : 2
                    },
                    "indices" : 3,
                    "material" : 0
                },
                {
                    "attributes" : {
                        "POSITION" : 4,
                        "NORMAL" : 5,
                        "TEXCOORD_0" : 6
                    },
                    "indices" : 7,
                    "material" : 1
                },
                {
                    "attributes" : {
                        "POSITION" : 8,
                        "NORMAL" : 9,
                        "TEXCOORD_0" : 10
                    },
                    "indices" : 11,
                    "material" : 2
                },
                {
                    "attributes" : {
                        "POSITION" : 12,
                        "NORMAL" : 13,
                        "TEXCOORD_0" : 14
                    },
                    "indices" : 15,
                    "material" : 3
                }
            ]
        }
    ],
    "textures" : [
        {
            "sampler" : 0,
            "source" : 0
        }
    ],
    "images" : [
        {
            "bufferView" : 16,
            "mimeType" : "image/jpeg",
            "name" : "mp"
        }
    ],
    "accessors" : [
        {
            "bufferView" : 0,
            "componentType" : 5126,
            "count" : 7945,
            "max" : [
                95.16280364990234,
                51.97959899902344,
                -2.9166998863220215
            ],
            "min" : [
                -54.474098205566406,
                -56.26490020751953,
                -252.9680938720703
            ],
            "type" : "VEC3"
        },
        {
            "bufferView" : 1,
            "componentType" : 5126,
            "count" : 7945,
            "type" : "VEC3"
        },
        {
            "bufferView" : 2,
            "componentType" : 5126,
            "count" : 7945,
            "type" : "VEC2"
        },
        {
            "bufferView" : 3,
            "componentType" : 5123,
            "count" : 47052,
            "type" : "SCALAR"
        },
        {
            "bufferView" : 4,
            "componentType" : 5126,
            "count" : 1538,
            "max" : [
                39.58509826660156,
                14.0625,
                -75.58350372314453
            ],
            "min" : [
                -39.58509826660156,
                -18.34779930114746,
                -242.9822998046875
            ],
            "type" : "VEC3"
        },
        {
            "bufferView" : 5,
            "componentType" : 5126,
            "count" : 1538,
            "type" : "VEC3"
        },
        {
            "bufferView" : 6,
            "componentType" : 5126,
            "count" : 1538,
            "type" : "VEC2"
        },
        {
            "bufferView" : 7,
            "componentType" : 5123,
            "count" : 7296,
            "type" : "SCALAR"
        },
        {
            "bufferView" : 8,
            "componentType" : 5126,
            "count" : 757,
            "max" : [
                54.180301666259766,
                52.37689971923828,
                0
            ],
            "min" : [
                -54.87139892578125,
                -56.66210174560547,
                -2.9166998863220215
            ],
            "type" : "VEC3"
        },
        {
            "bufferView" : 9,
            "componentType" : 5126,
            "count" : 757,
            "type" : "VEC3"
        },
        {
            "bufferView" : 10,
            "componentType" : 5126,
            "count" : 757,
            "type" : "VEC2"
        },
        {
            "bufferView" : 11,
            "componentType" : 5123,
            "count" : 4428,
            "type" : "SCALAR"
        },
        {
            "bufferView" : 12,
            "componentType" : 5126,
            "count" : 2141,
            "max" : [
                82.6989974975586,
                80.52429962158203,
                -76.2477035522461
            ],
            "min" : [
                -82.6989974975586,
                -84.80729675292969,
                -242.31809997558594
            ],
            "type" : "VEC3"
        },
        {
            "bufferView" : 13,
            "componentType" : 5126,
            "count" : 2141,
            "type" : "VEC3"
        },
        {
            "bufferView" : 14,
            "componentType" : 5126,
            "count" : 2141,
            "type" : "VEC2"
        },
        {
            "bufferView" : 15,
            "componentType" : 5123,
            "count" : 11904,
            "type" : "SCALAR"
        }
    ],
    "bufferViews" : [
        {
            "buffer" : 0,
            "byteLength" : 95340,
            "byteOffset" : 0
        },
        {
            "buffer" : 0,
            "byteLength" : 95340,
            "byteOffset" : 95340
        },
        {
            "buffer" : 0,
            "byteLength" : 63560,
            "byteOffset" : 190680
        },
        {
            "buffer" : 0,
            "byteLength" : 94104,
            "byteOffset" : 254240
        },
        {
            "buffer" : 0,
            "byteLength" : 18456,
            "byteOffset" : 348344
        },
        {
            "buffer" : 0,
            "byteLength" : 18456,
            "byteOffset" : 366800
        },
        {
            "buffer" : 0,
            "byteLength" : 12304,
            "byteOffset" : 385256
        },
        {
            "buffer" : 0,
            "byteLength" : 14592,
            "byteOffset" : 397560
        },
        {
            "buffer" : 0,
            "byteLength" : 9084,
            "byteOffset" : 412152
        },
        {
            "buffer" : 0,
            "byteLength" : 9084,
            "byteOffset" : 421236
        },
        {
            "buffer" : 0,
            "byteLength" : 6056,
            "byteOffset" : 430320
        },
        {
            "buffer" : 0,
            "byteLength" : 8856,
            "byteOffset" : 436376
        },
        {
            "buffer" : 0,
            "byteLength" : 25692,
            "byteOffset" : 445232
        },
        {
            "buffer" : 0,
            "byteLength" : 25692,
            "byteOffset" : 470924
        },
        {
            "buffer" : 0,
            "byteLength" : 17128,
            "byteOffset" : 496616
        },
        {
            "buffer" : 0,
            "byteLength" : 23808,
            "byteOffset" : 513744
        },
        {
            "buffer" : 0,
            "byteLength" : 370552,
            "byteOffset" : 537552
        }
    ],
    "samplers" : [
        {
            "magFilter" : 9729,
            "minFilter" : 9986
        }
    ],
    "buffers" : [
        {
            "byteLength" : 908104,
            "uri" : "data:application/octet-stream;base64,"
        }
    ]
}
