{
    "asset" : {
        "generator" : "Khronos glTF Blender I/O v1.4.40",
        "version" : "2.0"
    },
    "scene" : 0,
    "scenes" : [
        {
            "name" : "Scene",
            "nodes" : [
                0
            ]
        }
    ],
    "nodes" : [
        {
            "mesh" : 0,
            "name" : "13463_Australian_Cattle_Dog_v3",
            "rotation" : [
                -0.029400523751974106,
                0,
                0,
                0.9995678067207336
            ]
        }
    ],
    "materials" : [
        {
            "doubleSided" : true,
            "name" : "Australian_Cattle_Dog",
            "normalTexture" : {
                "index" : 0,
                "texCoord" : 0
            },
            "pbrMetallicRoughness" : {
                "baseColorTexture" : {
                    "index" : 1,
                    "texCoord" : 0
                },
                "metallicFactor" : 0
            }
        }
    ],
    "meshes" : [
        {
            "name" : "13463_Australian_Cattle_Dog_v3",
            "primitives" : [
                {
                    "attributes" : {
                        "POSITION" : 0,
                        "NORMAL" : 1,
                        "TEXCOORD_0" : 2
                    },
                    "indices" : 3,
                    "material" : 0
                }
            ]
        }
    ],
    "textures" : [
        {
            "sampler" : 0,
            "source" : 0
        },
        {
            "sampler" : 0,
            "source" : 1
        }
    ],
    "images" : [
        {
            "bufferView" : 4,
            "mimeType" : "image/jpeg",
            "name" : "Australian_Cattle_Dog_bump"
        },
        {
            "bufferView" : 5,
            "mimeType" : "image/jpeg",
            "name" : "Australian_Cattle_Dog_dif"
        }
    ],
    "accessors" : [
        {
            "bufferView" : 0,
            "componentType" : 5126,
            "count" : 37107,
            "max" : [
                4.678699970245361,
                26.396099090576172,
                22.14389991760254
            ],
            "min" : [
                -4.678699970245361,
                -0.13349999487400055,
                -16.528900146484375
            ],
            "type" : "VEC3"
        },
        {
            "bufferView" : 1,
            "componentType" : 5126,
            "count" : 37107,
            "type" : "VEC3"
        },
        {
            "bufferView" : 2,
            "componentType" : 5126,
            "count" : 37107,
            "type" : "VEC2"
        },
        {
            "bufferView" : 3,
            "componentType" : 5123,
            "count" : 215904,
            "type" : "SCALAR"
        }
    ],
    "bufferViews" : [
        {
            "buffer" : 0,
            "byteLength" : 445284,
            "byteOffset" : 0
        },
        {
            "buffer" : 0,
            "byteLength" : 445284,
            "byteOffset" : 445284
        },
        {
            "buffer" : 0,
            "byteLength" : 296856,
            "byteOffset" : 890568
        },
        {
            "buffer" : 0,
            "byteLength" : 431808,
            "byteOffset" : 1187424
        },
        {
            "buffer" : 0,
            "byteLength" : 136681,
            "byteOffset" : 1619232
        },
        {
            "buffer" : 0,
            "byteLength" : 223132,
            "byteOffset" : 1755916
        }
    ],
    "samplers" : [
        {
            "magFilter" : 9729,
            "minFilter" : 9986
        }
    ],
    "buffers" : [
        {
            "byteLength" : 1979048,
            "uri" : "data:application/octet-stream;base64,"
        }
    ]
}
