{
    "asset" : {
        "generator" : "Khronos glTF Blender I/O v1.4.40",
        "version" : "2.0"
    },
    "scene" : 0,
    "scenes" : [
        {
            "name" : "Scene",
            "nodes" : [
                0,
                1
            ]
        }
    ],
    "nodes" : [
        {
            "mesh" : 0,
            "name" : "14083_WWII_ship - UK - King_George_V_Class_Battleship_v1_L1",
            "rotation" : [
                0.013978878036141396,
                0,
                0,
                0.9999023079872131
            ]
        },
        {
            "mesh" : 1,
            "name" : "Plane",
            "scale" : [
                58.98318099975586,
                58.98318099975586,
                58.98318099975586
            ],
            "translation" : [
                0,
                -1.1760936975479126,
                0
            ]
        }
    ],
    "materials" : [
        {
            "doubleSided" : true,
            "name" : "_King_George_V",
            "normalTexture" : {
                "index" : 0,
                "texCoord" : 0
            },
            "pbrMetallicRoughness" : {
                "baseColorTexture" : {
                    "index" : 1,
                    "texCoord" : 0
                },
                "metallicFactor" : 0,
                "roughnessFactor" : 0.7418010830879211
            }
        },
        {
            "doubleSided" : true,
            "name" : "Material.005",
            "pbrMetallicRoughness" : {
                "metallicFactor" : 0.22727273404598236,
                "roughnessFactor" : 0.5
            }
        }
    ],
    "meshes" : [
        {
            "name" : "14083_WWII_ship - UK - King_George_V_Class_Battleship_v1_L1",
            "primitives" : [
                {
                    "attributes" : {
                        "POSITION" : 0,
                        "NORMAL" : 1,
                        "TEXCOORD_0" : 2
                    },
                    "indices" : 3,
                    "material" : 0
                }
            ]
        },
        {
            "name" : "Plane",
            "primitives" : [
                {
                    "attributes" : {
                        "POSITION" : 4,
                        "NORMAL" : 5,
                        "TEXCOORD_0" : 6
                    },
                    "indices" : 7,
                    "material" : 1
                }
            ]
        }
    ],
    "textures" : [
        {
            "sampler" : 0,
            "source" : 0
        },
        {
            "sampler" : 0,
            "source" : 1
        }
    ],
    "images" : [
        {
            "bufferView" : 4,
            "mimeType" : "image/jpeg",
            "name" : "King_George_V_bump"
        },
        {
            "bufferView" : 5,
            "mimeType" : "image/jpeg",
            "name" : "King_George_V"
        }
    ],
    "accessors" : [
        {
            "bufferView" : 0,
            "componentType" : 5126,
            "count" : 15102,
            "max" : [
                1.3357000350952148,
                0.5490000247955322,
                0.19550000131130219
            ],
            "min" : [
                -1.3357000350952148,
                -0.031700000166893005,
                -0.19550000131130219
            ],
            "type" : "VEC3"
        },
        {
            "bufferView" : 1,
            "componentType" : 5126,
            "count" : 15102,
            "type" : "VEC3"
        },
        {
            "bufferView" : 2,
            "componentType" : 5126,
            "count" : 15102,
            "type" : "VEC2"
        },
        {
            "bufferView" : 3,
            "componentType" : 5123,
            "count" : 38964,
            "type" : "SCALAR"
        },
        {
            "bufferView" : 6,
            "componentType" : 5126,
            "count" : 42,
            "max" : [
                1,
                1.1500540971755981,
                1
            ],
            "min" : [
                -1,
                0,
                -1
            ],
            "type" : "VEC3"
        },
        {
            "bufferView" : 7,
            "componentType" : 5126,
            "count" : 42,
            "type" : "VEC3"
        },
        {
            "bufferView" : 8,
            "componentType" : 5126,
            "count" : 42,
            "type" : "VEC2"
        },
        {
            "bufferView" : 9,
            "componentType" : 5123,
            "count" : 120,
            "type" : "SCALAR"
        }
    ],
    "bufferViews" : [
        {
            "buffer" : 0,
            "byteLength" : 181224,
            "byteOffset" : 0
        },
        {
            "buffer" : 0,
            "byteLength" : 181224,
            "byteOffset" : 181224
        },
        {
            "buffer" : 0,
            "byteLength" : 120816,
            "byteOffset" : 362448
        },
        {
            "buffer" : 0,
            "byteLength" : 77928,
            "byteOffset" : 483264
        },
        {
            "buffer" : 0,
            "byteLength" : 96344,
            "byteOffset" : 561192
        },
        {
            "buffer" : 0,
            "byteLength" : 240856,
            "byteOffset" : 657536
        },
        {
            "buffer" : 0,
            "byteLength" : 504,
            "byteOffset" : 898392
        },
        {
            "buffer" : 0,
            "byteLength" : 504,
            "byteOffset" : 898896
        },
        {
            "buffer" : 0,
            "byteLength" : 336,
            "byteOffset" : 899400
        },
        {
            "buffer" : 0,
            "byteLength" : 240,
            "byteOffset" : 899736
        }
    ],
    "samplers" : [
        {
            "magFilter" : 9729,
            "minFilter" : 9986
        }
    ],
    "buffers" : [
        {
            "byteLength" : 899976,
            "uri" : "data:application/octet-stream;base64,"
        }
    ]
}
