{
    "asset" : {
        "generator" : "Khronos glTF Blender I/O v1.4.40",
        "version" : "2.0"
    },
    "scene" : 0,
    "scenes" : [
        {
            "name" : "Scene",
            "nodes" : [
                0,
                1,
                2
            ]
        }
    ],
    "nodes" : [
        {
            "mesh" : 0,
            "name" : "Cube.001",
            "rotation" : [
                0,
                -0.2505072057247162,
                0,
                0.9681147336959839
            ],
            "scale" : [
                0.699999988079071,
                0.699999988079071,
                0.699999988079071
            ],
            "translation" : [
                2.806306838989258,
                -1.773128628730774,
                -4.58230447769165
            ]
        },
        {
            "name" : "Camera",
            "rotation" : [
                0.499553382396698,
                0.34132274985313416,
                -0.22308655083179474,
                0.764315128326416
            ],
            "translation" : [
                15.547222137451172,
                8.098396301269531,
                12.264927864074707
            ]
        },
        {
            "mesh" : 1,
            "name" : "Cube",
            "rotation" : [
                0,
                0.14123481512069702,
                0,
                0.9899761080741882
            ],
            "scale" : [
                5,
                0.5,
                2
            ],
            "translation" : [
                -1.0028002262115479,
                0.3894472122192383,
                2.1777095794677734
            ]
        }
    ],
    "materials" : [
        {
            "doubleSided" : true,
            "name" : "Material",
            "pbrMetallicRoughness" : {}
        }
    ],
    "meshes" : [
        {
            "name" : "Cube.003",
            "primitives" : [
                {
                    "attributes" : {
                        "POSITION" : 0,
                        "NORMAL" : 1,
                        "TEXCOORD_0" : 2
                    },
                    "indices" : 3,
                    "material" : 0
                }
            ]
        },
        {
            "name" : "Cube",
            "primitives" : [
                {
                    "attributes" : {
                        "POSITION" : 4,
                        "NORMAL" : 5,
                        "TEXCOORD_0" : 6
                    },
                    "indices" : 7,
                    "material" : 0
                }
            ]
        }
    ],
    "accessors" : [
        {
            "bufferView" : 0,
            "componentType" : 5126,
            "count" : 518,
            "max" : [
                5.716588973999023,
                3.5825042724609375,
                2.8578126430511475
            ],
            "min" : [
                -5.716588973999023,
                2.376884698867798,
                -2.8578126430511475
            ],
            "type" : "VEC3"
        },
        {
            "bufferView" : 1,
            "componentType" : 5126,
            "count" : 518,
            "type" : "VEC3"
        },
        {
            "bufferView" : 2,
            "componentType" : 5126,
            "count" : 518,
            "type" : "VEC2"
        },
        {
            "bufferView" : 3,
            "componentType" : 5123,
            "count" : 2496,
            "type" : "SCALAR"
        },
        {
            "bufferView" : 4,
            "componentType" : 5126,
            "count" : 76,
            "max" : [
                1.0000004768371582,
                1,
                1.0000005960464478
            ],
            "min" : [
                -1.0000003576278687,
                -1,
                -1.0000003576278687
            ],
            "type" : "VEC3"
        },
        {
            "bufferView" : 5,
            "componentType" : 5126,
            "count" : 76,
            "type" : "VEC3"
        },
        {
            "bufferView" : 6,
            "componentType" : 5126,
            "count" : 76,
            "type" : "VEC2"
        },
        {
            "bufferView" : 7,
            "componentType" : 5123,
            "count" : 252,
            "type" : "SCALAR"
        }
    ],
    "bufferViews" : [
        {
            "buffer" : 0,
            "byteLength" : 6216,
            "byteOffset" : 0
        },
        {
            "buffer" : 0,
            "byteLength" : 6216,
            "byteOffset" : 6216
        },
        {
            "buffer" : 0,
            "byteLength" : 4144,
            "byteOffset" : 12432
        },
        {
            "buffer" : 0,
            "byteLength" : 4992,
            "byteOffset" : 16576
        },
        {
            "buffer" : 0,
            "byteLength" : 912,
            "byteOffset" : 21568
        },
        {
            "buffer" : 0,
            "byteLength" : 912,
            "byteOffset" : 22480
        },
        {
            "buffer" : 0,
            "byteLength" : 608,
            "byteOffset" : 23392
        },
        {
            "buffer" : 0,
            "byteLength" : 504,
            "byteOffset" : 24000
        }
    ],
    "buffers" : [
        {
            "byteLength" : 24504,
            "uri" : "data:application/octet-stream;base64,"
        }
    ]
}
