{
    "asset" : {
        "generator" : "Khronos glTF Blender I/O v1.4.40",
        "version" : "2.0"
    },
    "scene" : 0,
    "scenes" : [
        {
            "name" : "Scene",
            "nodes" : [
                0
            ]
        }
    ],
    "nodes" : [
        {
            "mesh" : 0,
            "name" : "spyro",
            "rotation" : [
                0.7071068286895752,
                0,
                0,
                0.7071067094802856
            ],
            "scale" : [
                0.2233293056488037,
                0.2233293056488037,
                0.2233293056488037
            ],
            "translation" : [
                0,
                0,
                50.531654357910156
            ]
        }
    ],
    "materials" : [
        {
            "doubleSided" : true,
            "name" : "Body",
            "pbrMetallicRoughness" : {
                "baseColorTexture" : {
                    "index" : 0,
                    "texCoord" : 0
                },
                "metallicFactor" : 0,
                "roughnessFactor" : 0.9111805558204651
            }
        },
        {
            "doubleSided" : true,
            "name" : "Wing_Membrane",
            "pbrMetallicRoughness" : {
                "baseColorFactor" : [
                    0.6000000238418579,
                    0.6000000238418579,
                    0.6000000238418579,
                    0.8999999761581421
                ],
                "metallicFactor" : 0
            }
        }
    ],
    "meshes" : [
        {
            "name" : "spyro",
            "primitives" : [
                {
                    "attributes" : {
                        "POSITION" : 0,
                        "NORMAL" : 1,
                        "TEXCOORD_0" : 2
                    },
                    "indices" : 3,
                    "material" : 0
                },
                {
                    "attributes" : {
                        "POSITION" : 4,
                        "NORMAL" : 5,
                        "TEXCOORD_0" : 6
                    },
                    "indices" : 7,
                    "material" : 1
                }
            ]
        }
    ],
    "textures" : [
        {
            "sampler" : 0,
            "source" : 0
        }
    ],
    "images" : [
        {
            "bufferView" : 4,
            "mimeType" : "image/jpeg",
            "name" : "cap3"
        }
    ],
    "accessors" : [
        {
            "bufferView" : 0,
            "componentType" : 5126,
            "count" : 5413,
            "max" : [
                317.6127014160156,
                151.27952575683594,
                5.13444709777832
            ],
            "min" : [
                -317.6127014160156,
                -467.33489990234375,
                -520.648681640625
            ],
            "type" : "VEC3"
        },
        {
            "bufferView" : 1,
            "componentType" : 5126,
            "count" : 5413,
            "type" : "VEC3"
        },
        {
            "bufferView" : 2,
            "componentType" : 5126,
            "count" : 5413,
            "type" : "VEC2"
        },
        {
            "bufferView" : 3,
            "componentType" : 5123,
            "count" : 13929,
            "type" : "SCALAR"
        },
        {
            "bufferView" : 5,
            "componentType" : 5126,
            "count" : 285,
            "max" : [
                317.3825378417969,
                26.25320816040039,
                -149.03749084472656
            ],
            "min" : [
                -317.3825378417969,
                -312.9461669921875,
                -520.501953125
            ],
            "type" : "VEC3"
        },
        {
            "bufferView" : 6,
            "componentType" : 5126,
            "count" : 285,
            "type" : "VEC3"
        },
        {
            "bufferView" : 7,
            "componentType" : 5126,
            "count" : 285,
            "type" : "VEC2"
        },
        {
            "bufferView" : 8,
            "componentType" : 5123,
            "count" : 792,
            "type" : "SCALAR"
        }
    ],
    "bufferViews" : [
        {
            "buffer" : 0,
            "byteLength" : 64956,
            "byteOffset" : 0
        },
        {
            "buffer" : 0,
            "byteLength" : 64956,
            "byteOffset" : 64956
        },
        {
            "buffer" : 0,
            "byteLength" : 43304,
            "byteOffset" : 129912
        },
        {
            "buffer" : 0,
            "byteLength" : 27858,
            "byteOffset" : 173216
        },
        {
            "buffer" : 0,
            "byteLength" : 574977,
            "byteOffset" : 201076
        },
        {
            "buffer" : 0,
            "byteLength" : 3420,
            "byteOffset" : 776056
        },
        {
            "buffer" : 0,
            "byteLength" : 3420,
            "byteOffset" : 779476
        },
        {
            "buffer" : 0,
            "byteLength" : 2280,
            "byteOffset" : 782896
        },
        {
            "buffer" : 0,
            "byteLength" : 1584,
            "byteOffset" : 785176
        }
    ],
    "samplers" : [
        {
            "magFilter" : 9729,
            "minFilter" : 9986
        }
    ],
    "buffers" : [
        {
            "byteLength" : 786760,
            "uri" : "data:application/octet-stream;base64,"
        }
    ]
}
