{"buffers":[{"uri":"b.bin","byteLength":3274512}],"asset":{"version":"2.0","generator":"gltfpack 0.17"},"extensionsUsed":["KHR_mesh_quantization"],"extensionsRequired":["KHR_mesh_quantization"],"bufferViews":[{"buffer":0,"byteOffset":0,"byteLength":1595456,"byteStride":8,"target":34962},{"buffer":0,"byteOffset":1595456,"byteLength":797728,"byteStride":4,"target":34962},{"buffer":0,"byteOffset":2393184,"byteLength":396048,"target":34963},{"buffer":0,"byteOffset":2789232,"byteLength":485280,"target":34963}],"accessors":[{"bufferView":0,"byteOffset":0,"componentType":5123,"count":89751,"type":"VEC3","min":[2810,1900,2849],"max":[4106,3544,13562]},{"bufferView":1,"byteOffset":0,"componentType":5120,"count":89751,"type":"VEC3","normalized":true},{"bufferView":2,"byteOffset":0,"componentType":5125,"count":99012,"type":"SCALAR"},{"bufferView":0,"byteOffset":718008,"componentType":5123,"count":36492,"type":"VEC3","min":[2835,2511,1999],"max":[4206,6917,13479]},{"bufferView":1,"byteOffset":359004,"componentType":5120,"count":36492,"type":"VEC3","normalized":true},{"bufferView":3,"byteOffset":0,"componentType":5123,"count":54003,"type":"SCALAR"},{"bufferView":0,"byteOffset":1009944,"componentType":5123,"count":4157,"type":"VEC3","min":[3326,2611,5407],"max":[3715,8475,11840]},{"bufferView":1,"byteOffset":504972,"componentType":5120,"count":4157,"type":"VEC3","normalized":true},{"bufferView":3,"byteOffset":108006,"componentType":5123,"count":5244,"type":"SCALAR"},{"bufferView":0,"byteOffset":1043200,"componentType":5123,"count":43627,"type":"VEC3","min":[1178,0,295],"max":[5878,6074,16383]},{"bufferView":1,"byteOffset":521600,"componentType":5120,"count":43627,"type":"VEC3","normalized":true},{"bufferView":3,"byteOffset":118494,"componentType":5123,"count":141924,"type":"SCALAR"},{"bufferView":0,"byteOffset":1392216,"componentType":5123,"count":23401,"type":"VEC3","min":[1,475,0],"max":[7040,9388,15948]},{"bufferView":1,"byteOffset":696108,"componentType":5120,"count":23401,"type":"VEC3","normalized":true},{"bufferView":3,"byteOffset":402342,"componentType":5123,"count":37059,"type":"SCALAR"},{"bufferView":0,"byteOffset":1579424,"componentType":5123,"count":2004,"type":"VEC3","min":[0,7721,4850],"max":[7041,9456,10957]},{"bufferView":1,"byteOffset":789712,"componentType":5120,"count":2004,"type":"VEC3","normalized":true},{"bufferView":3,"byteOffset":476460,"componentType":5123,"count":4410,"type":"SCALAR"}],"materials":[{"name":"Black_metal","pbrMetallicRoughness":{"baseColorFactor":[0.149019614,0.149019614,0.149019614,1],"roughnessFactor":0.55278641},"doubleSided":true},{"name":"Material #860","pbrMetallicRoughness":{"baseColorFactor":[0.75,0.75,0.75,1],"roughnessFactor":0.55278641},"doubleSided":true},{"name":"Tire","pbrMetallicRoughness":{"baseColorFactor":[0.0705882385,0.0705882385,0.0705882385,1],"roughnessFactor":0.55278641},"doubleSided":true},{"name":"Chrome","pbrMetallicRoughness":{"roughnessFactor":0.55278641},"doubleSided":true},{"name":"Leather","pbrMetallicRoughness":{"baseColorFactor":[0.952941239,0.546762586,0.0235294141,1],"roughnessFactor":0.55278641},"doubleSided":true}],"meshes":[{"primitives":[{"attributes":{"POSITION":0,"NORMAL":1},"indices":2,"material":0},{"attributes":{"POSITION":3,"NORMAL":4},"indices":5,"material":1},{"attributes":{"POSITION":6,"NORMAL":7},"indices":8},{"attributes":{"POSITION":9,"NORMAL":10},"indices":11,"material":2},{"attributes":{"POSITION":12,"NORMAL":13},"indices":14,"material":3},{"attributes":{"POSITION":15,"NORMAL":16},"indices":17,"material":4}]}],"nodes":[{"mesh":0,"translation":[-12.7097301,-16.6242695,-29.5791187],"scale":[0.00361010386,0.00361010386,0.00361010386]}],"scenes":[{"name":"Scene","nodes":[0]}],"scene":0}