{"buffers":[{"uri":"zh1.bin","byteLength":2523912}],"asset":{"version":"2.0","generator":"gltfpack 0.17"},"extensionsUsed":["KHR_mesh_quantization","KHR_texture_transform"],"extensionsRequired":["KHR_mesh_quantization"],"bufferViews":[{"buffer":0,"byteOffset":0,"byteLength":495017},{"buffer":0,"byteOffset":495020,"byteLength":474170},{"buffer":0,"byteOffset":969192,"byteLength":460688,"byteStride":8,"target":34962},{"buffer":0,"byteOffset":1429880,"byteLength":230344,"byteStride":4,"target":34962},{"buffer":0,"byteOffset":1660224,"byteLength":646128,"target":34963},{"buffer":0,"byteOffset":2306352,"byteLength":217560,"byteStride":4,"target":34962}],"accessors":[{"bufferView":2,"byteOffset":0,"componentType":5123,"count":646,"type":"VEC3","min":[3603,5761,1823],"max":[4694,6213,2763]},{"bufferView":3,"byteOffset":0,"componentType":5120,"count":646,"type":"VEC3","normalized":true},{"bufferView":4,"byteOffset":0,"componentType":5123,"count":3168,"type":"SCALAR"},{"bufferView":2,"byteOffset":5168,"componentType":5123,"count":2550,"type":"VEC3","min":[2342,5628,0],"max":[3888,5848,1859]},{"bufferView":3,"byteOffset":2584,"componentType":5120,"count":2550,"type":"VEC3","normalized":true},{"bufferView":4,"byteOffset":6336,"componentType":5123,"count":14292,"type":"SCALAR"},{"bufferView":2,"byteOffset":25568,"componentType":5123,"count":35664,"type":"VEC3","min":[3386,4929,1437],"max":[5719,6347,4100]},{"bufferView":3,"byteOffset":12784,"componentType":5120,"count":35664,"type":"VEC3","normalized":true},{"bufferView":5,"byteOffset":0,"componentType":5123,"count":35664,"type":"VEC2"},{"bufferView":4,"byteOffset":34920,"componentType":5123,"count":194982,"type":"SCALAR"},{"bufferView":2,"byteOffset":310880,"componentType":5123,"count":18726,"type":"VEC3","min":[0,0,2521],"max":[6834,5921,16383]},{"bufferView":3,"byteOffset":155440,"componentType":5120,"count":18726,"type":"VEC3","normalized":true},{"bufferView":5,"byteOffset":142656,"componentType":5123,"count":18726,"type":"VEC2"},{"bufferView":4,"byteOffset":424884,"componentType":5123,"count":110622,"type":"SCALAR"}],"samplers":[{"magFilter":9729,"minFilter":9986}],"images":[{"bufferView":0,"mimeType":"image/png"},{"bufferView":1,"mimeType":"image/png"}],"textures":[{"sampler":0,"source":0},{"sampler":0,"source":0},{"sampler":0,"source":0},{"sampler":0,"source":1}],"materials":[{"name":"eye","pbrMetallicRoughness":{"baseColorFactor":[0,0,0,1],"metallicFactor":0,"roughnessFactor":0.866666675},"doubleSided":true},{"name":"tongue","pbrMetallicRoughness":{"baseColorFactor":[0.400000006,0.0179705005,0.0155999996,1],"metallicFactor":0,"roughnessFactor":0.905719101},"doubleSided":true},{"name":"head","pbrMetallicRoughness":{"baseColorTexture":{"index":1,"extensions":{"KHR_texture_transform":{"offset":[2.5,-9],"scale":[0.00366300368,0.00244200253]}}},"metallicFactor":0,"roughnessFactor":0.905719101},"normalTexture":{"index":0,"extensions":{"KHR_texture_transform":{"offset":[2.5,-9],"scale":[0.00366300368,0.00244200253]}}},"doubleSided":true},{"name":"body","pbrMetallicRoughness":{"baseColorTexture":{"index":3,"extensions":{"KHR_texture_transform":{"offset":[0,-59],"scale":[0.000976801035,0.0146520147]}}},"metallicFactor":0,"roughnessFactor":0.905719101},"normalTexture":{"index":2,"extensions":{"KHR_texture_transform":{"offset":[0,-59],"scale":[0.000976801035,0.0146520147]}}},"doubleSided":true}],"meshes":[{"primitives":[{"attributes":{"POSITION":0,"NORMAL":1},"indices":2,"material":0},{"attributes":{"POSITION":3,"NORMAL":4},"indices":5,"material":1},{"attributes":{"POSITION":6,"NORMAL":7,"TEXCOORD_0":8},"indices":9,"material":2},{"attributes":{"POSITION":10,"NORMAL":11,"TEXCOORD_0":12},"indices":13,"material":3}]}],"nodes":[{"mesh":0,"translation":[-13.2517586,-1.37657166,-19.8741322],"scale":[0.00255591422,0.00255591422,0.00255591422]}],"scenes":[{"name":"Scene","nodes":[0]}],"scene":0}