{
    "asset" : {
        "generator" : "Khronos glTF Blender I/O v1.4.40",
        "version" : "2.0"
    },
    "scene" : 0,
    "scenes" : [
        {
            "name" : "Scene",
            "nodes" : [
                0
            ]
        }
    ],
    "nodes" : [
        {
            "mesh" : 0,
            "name" : "uploads files 2013243 \u0410\u0430",
            "rotation" : [
                0,
                0,
                -0.9998789429664612,
                -0.015566600486636162
            ],
            "scale" : [
                1,
                1,
                0.28532683849334717
            ],
            "translation" : [
                29.404035568237305,
                6.78271484375,
                0
            ]
        }
    ],
    "materials" : [
        {
            "doubleSided" : true,
            "name" : "\u041c\u0430\u0442\u0435\u0440\u0438\u0430\u043b",
            "pbrMetallicRoughness" : {
                "baseColorFactor" : [
                    0.8000000715255737,
                    0.002420209115371108,
                    0,
                    1
                ],
                "metallicFactor" : 0,
                "roughnessFactor" : 0.5
            }
        }
    ],
    "meshes" : [
        {
            "name" : "uploads files 2013243 \u0410\u0430",
            "primitives" : [
                {
                    "attributes" : {
                        "POSITION" : 0,
                        "NORMAL" : 1
                    },
                    "indices" : 2,
                    "material" : 0
                }
            ]
        }
    ],
    "accessors" : [
        {
            "bufferView" : 0,
            "componentType" : 5126,
            "count" : 6994,
            "max" : [
                21.943593978881836,
                9.979999542236328,
                0
            ],
            "min" : [
                10.010000228881836,
                2.7046093940734863,
                -5
            ],
            "type" : "VEC3"
        },
        {
            "bufferView" : 1,
            "componentType" : 5126,
            "count" : 6994,
            "type" : "VEC3"
        },
        {
            "bufferView" : 2,
            "componentType" : 5123,
            "count" : 10944,
            "type" : "SCALAR"
        }
    ],
    "bufferViews" : [
        {
            "buffer" : 0,
            "byteLength" : 83928,
            "byteOffset" : 0
        },
        {
            "buffer" : 0,
            "byteLength" : 83928,
            "byteOffset" : 83928
        },
        {
            "buffer" : 0,
            "byteLength" : 21888,
            "byteOffset" : 167856
        }
    ],
    "buffers" : [
        {
            "byteLength" : 189744,
            "uri" : "data:application/octet-stream;base64,"
        }
    ]
}
