{
    "asset" : {
        "generator" : "Khronos glTF Blender I/O v1.4.40",
        "version" : "2.0"
    },
    "scene" : 0,
    "scenes" : [
        {
            "name" : "Scene",
            "nodes" : [
                0,
                1
            ]
        }
    ],
    "nodes" : [
        {
            "mesh" : 0,
            "name" : "Uploads Files 1950256 A",
            "rotation" : [
                0,
                0,
                -0.9999905228614807,
                0.0043473313562572
            ],
            "translation" : [
                -148.08399963378906,
                55.536048889160156,
                0
            ]
        },
        {
            "mesh" : 1,
            "name" : "Uploads Files 1950256 A.001",
            "rotation" : [
                0,
                0,
                -0.9999905228614807,
                0.0043473313562572
            ],
            "scale" : [
                1.7933191061019897,
                1.7933191061019897,
                1.2212973833084106
            ],
            "translation" : [
                -227.9602508544922,
                97.18831634521484,
                0
            ]
        }
    ],
    "materials" : [
        {
            "doubleSided" : true,
            "name" : "\u041c\u0430\u0442\u0435\u0440\u0438\u0430\u043b",
            "pbrMetallicRoughness" : {
                "baseColorFactor" : [
                    0.8000000715255737,
                    0.002420209115371108,
                    0,
                    1
                ],
                "metallicFactor" : 0,
                "roughnessFactor" : 0.5
            }
        }
    ],
    "meshes" : [
        {
            "name" : "Uploads Files 1950256 A.002",
            "primitives" : [
                {
                    "attributes" : {
                        "POSITION" : 0,
                        "NORMAL" : 1
                    },
                    "indices" : 2,
                    "material" : 0
                }
            ]
        },
        {
            "name" : "Uploads Files 1950256 A.003",
            "primitives" : [
                {
                    "attributes" : {
                        "POSITION" : 3,
                        "NORMAL" : 4
                    },
                    "indices" : 2,
                    "material" : 0
                }
            ]
        }
    ],
    "accessors" : [
        {
            "bufferView" : 0,
            "componentType" : 5126,
            "count" : 3945,
            "max" : [
                -125.29846954345703,
                57.4919319152832,
                0
            ],
            "min" : [
                -139.0836181640625,
                41.082794189453125,
                -5
            ],
            "type" : "VEC3"
        },
        {
            "bufferView" : 1,
            "componentType" : 5126,
            "count" : 3945,
            "type" : "VEC3"
        },
        {
            "bufferView" : 2,
            "componentType" : 5123,
            "count" : 6216,
            "type" : "SCALAR"
        },
        {
            "bufferView" : 3,
            "componentType" : 5126,
            "count" : 3945,
            "max" : [
                -125.29846954345703,
                57.4919319152832,
                0
            ],
            "min" : [
                -139.0836181640625,
                41.082794189453125,
                -5
            ],
            "type" : "VEC3"
        },
        {
            "bufferView" : 4,
            "componentType" : 5126,
            "count" : 3945,
            "type" : "VEC3"
        }
    ],
    "bufferViews" : [
        {
            "buffer" : 0,
            "byteLength" : 47340,
            "byteOffset" : 0
        },
        {
            "buffer" : 0,
            "byteLength" : 47340,
            "byteOffset" : 47340
        },
        {
            "buffer" : 0,
            "byteLength" : 12432,
            "byteOffset" : 94680
        },
        {
            "buffer" : 0,
            "byteLength" : 47340,
            "byteOffset" : 107112
        },
        {
            "buffer" : 0,
            "byteLength" : 47340,
            "byteOffset" : 154452
        }
    ],
    "buffers" : [
        {
            "byteLength" : 201792,
            "uri" : "data:application/octet-stream;base64,"
        }
    ]
}
