{
    "asset" : {
        "generator" : "Khronos glTF Blender I/O v1.4.40",
        "version" : "2.0"
    },
    "scene" : 0,
    "scenes" : [
        {
            "name" : "Scene",
            "nodes" : [
                0
            ]
        }
    ],
    "nodes" : [
        {
            "mesh" : 0,
            "name" : "Mesh_0",
            "rotation" : [
                -0.0037930579856038094,
                -0.7070854306221008,
                0.707108736038208,
                -0.0036070439964532852
            ],
            "scale" : [
                0.9999598264694214,
                0.5153261423110962,
                1
            ],
            "translation" : [
                28.070812225341797,
                8.220232009887695,
                0
            ]
        }
    ],
    "materials" : [
        {
            "doubleSided" : true,
            "name" : "\u041c\u0430\u0442\u0435\u0440\u0438\u0430\u043b.001",
            "pbrMetallicRoughness" : {
                "baseColorFactor" : [
                    0.0055471607483923435,
                    0.09551609307527542,
                    0.8000000715255737,
                    1
                ],
                "metallicFactor" : 0,
                "roughnessFactor" : 0.5
            }
        }
    ],
    "meshes" : [
        {
            "name" : "Mesh_0.002",
            "primitives" : [
                {
                    "attributes" : {
                        "POSITION" : 0,
                        "NORMAL" : 1
                    },
                    "indices" : 2,
                    "material" : 0
                }
            ]
        }
    ],
    "accessors" : [
        {
            "bufferView" : 0,
            "componentType" : 5126,
            "count" : 16735,
            "max" : [
                36.0890998840332,
                5,
                9.979999542236328
            ],
            "min" : [
                25.010000228881836,
                0,
                2.5337109565734863
            ],
            "type" : "VEC3"
        },
        {
            "bufferView" : 1,
            "componentType" : 5126,
            "count" : 16735,
            "type" : "VEC3"
        },
        {
            "bufferView" : 2,
            "componentType" : 5123,
            "count" : 17520,
            "type" : "SCALAR"
        }
    ],
    "bufferViews" : [
        {
            "buffer" : 0,
            "byteLength" : 200820,
            "byteOffset" : 0
        },
        {
            "buffer" : 0,
            "byteLength" : 200820,
            "byteOffset" : 200820
        },
        {
            "buffer" : 0,
            "byteLength" : 35040,
            "byteOffset" : 401640
        }
    ],
    "buffers" : [
        {
            "byteLength" : 436680,
            "uri" : "data:application/octet-stream;base64,"
        }
    ]
}
