{
    "asset" : {
        "generator" : "Khronos glTF Blender I/O v1.4.40",
        "version" : "2.0"
    },
    "scene" : 0,
    "scenes" : [
        {
            "name" : "Scene",
            "nodes" : [
                0
            ]
        }
    ],
    "nodes" : [
        {
            "mesh" : 0,
            "name" : "Mesh_0.001",
            "rotation" : [
                -0.014547007158398628,
                0.7036941051483154,
                -0.7102283835411072,
                0.013368966057896614
            ],
            "scale" : [
                1,
                0.5234508514404297,
                0.9999692440032959
            ],
            "translation" : [
                43.305328369140625,
                11.540895462036133,
                0
            ]
        }
    ],
    "materials" : [
        {
            "doubleSided" : true,
            "name" : "\u041c\u0430\u0442\u0435\u0440\u0438\u0430\u043b.002",
            "pbrMetallicRoughness" : {
                "baseColorFactor" : [
                    0.00739755155518651,
                    0.11249273270368576,
                    0.8000000715255737,
                    1
                ],
                "metallicFactor" : 0,
                "roughnessFactor" : 0.5
            }
        }
    ],
    "meshes" : [
        {
            "name" : "Mesh_0.003",
            "primitives" : [
                {
                    "attributes" : {
                        "POSITION" : 0,
                        "NORMAL" : 1
                    },
                    "indices" : 2,
                    "material" : 0
                }
            ]
        }
    ],
    "accessors" : [
        {
            "bufferView" : 0,
            "componentType" : 5126,
            "count" : 16127,
            "max" : [
                50.8693733215332,
                5,
                9.979999542236328
            ],
            "min" : [
                40.0099983215332,
                0,
                2.8217968940734863
            ],
            "type" : "VEC3"
        },
        {
            "bufferView" : 1,
            "componentType" : 5126,
            "count" : 16127,
            "type" : "VEC3"
        },
        {
            "bufferView" : 2,
            "componentType" : 5123,
            "count" : 16854,
            "type" : "SCALAR"
        }
    ],
    "bufferViews" : [
        {
            "buffer" : 0,
            "byteLength" : 193524,
            "byteOffset" : 0
        },
        {
            "buffer" : 0,
            "byteLength" : 193524,
            "byteOffset" : 193524
        },
        {
            "buffer" : 0,
            "byteLength" : 33708,
            "byteOffset" : 387048
        }
    ],
    "buffers" : [
        {
            "byteLength" : 420756,
            "uri" : "data:application/octet-stream;base64,"
        }
    ]
}
