{
    "asset" : {
        "generator" : "Khronos glTF Blender I/O v1.4.40",
        "version" : "2.0"
    },
    "scene" : 0,
    "scenes" : [
        {
            "name" : "Scene",
            "nodes" : [
                0
            ]
        }
    ],
    "nodes" : [
        {
            "mesh" : 0,
            "name" : "Mesh_0.029",
            "rotation" : [
                -0.016869699582457542,
                -0.6962549090385437,
                0.7172753810882568,
                -0.021458232775330544
            ],
            "scale" : [
                0.9988157153129578,
                0.44011616706848145,
                0.9996384382247925
            ],
            "translation" : [
                96.15184783935547,
                32.81975555419922,
                28.448707580566406
            ]
        }
    ],
    "materials" : [
        {
            "doubleSided" : true,
            "name" : "\u041c\u0430\u0442\u0435\u0440\u0438\u0430\u043b.002",
            "pbrMetallicRoughness" : {
                "baseColorFactor" : [
                    0.00739755155518651,
                    0.11249273270368576,
                    0.8000000715255737,
                    1
                ],
                "metallicFactor" : 0,
                "roughnessFactor" : 0.5
            }
        }
    ],
    "meshes" : [
        {
            "name" : "Mesh_0.029",
            "primitives" : [
                {
                    "attributes" : {
                        "POSITION" : 0,
                        "NORMAL" : 1
                    },
                    "indices" : 2,
                    "material" : 0
                }
            ]
        }
    ],
    "accessors" : [
        {
            "bufferView" : 0,
            "componentType" : 5126,
            "count" : 6029,
            "max" : [
                86.42784881591797,
                5,
                40.26313400268555
            ],
            "min" : [
                75.64171600341797,
                0,
                33.10493087768555
            ],
            "type" : "VEC3"
        },
        {
            "bufferView" : 1,
            "componentType" : 5126,
            "count" : 6029,
            "type" : "VEC3"
        },
        {
            "bufferView" : 2,
            "componentType" : 5123,
            "count" : 6330,
            "type" : "SCALAR"
        }
    ],
    "bufferViews" : [
        {
            "buffer" : 0,
            "byteLength" : 72348,
            "byteOffset" : 0
        },
        {
            "buffer" : 0,
            "byteLength" : 72348,
            "byteOffset" : 72348
        },
        {
            "buffer" : 0,
            "byteLength" : 12660,
            "byteOffset" : 144696
        }
    ],
    "buffers" : [
        {
            "byteLength" : 157356,
            "uri" : "data:application/octet-stream;base64,"
        }
    ]
}
