{
    "asset" : {
        "generator" : "Khronos glTF Blender I/O v1.4.40",
        "version" : "2.0"
    },
    "scene" : 0,
    "scenes" : [
        {
            "name" : "Scene",
            "nodes" : [
                0
            ]
        }
    ],
    "nodes" : [
        {
            "mesh" : 0,
            "name" : "Mesh_0.004",
            "rotation" : [
                0.024484794586896896,
                -0.6924145221710205,
                0.7210514545440674,
                0.0068914638832211494
            ],
            "scale" : [
                0.9992218613624573,
                0.5325440168380737,
                0.9960780143737793
            ],
            "translation" : [
                71.91209411621094,
                9.377347946166992,
                0
            ]
        }
    ],
    "materials" : [
        {
            "doubleSided" : true,
            "name" : "\u041c\u0430\u0442\u0435\u0440\u0438\u0430\u043b.001",
            "pbrMetallicRoughness" : {
                "baseColorFactor" : [
                    0.0055471607483923435,
                    0.09551609307527542,
                    0.8000000715255737,
                    1
                ],
                "metallicFactor" : 0,
                "roughnessFactor" : 0.5
            }
        }
    ],
    "meshes" : [
        {
            "name" : "Mesh_0.004",
            "primitives" : [
                {
                    "attributes" : {
                        "POSITION" : 0,
                        "NORMAL" : 1
                    },
                    "indices" : 2,
                    "material" : 0
                }
            ]
        }
    ],
    "accessors" : [
        {
            "bufferView" : 0,
            "componentType" : 5126,
            "count" : 1734,
            "max" : [
                79.21878814697266,
                5,
                9.989999771118164
            ],
            "min" : [
                66.91898345947266,
                0,
                1.1618750095367432
            ],
            "type" : "VEC3"
        },
        {
            "bufferView" : 1,
            "componentType" : 5126,
            "count" : 1734,
            "type" : "VEC3"
        },
        {
            "bufferView" : 2,
            "componentType" : 5123,
            "count" : 1872,
            "type" : "SCALAR"
        }
    ],
    "bufferViews" : [
        {
            "buffer" : 0,
            "byteLength" : 20808,
            "byteOffset" : 0
        },
        {
            "buffer" : 0,
            "byteLength" : 20808,
            "byteOffset" : 20808
        },
        {
            "buffer" : 0,
            "byteLength" : 3744,
            "byteOffset" : 41616
        }
    ],
    "buffers" : [
        {
            "byteLength" : 45360,
            "uri" : "data:application/octet-stream;base64,"
        }
    ]
}
