{
    "asset" : {
        "generator" : "Khronos glTF Blender I/O v1.4.40",
        "version" : "2.0"
    },
    "scene" : 0,
    "scenes" : [
        {
            "name" : "Scene",
            "nodes" : [
                0
            ]
        }
    ],
    "nodes" : [
        {
            "mesh" : 0,
            "name" : "Mesh_0.005",
            "rotation" : [
                -0.008440188132226467,
                0.6951572299003601,
                -0.7187618613243103,
                -0.008163019083440304
            ],
            "scale" : [
                0.9997398853302002,
                0.4974413514137268,
                0.999474823474884
            ],
            "translation" : [
                98.20238494873047,
                10.698039054870605,
                0
            ]
        }
    ],
    "materials" : [
        {
            "doubleSided" : true,
            "name" : "\u041c\u0430\u0442\u0435\u0440\u0438\u0430\u043b.003",
            "pbrMetallicRoughness" : {
                "baseColorFactor" : [
                    0.8000000715255737,
                    0.002420209115371108,
                    0,
                    1
                ],
                "metallicFactor" : 0,
                "roughnessFactor" : 0.5
            }
        }
    ],
    "meshes" : [
        {
            "name" : "Mesh_0.005",
            "primitives" : [
                {
                    "attributes" : {
                        "POSITION" : 0,
                        "NORMAL" : 1
                    },
                    "indices" : 2,
                    "material" : 0
                }
            ]
        }
    ],
    "accessors" : [
        {
            "bufferView" : 0,
            "componentType" : 5126,
            "count" : 8911,
            "max" : [
                93.27154541015625,
                5,
                9.979999542236328
            ],
            "min" : [
                82.24615478515625,
                0,
                2.7046093940734863
            ],
            "type" : "VEC3"
        },
        {
            "bufferView" : 1,
            "componentType" : 5126,
            "count" : 8911,
            "type" : "VEC3"
        },
        {
            "bufferView" : 2,
            "componentType" : 5123,
            "count" : 9324,
            "type" : "SCALAR"
        }
    ],
    "bufferViews" : [
        {
            "buffer" : 0,
            "byteLength" : 106932,
            "byteOffset" : 0
        },
        {
            "buffer" : 0,
            "byteLength" : 106932,
            "byteOffset" : 106932
        },
        {
            "buffer" : 0,
            "byteLength" : 18648,
            "byteOffset" : 213864
        }
    ],
    "buffers" : [
        {
            "byteLength" : 232512,
            "uri" : "data:application/octet-stream;base64,"
        }
    ]
}
