{
    "asset" : {
        "generator" : "Khronos glTF Blender I/O v1.4.40",
        "version" : "2.0"
    },
    "scene" : 0,
    "scenes" : [
        {
            "name" : "Scene",
            "nodes" : [
                0
            ]
        }
    ],
    "nodes" : [
        {
            "mesh" : 0,
            "name" : "Mesh_0.006",
            "rotation" : [
                0.03837563842535019,
                -0.714367151260376,
                0.6979507207870483,
                0.03273868188261986
            ],
            "scale" : [
                0.9955512881278992,
                0.35085582733154297,
                0.9982960820198059
            ],
            "translation" : [
                100.28668212890625,
                12.410051345825195,
                0
            ]
        }
    ],
    "materials" : [
        {
            "doubleSided" : true,
            "name" : "\u041c\u0430\u0442\u0435\u0440\u0438\u0430\u043b.005",
            "pbrMetallicRoughness" : {
                "baseColorFactor" : [
                    0.8000000715255737,
                    0.002420209115371108,
                    0,
                    1
                ],
                "metallicFactor" : 0,
                "roughnessFactor" : 0.5
            }
        }
    ],
    "meshes" : [
        {
            "name" : "Mesh_0.006",
            "primitives" : [
                {
                    "attributes" : {
                        "POSITION" : 0,
                        "NORMAL" : 1
                    },
                    "indices" : 2,
                    "material" : 0
                }
            ]
        }
    ],
    "accessors" : [
        {
            "bufferView" : 0,
            "componentType" : 5126,
            "count" : 11377,
            "max" : [
                108.01409149169922,
                5,
                9.979999542236328
            ],
            "min" : [
                96.98381805419922,
                0,
                1.2641797065734863
            ],
            "type" : "VEC3"
        },
        {
            "bufferView" : 1,
            "componentType" : 5126,
            "count" : 11377,
            "type" : "VEC3"
        },
        {
            "bufferView" : 2,
            "componentType" : 5123,
            "count" : 11904,
            "type" : "SCALAR"
        }
    ],
    "bufferViews" : [
        {
            "buffer" : 0,
            "byteLength" : 136524,
            "byteOffset" : 0
        },
        {
            "buffer" : 0,
            "byteLength" : 136524,
            "byteOffset" : 136524
        },
        {
            "buffer" : 0,
            "byteLength" : 23808,
            "byteOffset" : 273048
        }
    ],
    "buffers" : [
        {
            "byteLength" : 296856,
            "uri" : "data:application/octet-stream;base64,"
        }
    ]
}
