{
    "asset" : {
        "generator" : "Khronos glTF Blender I/O v1.4.40",
        "version" : "2.0"
    },
    "scene" : 0,
    "scenes" : [
        {
            "name" : "Scene",
            "nodes" : [
                0
            ]
        }
    ],
    "nodes" : [
        {
            "mesh" : 0,
            "name" : "Mesh_0.034",
            "rotation" : [
                -0.010597563348710537,
                0.716718852519989,
                -0.6971966624259949,
                -0.010894312523305416
            ],
            "scale" : [
                0.9996290802955627,
                0.44529902935028076,
                0.9996942281723022
            ],
            "translation" : [
                84.67627716064453,
                54.85542678833008,
                0
            ]
        }
    ],
    "materials" : [
        {
            "doubleSided" : true,
            "name" : "\u041c\u0430\u0442\u0435\u0440\u0438\u0430\u043b",
            "pbrMetallicRoughness" : {
                "baseColorFactor" : [
                    0.8000000715255737,
                    0.002420209115371108,
                    0,
                    1
                ],
                "metallicFactor" : 0,
                "roughnessFactor" : 0.5
            }
        }
    ],
    "meshes" : [
        {
            "name" : "Mesh_0.034",
            "primitives" : [
                {
                    "attributes" : {
                        "POSITION" : 0,
                        "NORMAL" : 1
                    },
                    "indices" : 2,
                    "material" : 0
                }
            ]
        }
    ],
    "accessors" : [
        {
            "bufferView" : 0,
            "componentType" : 5126,
            "count" : 18644,
            "max" : [
                89.71568298339844,
                5,
                52.35393524169922
            ],
            "min" : [
                78.21177673339844,
                0,
                44.95159149169922
            ],
            "type" : "VEC3"
        },
        {
            "bufferView" : 1,
            "componentType" : 5126,
            "count" : 18644,
            "type" : "VEC3"
        },
        {
            "bufferView" : 2,
            "componentType" : 5123,
            "count" : 19446,
            "type" : "SCALAR"
        }
    ],
    "bufferViews" : [
        {
            "buffer" : 0,
            "byteLength" : 223728,
            "byteOffset" : 0
        },
        {
            "buffer" : 0,
            "byteLength" : 223728,
            "byteOffset" : 223728
        },
        {
            "buffer" : 0,
            "byteLength" : 38892,
            "byteOffset" : 447456
        }
    ],
    "buffers" : [
        {
            "byteLength" : 486348,
            "uri" : "data:application/octet-stream;base64,"
        }
    ]
}
