{
    "asset" : {
        "generator" : "Khronos glTF Blender I/O v1.4.40",
        "version" : "2.0"
    },
    "scene" : 0,
    "scenes" : [
        {
            "name" : "Scene",
            "nodes" : [
                0
            ]
        }
    ],
    "nodes" : [
        {
            "mesh" : 0,
            "name" : "Mesh_0.026",
            "rotation" : [
                0.003838076489046216,
                0.7119721174240112,
                -0.702181339263916,
                0.004740117117762566
            ],
            "scale" : [
                0.9999433159828186,
                0.48102128505706787,
                0.9999263882637024
            ],
            "translation" : [
                16.221704483032227,
                35.974002838134766,
                0
            ]
        }
    ],
    "materials" : [
        {
            "doubleSided" : true,
            "name" : "\u041c\u0430\u0442\u0435\u0440\u0438\u0430\u043b.001",
            "pbrMetallicRoughness" : {
                "baseColorFactor" : [
                    0.0055471607483923435,
                    0.09551609307527542,
                    0.8000000715255737,
                    1
                ],
                "metallicFactor" : 0,
                "roughnessFactor" : 0.5
            }
        }
    ],
    "meshes" : [
        {
            "name" : "Mesh_0.026",
            "primitives" : [
                {
                    "attributes" : {
                        "POSITION" : 0,
                        "NORMAL" : 1
                    },
                    "indices" : 2,
                    "material" : 0
                }
            ]
        }
    ],
    "accessors" : [
        {
            "bufferView" : 0,
            "componentType" : 5126,
            "count" : 22621,
            "max" : [
                25.073476791381836,
                5,
                39.97999954223633
            ],
            "min" : [
                10.010000228881836,
                0,
                30.775897979736328
            ],
            "type" : "VEC3"
        },
        {
            "bufferView" : 1,
            "componentType" : 5126,
            "count" : 22621,
            "type" : "VEC3"
        },
        {
            "bufferView" : 2,
            "componentType" : 5123,
            "count" : 23742,
            "type" : "SCALAR"
        }
    ],
    "bufferViews" : [
        {
            "buffer" : 0,
            "byteLength" : 271452,
            "byteOffset" : 0
        },
        {
            "buffer" : 0,
            "byteLength" : 271452,
            "byteOffset" : 271452
        },
        {
            "buffer" : 0,
            "byteLength" : 47484,
            "byteOffset" : 542904
        }
    ],
    "buffers" : [
        {
            "byteLength" : 590388,
            "uri" : "data:application/octet-stream;base64,"
        }
    ]
}
