{
    "asset" : {
        "generator" : "Khronos glTF Blender I/O v1.4.40",
        "version" : "2.0"
    },
    "scene" : 0,
    "scenes" : [
        {
            "name" : "Scene",
            "nodes" : [
                0,
                1,
                2,
                3
            ]
        }
    ],
    "nodes" : [
        {
            "mesh" : 0,
            "name" : "Body49",
            "rotation" : [
                0.005969402380287647,
                0.7100692987442017,
                -0.7040807604789734,
                0.006020174827426672
            ],
            "translation" : [
                -149.182861328125,
                62.309234619140625,
                -22.07486343383789
            ]
        },
        {
            "mesh" : 1,
            "name" : "\u041a\u0443\u0431",
            "rotation" : [
                0.005969402380287647,
                0.7100692987442017,
                -0.7040807604789734,
                0.006020174827426672
            ],
            "scale" : [
                1.8234963417053223,
                -2.921666383743286,
                1.273337960243225
            ],
            "translation" : [
                12.028823852539062,
                9.453973770141602,
                -21.74475860595703
            ]
        },
        {
            "mesh" : 2,
            "name" : "Body49.001",
            "rotation" : [
                0.005969402380287647,
                0.7100692987442017,
                -0.7040807604789734,
                0.006020174827426672
            ],
            "scale" : [
                0.6353880763053894,
                0.9289166331291199,
                0.7128086090087891
            ],
            "translation" : [
                -109.40013885498047,
                43.72620391845703,
                -21.62717056274414
            ]
        },
        {
            "mesh" : 3,
            "name" : "\u041a\u0443\u0431.001",
            "rotation" : [
                0.005969402380287647,
                0.7100692987442017,
                -0.7040807604789734,
                0.006020174827426672
            ],
            "scale" : [
                1.6899484395980835,
                -2.713984489440918,
                0.9076462388038635
            ],
            "translation" : [
                -6.9578704833984375,
                6.054096221923828,
                -22.02601432800293
            ]
        }
    ],
    "materials" : [
        {
            "doubleSided" : true,
            "name" : "\u041c\u0430\u0442\u0435\u0440\u0438\u0430\u043b.002",
            "pbrMetallicRoughness" : {
                "baseColorFactor" : [
                    0.00739755155518651,
                    0.11249273270368576,
                    0.8000000715255737,
                    1
                ],
                "metallicFactor" : 0,
                "roughnessFactor" : 0.5
            }
        },
        {
            "doubleSided" : true,
            "name" : "\u041c\u0430\u0442\u0435\u0440\u0438\u0430\u043b.001",
            "pbrMetallicRoughness" : {
                "baseColorFactor" : [
                    0.0055471607483923435,
                    0.09551609307527542,
                    0.8000000715255737,
                    1
                ],
                "metallicFactor" : 0,
                "roughnessFactor" : 0.5
            }
        }
    ],
    "meshes" : [
        {
            "name" : "Mesh_0.008",
            "primitives" : [
                {
                    "attributes" : {
                        "POSITION" : 0,
                        "NORMAL" : 1,
                        "TEXCOORD_0" : 2
                    },
                    "indices" : 3,
                    "material" : 0
                }
            ]
        },
        {
            "name" : "\u041a\u0443\u0431.003",
            "primitives" : [
                {
                    "attributes" : {
                        "POSITION" : 4,
                        "NORMAL" : 5,
                        "TEXCOORD_0" : 6
                    },
                    "indices" : 7,
                    "material" : 1
                }
            ]
        },
        {
            "name" : "Mesh_0.009",
            "primitives" : [
                {
                    "attributes" : {
                        "POSITION" : 8,
                        "NORMAL" : 9,
                        "TEXCOORD_0" : 10
                    },
                    "indices" : 3,
                    "material" : 0
                }
            ]
        },
        {
            "name" : "\u041a\u0443\u0431.004",
            "primitives" : [
                {
                    "attributes" : {
                        "POSITION" : 11,
                        "NORMAL" : 12,
                        "TEXCOORD_0" : 13
                    },
                    "indices" : 7,
                    "material" : 0
                }
            ]
        }
    ],
    "accessors" : [
        {
            "bufferView" : 0,
            "componentType" : 5126,
            "count" : 104,
            "max" : [
                -145.79510498046875,
                5,
                63.52861785888672
            ],
            "min" : [
                -160.41551208496094,
                0,
                41.856727600097656
            ],
            "type" : "VEC3"
        },
        {
            "bufferView" : 1,
            "componentType" : 5126,
            "count" : 104,
            "type" : "VEC3"
        },
        {
            "bufferView" : 2,
            "componentType" : 5126,
            "count" : 104,
            "type" : "VEC2"
        },
        {
            "bufferView" : 3,
            "componentType" : 5123,
            "count" : 108,
            "type" : "SCALAR"
        },
        {
            "bufferView" : 4,
            "componentType" : 5126,
            "count" : 24,
            "max" : [
                1,
                1,
                1
            ],
            "min" : [
                -1,
                -1,
                -1
            ],
            "type" : "VEC3"
        },
        {
            "bufferView" : 5,
            "componentType" : 5126,
            "count" : 24,
            "type" : "VEC3"
        },
        {
            "bufferView" : 6,
            "componentType" : 5126,
            "count" : 24,
            "type" : "VEC2"
        },
        {
            "bufferView" : 7,
            "componentType" : 5123,
            "count" : 36,
            "type" : "SCALAR"
        },
        {
            "bufferView" : 8,
            "componentType" : 5126,
            "count" : 104,
            "max" : [
                -145.79510498046875,
                5,
                63.52861785888672
            ],
            "min" : [
                -160.41551208496094,
                0,
                41.856727600097656
            ],
            "type" : "VEC3"
        },
        {
            "bufferView" : 9,
            "componentType" : 5126,
            "count" : 104,
            "type" : "VEC3"
        },
        {
            "bufferView" : 10,
            "componentType" : 5126,
            "count" : 104,
            "type" : "VEC2"
        },
        {
            "bufferView" : 11,
            "componentType" : 5126,
            "count" : 24,
            "max" : [
                1,
                1,
                1
            ],
            "min" : [
                -1,
                -1,
                -1
            ],
            "type" : "VEC3"
        },
        {
            "bufferView" : 12,
            "componentType" : 5126,
            "count" : 24,
            "type" : "VEC3"
        },
        {
            "bufferView" : 13,
            "componentType" : 5126,
            "count" : 24,
            "type" : "VEC2"
        }
    ],
    "bufferViews" : [
        {
            "buffer" : 0,
            "byteLength" : 1248,
            "byteOffset" : 0
        },
        {
            "buffer" : 0,
            "byteLength" : 1248,
            "byteOffset" : 1248
        },
        {
            "buffer" : 0,
            "byteLength" : 832,
            "byteOffset" : 2496
        },
        {
            "buffer" : 0,
            "byteLength" : 216,
            "byteOffset" : 3328
        },
        {
            "buffer" : 0,
            "byteLength" : 288,
            "byteOffset" : 3544
        },
        {
            "buffer" : 0,
            "byteLength" : 288,
            "byteOffset" : 3832
        },
        {
            "buffer" : 0,
            "byteLength" : 192,
            "byteOffset" : 4120
        },
        {
            "buffer" : 0,
            "byteLength" : 72,
            "byteOffset" : 4312
        },
        {
            "buffer" : 0,
            "byteLength" : 1248,
            "byteOffset" : 4384
        },
        {
            "buffer" : 0,
            "byteLength" : 1248,
            "byteOffset" : 5632
        },
        {
            "buffer" : 0,
            "byteLength" : 832,
            "byteOffset" : 6880
        },
        {
            "buffer" : 0,
            "byteLength" : 288,
            "byteOffset" : 7712
        },
        {
            "buffer" : 0,
            "byteLength" : 288,
            "byteOffset" : 8000
        },
        {
            "buffer" : 0,
            "byteLength" : 192,
            "byteOffset" : 8288
        }
    ],
    "buffers" : [
        {
            "byteLength" : 8480,
            "uri" : "data:application/octet-stream;base64,"
        }
    ]
}
