{
    "asset" : {
        "generator" : "Khronos glTF Blender I/O v1.4.40",
        "version" : "2.0"
    },
    "scene" : 0,
    "scenes" : [
        {
            "name" : "Scene",
            "nodes" : [
                0,
                1
            ]
        }
    ],
    "nodes" : [
        {
            "mesh" : 0,
            "name" : "Uploads Files 1950256 H",
            "rotation" : [
                -0.011629006825387478,
                0.0009293889161199331,
                0.9999313354492188,
                -0.0011554374359548092
            ],
            "translation" : [
                211.59478759765625,
                58.51607894897461,
                -67.69328308105469
            ]
        },
        {
            "mesh" : 1,
            "name" : "Uploads Files 1950256 H.001",
            "rotation" : [
                -0.011629006825387478,
                0.0009293889161199331,
                0.9999313354492188,
                -0.0011554374359548092
            ],
            "scale" : [
                1.381524920463562,
                1.5660654306411743,
                1.381524920463562
            ],
            "translation" : [
                322.55328369140625,
                90.32225036621094,
                -65.17011260986328
            ]
        }
    ],
    "materials" : [
        {
            "doubleSided" : true,
            "name" : "\u041c\u0430\u0442\u0435\u0440\u0438\u0430\u043b.001",
            "pbrMetallicRoughness" : {
                "baseColorFactor" : [
                    0.0055471607483923435,
                    0.09551609307527542,
                    0.8000000715255737,
                    1
                ],
                "metallicFactor" : 0,
                "roughnessFactor" : 0.5
            }
        }
    ],
    "meshes" : [
        {
            "name" : "Uploads Files 1950256 H",
            "primitives" : [
                {
                    "attributes" : {
                        "POSITION" : 0,
                        "NORMAL" : 1
                    },
                    "indices" : 2,
                    "material" : 0
                }
            ]
        },
        {
            "name" : "Uploads Files 1950256 H.001",
            "primitives" : [
                {
                    "attributes" : {
                        "POSITION" : 3,
                        "NORMAL" : 4
                    },
                    "indices" : 2,
                    "material" : 0
                }
            ]
        }
    ],
    "accessors" : [
        {
            "bufferView" : 0,
            "componentType" : 5126,
            "count" : 1292,
            "max" : [
                231.3046417236328,
                57.137142181396484,
                0
            ],
            "min" : [
                218.51734924316406,
                35.465248107910156,
                -5
            ],
            "type" : "VEC3"
        },
        {
            "bufferView" : 1,
            "componentType" : 5126,
            "count" : 1292,
            "type" : "VEC3"
        },
        {
            "bufferView" : 2,
            "componentType" : 5123,
            "count" : 2010,
            "type" : "SCALAR"
        },
        {
            "bufferView" : 3,
            "componentType" : 5126,
            "count" : 1292,
            "max" : [
                231.3046417236328,
                57.137142181396484,
                0
            ],
            "min" : [
                218.51734924316406,
                35.465248107910156,
                -5
            ],
            "type" : "VEC3"
        },
        {
            "bufferView" : 4,
            "componentType" : 5126,
            "count" : 1292,
            "type" : "VEC3"
        }
    ],
    "bufferViews" : [
        {
            "buffer" : 0,
            "byteLength" : 15504,
            "byteOffset" : 0
        },
        {
            "buffer" : 0,
            "byteLength" : 15504,
            "byteOffset" : 15504
        },
        {
            "buffer" : 0,
            "byteLength" : 4020,
            "byteOffset" : 31008
        },
        {
            "buffer" : 0,
            "byteLength" : 15504,
            "byteOffset" : 35028
        },
        {
            "buffer" : 0,
            "byteLength" : 15504,
            "byteOffset" : 50532
        }
    ],
    "buffers" : [
        {
            "byteLength" : 66036,
            "uri" : "data:application/octet-stream;base64,"
        }
    ]
}
