{
    "asset" : {
        "generator" : "Khronos glTF Blender I/O v1.4.40",
        "version" : "2.0"
    },
    "scene" : 0,
    "scenes" : [
        {
            "name" : "Scene",
            "nodes" : [
                0
            ]
        }
    ],
    "nodes" : [
        {
            "mesh" : 0,
            "name" : "Mesh_0.011",
            "rotation" : [
                -0.007966291159391403,
                0.6701110601425171,
                -0.742183268070221,
                -0.007192693650722504
            ],
            "scale" : [
                0.9998249411582947,
                0.4980182647705078,
                0.9960550665855408
            ],
            "translation" : [
                158.65028381347656,
                18.24529266357422,
                0
            ]
        }
    ],
    "materials" : [
        {
            "doubleSided" : true,
            "name" : "\u041c\u0430\u0442\u0435\u0440\u0438\u0430\u043b",
            "pbrMetallicRoughness" : {
                "baseColorFactor" : [
                    0.8000000715255737,
                    0.002420209115371108,
                    0,
                    1
                ],
                "metallicFactor" : 0,
                "roughnessFactor" : 0.5
            }
        }
    ],
    "meshes" : [
        {
            "name" : "Mesh_0.011",
            "primitives" : [
                {
                    "attributes" : {
                        "POSITION" : 0,
                        "NORMAL" : 1
                    },
                    "indices" : 2,
                    "material" : 0
                }
            ]
        }
    ],
    "accessors" : [
        {
            "bufferView" : 0,
            "componentType" : 5126,
            "count" : 208,
            "max" : [
                156.33323669433594,
                5,
                9.979999542236328
            ],
            "min" : [
                145.00999450683594,
                0,
                2.8217968940734863
            ],
            "type" : "VEC3"
        },
        {
            "bufferView" : 1,
            "componentType" : 5126,
            "count" : 208,
            "type" : "VEC3"
        },
        {
            "bufferView" : 2,
            "componentType" : 5123,
            "count" : 216,
            "type" : "SCALAR"
        }
    ],
    "bufferViews" : [
        {
            "buffer" : 0,
            "byteLength" : 2496,
            "byteOffset" : 0
        },
        {
            "buffer" : 0,
            "byteLength" : 2496,
            "byteOffset" : 2496
        },
        {
            "buffer" : 0,
            "byteLength" : 432,
            "byteOffset" : 4992
        }
    ],
    "buffers" : [
        {
            "byteLength" : 5424,
            "uri" : "data:application/octet-stream;base64,"
        }
    ]
}
