{
    "asset" : {
        "generator" : "Khronos glTF Blender I/O v1.4.40",
        "version" : "2.0"
    },
    "scene" : 0,
    "scenes" : [
        {
            "name" : "Scene",
            "nodes" : [
                0
            ]
        }
    ],
    "nodes" : [
        {
            "mesh" : 0,
            "name" : "Mesh_0.012",
            "rotation" : [
                0.016176724806427956,
                -0.7297943234443665,
                0.6833798289299011,
                0.011420945636928082
            ],
            "scale" : [
                0.9995561242103577,
                0.6427616477012634,
                0.9987242817878723
            ],
            "translation" : [
                170.4209747314453,
                15.864662170410156,
                0
            ]
        }
    ],
    "materials" : [
        {
            "doubleSided" : true,
            "name" : "\u041c\u0430\u0442\u0435\u0440\u0438\u0430\u043b.002",
            "pbrMetallicRoughness" : {
                "baseColorFactor" : [
                    0.00739755155518651,
                    0.11249273270368576,
                    0.8000000715255737,
                    1
                ],
                "metallicFactor" : 0,
                "roughnessFactor" : 0.5
            }
        }
    ],
    "meshes" : [
        {
            "name" : "Mesh_0.012",
            "primitives" : [
                {
                    "attributes" : {
                        "POSITION" : 0,
                        "NORMAL" : 1
                    },
                    "indices" : 2,
                    "material" : 0
                }
            ]
        }
    ],
    "accessors" : [
        {
            "bufferView" : 0,
            "componentType" : 5126,
            "count" : 9131,
            "max" : [
                171.33323669433594,
                5,
                9.979999542236328
            ],
            "min" : [
                160.00999450683594,
                0,
                1.1176953315734863
            ],
            "type" : "VEC3"
        },
        {
            "bufferView" : 1,
            "componentType" : 5126,
            "count" : 9131,
            "type" : "VEC3"
        },
        {
            "bufferView" : 2,
            "componentType" : 5123,
            "count" : 9732,
            "type" : "SCALAR"
        }
    ],
    "bufferViews" : [
        {
            "buffer" : 0,
            "byteLength" : 109572,
            "byteOffset" : 0
        },
        {
            "buffer" : 0,
            "byteLength" : 109572,
            "byteOffset" : 109572
        },
        {
            "buffer" : 0,
            "byteLength" : 19464,
            "byteOffset" : 219144
        }
    ],
    "buffers" : [
        {
            "byteLength" : 238608,
            "uri" : "data:application/octet-stream;base64,"
        }
    ]
}
