{
    "asset" : {
        "generator" : "Khronos glTF Blender I/O v1.4.40",
        "version" : "2.0"
    },
    "scene" : 0,
    "scenes" : [
        {
            "name" : "Scene",
            "nodes" : [
                0,
                1,
                2
            ]
        }
    ],
    "nodes" : [
        {
            "mesh" : 0,
            "name" : "Mesh_0.006",
            "rotation" : [
                0.007610891479998827,
                0.7132116556167603,
                -0.7007826566696167,
                0.013223891146481037
            ],
            "scale" : [
                0.9997113347053528,
                0.5818716287612915,
                0.5687703490257263
            ],
            "translation" : [
                -180.54832458496094,
                104.07061004638672,
                -15.438711166381836
            ]
        },
        {
            "mesh" : 1,
            "name" : "Mesh_0.001",
            "rotation" : [
                0.007610891479998827,
                0.7132116556167603,
                -0.7007826566696167,
                0.013223891146481037
            ],
            "scale" : [
                0.9997113347053528,
                0.5818716287612915,
                0.9998990893363953
            ],
            "translation" : [
                -172.9258270263672,
                152.5475311279297,
                -14.809684753417969
            ]
        },
        {
            "mesh" : 2,
            "name" : "\u0421\u0444\u0435\u0440\u0430",
            "rotation" : [
                0.007610891479998827,
                0.7132116556167603,
                -0.7007826566696167,
                0.013223891146481037
            ],
            "scale" : [
                1.0860449075698853,
                0.9759302139282227,
                1.0858219861984253
            ],
            "translation" : [
                -14.483659744262695,
                55.96346664428711,
                -12.597356796264648
            ]
        }
    ],
    "materials" : [
        {
            "doubleSided" : true,
            "name" : "\u041c\u0430\u0442\u0435\u0440\u0438\u0430\u043b",
            "pbrMetallicRoughness" : {
                "baseColorFactor" : [
                    0.8000000715255737,
                    0.002420209115371108,
                    0,
                    1
                ],
                "metallicFactor" : 0,
                "roughnessFactor" : 0.5
            }
        }
    ],
    "meshes" : [
        {
            "name" : "Mesh_0.038",
            "primitives" : [
                {
                    "attributes" : {
                        "POSITION" : 0,
                        "NORMAL" : 1
                    },
                    "indices" : 2,
                    "material" : 0
                }
            ]
        },
        {
            "name" : "Mesh_0.039",
            "primitives" : [
                {
                    "attributes" : {
                        "POSITION" : 3,
                        "NORMAL" : 4
                    },
                    "indices" : 2,
                    "material" : 0
                }
            ]
        },
        {
            "name" : "\u0421\u0444\u0435\u0440\u0430",
            "primitives" : [
                {
                    "attributes" : {
                        "POSITION" : 5,
                        "NORMAL" : 6,
                        "TEXCOORD_0" : 7
                    },
                    "indices" : 8,
                    "material" : 0
                }
            ]
        }
    ],
    "accessors" : [
        {
            "bufferView" : 0,
            "componentType" : 5126,
            "count" : 36,
            "max" : [
                -164.4422149658203,
                5,
                112.08503723144531
            ],
            "min" : [
                -167.0789337158203,
                0,
                90.61042785644531
            ],
            "type" : "VEC3"
        },
        {
            "bufferView" : 1,
            "componentType" : 5126,
            "count" : 36,
            "type" : "VEC3"
        },
        {
            "bufferView" : 2,
            "componentType" : 5123,
            "count" : 36,
            "type" : "SCALAR"
        },
        {
            "bufferView" : 3,
            "componentType" : 5126,
            "count" : 36,
            "max" : [
                -164.4422149658203,
                5,
                112.08503723144531
            ],
            "min" : [
                -167.0789337158203,
                0,
                90.61042785644531
            ],
            "type" : "VEC3"
        },
        {
            "bufferView" : 4,
            "componentType" : 5126,
            "count" : 36,
            "type" : "VEC3"
        },
        {
            "bufferView" : 5,
            "componentType" : 5126,
            "count" : 2848,
            "max" : [
                1.000000238418579,
                1,
                1.0000003576278687
            ],
            "min" : [
                -0.9999998211860657,
                -1,
                -1
            ],
            "type" : "VEC3"
        },
        {
            "bufferView" : 6,
            "componentType" : 5126,
            "count" : 2848,
            "type" : "VEC3"
        },
        {
            "bufferView" : 7,
            "componentType" : 5126,
            "count" : 2848,
            "type" : "VEC2"
        },
        {
            "bufferView" : 8,
            "componentType" : 5123,
            "count" : 2880,
            "type" : "SCALAR"
        }
    ],
    "bufferViews" : [
        {
            "buffer" : 0,
            "byteLength" : 432,
            "byteOffset" : 0
        },
        {
            "buffer" : 0,
            "byteLength" : 432,
            "byteOffset" : 432
        },
        {
            "buffer" : 0,
            "byteLength" : 72,
            "byteOffset" : 864
        },
        {
            "buffer" : 0,
            "byteLength" : 432,
            "byteOffset" : 936
        },
        {
            "buffer" : 0,
            "byteLength" : 432,
            "byteOffset" : 1368
        },
        {
            "buffer" : 0,
            "byteLength" : 34176,
            "byteOffset" : 1800
        },
        {
            "buffer" : 0,
            "byteLength" : 34176,
            "byteOffset" : 35976
        },
        {
            "buffer" : 0,
            "byteLength" : 22784,
            "byteOffset" : 70152
        },
        {
            "buffer" : 0,
            "byteLength" : 5760,
            "byteOffset" : 92936
        }
    ],
    "buffers" : [
        {
            "byteLength" : 98696,
            "uri" : "data:application/octet-stream;base64,"
        }
    ]
}
