{
    "asset" : {
        "generator" : "Khronos glTF Blender I/O v1.4.40",
        "version" : "2.0"
    },
    "scene" : 0,
    "scenes" : [
        {
            "name" : "Scene",
            "nodes" : [
                0
            ]
        }
    ],
    "nodes" : [
        {
            "mesh" : 0,
            "name" : "Mesh_0.036",
            "rotation" : [
                0.01344037801027298,
                0.7099218964576721,
                -0.7040217518806458,
                0.013553015887737274
            ],
            "scale" : [
                0.9993254542350769,
                0.27505195140838623,
                0.9999678730964661
            ],
            "translation" : [
                133.08425903320312,
                68.82183837890625,
                0
            ]
        }
    ],
    "materials" : [
        {
            "doubleSided" : true,
            "name" : "\u041c\u0430\u0442\u0435\u0440\u0438\u0430\u043b",
            "pbrMetallicRoughness" : {
                "baseColorFactor" : [
                    0.8000000715255737,
                    0.002420209115371108,
                    0,
                    1
                ],
                "metallicFactor" : 0,
                "roughnessFactor" : 0.5
            }
        }
    ],
    "meshes" : [
        {
            "name" : "Mesh_0.036",
            "primitives" : [
                {
                    "attributes" : {
                        "POSITION" : 0,
                        "NORMAL" : 1
                    },
                    "indices" : 2,
                    "material" : 0
                }
            ]
        }
    ],
    "accessors" : [
        {
            "bufferView" : 0,
            "componentType" : 5126,
            "count" : 11309,
            "max" : [
                140.51443481445312,
                5,
                53.11345672607422
            ],
            "min" : [
                128.67849731445312,
                0,
                45.95525360107422
            ],
            "type" : "VEC3"
        },
        {
            "bufferView" : 1,
            "componentType" : 5126,
            "count" : 11309,
            "type" : "VEC3"
        },
        {
            "bufferView" : 2,
            "componentType" : 5123,
            "count" : 11928,
            "type" : "SCALAR"
        }
    ],
    "bufferViews" : [
        {
            "buffer" : 0,
            "byteLength" : 135708,
            "byteOffset" : 0
        },
        {
            "buffer" : 0,
            "byteLength" : 135708,
            "byteOffset" : 135708
        },
        {
            "buffer" : 0,
            "byteLength" : 23856,
            "byteOffset" : 271416
        }
    ],
    "buffers" : [
        {
            "byteLength" : 295272,
            "uri" : "data:application/octet-stream;base64,"
        }
    ]
}
