{
    "asset" : {
        "generator" : "Khronos glTF Blender I/O v1.4.40",
        "version" : "2.0"
    },
    "scene" : 0,
    "scenes" : [
        {
            "name" : "Scene",
            "nodes" : [
                0
            ]
        }
    ],
    "nodes" : [
        {
            "mesh" : 0,
            "name" : "Mesh_0.035",
            "rotation" : [
                0.006819825619459152,
                0.7085282802581787,
                -0.7056162357330322,
                0.006847970187664032
            ],
            "scale" : [
                0.999838650226593,
                0.3695709705352783,
                0.9999926686286926
            ],
            "translation" : [
                114.36677551269531,
                49.06224060058594,
                24.90784454345703
            ]
        }
    ],
    "materials" : [
        {
            "doubleSided" : true,
            "name" : "\u041c\u0430\u0442\u0435\u0440\u0438\u0430\u043b",
            "pbrMetallicRoughness" : {
                "baseColorFactor" : [
                    0.8000000715255737,
                    0.002420209115371108,
                    0,
                    1
                ],
                "metallicFactor" : 0,
                "roughnessFactor" : 0.5
            }
        }
    ],
    "meshes" : [
        {
            "name" : "Mesh_0.035",
            "primitives" : [
                {
                    "attributes" : {
                        "POSITION" : 0,
                        "NORMAL" : 1
                    },
                    "indices" : 2,
                    "material" : 0
                }
            ]
        }
    ],
    "accessors" : [
        {
            "bufferView" : 0,
            "componentType" : 5126,
            "count" : 16854,
            "max" : [
                116.10334777832031,
                5,
                52.41741180419922
            ],
            "min" : [
                99.70686340332031,
                0,
                45.01506805419922
            ],
            "type" : "VEC3"
        },
        {
            "bufferView" : 1,
            "componentType" : 5126,
            "count" : 16854,
            "type" : "VEC3"
        },
        {
            "bufferView" : 2,
            "componentType" : 5123,
            "count" : 17622,
            "type" : "SCALAR"
        }
    ],
    "bufferViews" : [
        {
            "buffer" : 0,
            "byteLength" : 202248,
            "byteOffset" : 0
        },
        {
            "buffer" : 0,
            "byteLength" : 202248,
            "byteOffset" : 202248
        },
        {
            "buffer" : 0,
            "byteLength" : 35244,
            "byteOffset" : 404496
        }
    ],
    "buffers" : [
        {
            "byteLength" : 439740,
            "uri" : "data:application/octet-stream;base64,"
        }
    ]
}
