{
    "asset" : {
        "generator" : "Khronos glTF Blender I/O v1.4.40",
        "version" : "2.0"
    },
    "scene" : 0,
    "scenes" : [
        {
            "name" : "Scene",
            "nodes" : [
                0
            ]
        }
    ],
    "nodes" : [
        {
            "mesh" : 0,
            "name" : "Mesh_0.013",
            "rotation" : [
                0.019036827608942986,
                0.7124798893928528,
                -0.7012957334518433,
                0.013942173682153225
            ],
            "scale" : [
                0.9990094304084778,
                0.29837489128112793,
                0.9998834133148193
            ],
            "translation" : [
                15.868570327758789,
                20.16201400756836,
                0
            ]
        }
    ],
    "materials" : [
        {
            "doubleSided" : true,
            "name" : "\u041c\u0430\u0442\u0435\u0440\u0438\u0430\u043b.002",
            "pbrMetallicRoughness" : {
                "baseColorFactor" : [
                    0.00739755155518651,
                    0.11249273270368576,
                    0.8000000715255737,
                    1
                ],
                "metallicFactor" : 0,
                "roughnessFactor" : 0.5
            }
        }
    ],
    "meshes" : [
        {
            "name" : "Mesh_0.013",
            "primitives" : [
                {
                    "attributes" : {
                        "POSITION" : 0,
                        "NORMAL" : 1
                    },
                    "indices" : 2,
                    "material" : 0
                }
            ]
        }
    ],
    "accessors" : [
        {
            "bufferView" : 0,
            "componentType" : 5126,
            "count" : 9138,
            "max" : [
                19.502187728881836,
                5,
                24.979999542236328
            ],
            "min" : [
                10.010000228881836,
                0,
                17.815906524658203
            ],
            "type" : "VEC3"
        },
        {
            "bufferView" : 1,
            "componentType" : 5126,
            "count" : 9138,
            "type" : "VEC3"
        },
        {
            "bufferView" : 2,
            "componentType" : 5123,
            "count" : 9564,
            "type" : "SCALAR"
        }
    ],
    "bufferViews" : [
        {
            "buffer" : 0,
            "byteLength" : 109656,
            "byteOffset" : 0
        },
        {
            "buffer" : 0,
            "byteLength" : 109656,
            "byteOffset" : 109656
        },
        {
            "buffer" : 0,
            "byteLength" : 19128,
            "byteOffset" : 219312
        }
    ],
    "buffers" : [
        {
            "byteLength" : 238440,
            "uri" : "data:application/octet-stream;base64,"
        }
    ]
}
