{
    "asset" : {
        "generator" : "Khronos glTF Blender I/O v1.4.40",
        "version" : "2.0"
    },
    "scene" : 0,
    "scenes" : [
        {
            "name" : "Scene",
            "nodes" : [
                0
            ]
        }
    ],
    "nodes" : [
        {
            "mesh" : 0,
            "name" : "Mesh_0.015",
            "rotation" : [
                0.023158013820648193,
                0.7100452780723572,
                -0.7033868432044983,
                0.023377234116196632
            ],
            "scale" : [
                0.9980167746543884,
                0.2969086766242981,
                0.9999595284461975
            ],
            "translation" : [
                30.59136390686035,
                21.626012802124023,
                0
            ]
        }
    ],
    "materials" : [
        {
            "doubleSided" : true,
            "name" : "\u041c\u0430\u0442\u0435\u0440\u0438\u0430\u043b.002",
            "pbrMetallicRoughness" : {
                "baseColorFactor" : [
                    0.00739755155518651,
                    0.11249273270368576,
                    0.8000000715255737,
                    1
                ],
                "metallicFactor" : 0,
                "roughnessFactor" : 0.5
            }
        }
    ],
    "meshes" : [
        {
            "name" : "Mesh_0.015",
            "primitives" : [
                {
                    "attributes" : {
                        "POSITION" : 0,
                        "NORMAL" : 1
                    },
                    "indices" : 2,
                    "material" : 0
                }
            ]
        }
    ],
    "accessors" : [
        {
            "bufferView" : 0,
            "componentType" : 5126,
            "count" : 4419,
            "max" : [
                36.6555061340332,
                5,
                24.989999771118164
            ],
            "min" : [
                25.010000228881836,
                0,
                17.709726333618164
            ],
            "type" : "VEC3"
        },
        {
            "bufferView" : 1,
            "componentType" : 5126,
            "count" : 4419,
            "type" : "VEC3"
        },
        {
            "bufferView" : 2,
            "componentType" : 5123,
            "count" : 4632,
            "type" : "SCALAR"
        }
    ],
    "bufferViews" : [
        {
            "buffer" : 0,
            "byteLength" : 53028,
            "byteOffset" : 0
        },
        {
            "buffer" : 0,
            "byteLength" : 53028,
            "byteOffset" : 53028
        },
        {
            "buffer" : 0,
            "byteLength" : 9264,
            "byteOffset" : 106056
        }
    ],
    "buffers" : [
        {
            "byteLength" : 115320,
            "uri" : "data:application/octet-stream;base64,"
        }
    ]
}
