{
    "asset" : {
        "generator" : "Khronos glTF Blender I/O v1.4.40",
        "version" : "2.0"
    },
    "scene" : 0,
    "scenes" : [
        {
            "name" : "Scene",
            "nodes" : [
                0
            ]
        }
    ],
    "nodes" : [
        {
            "mesh" : 0,
            "name" : "Mesh_0.033",
            "rotation" : [
                -0.01344104390591383,
                -0.6967663764953613,
                0.7170738577842712,
                -0.011878636665642262
            ],
            "scale" : [
                0.9992675185203552,
                0.3143784999847412,
                0.9995310306549072
            ],
            "translation" : [
                0,
                51.350181579589844,
                0
            ]
        }
    ],
    "materials" : [
        {
            "doubleSided" : true,
            "name" : "\u041c\u0430\u0442\u0435\u0440\u0438\u0430\u043b.001",
            "pbrMetallicRoughness" : {
                "baseColorFactor" : [
                    0.0055471607483923435,
                    0.09551609307527542,
                    0.8000000715255737,
                    1
                ],
                "metallicFactor" : 0,
                "roughnessFactor" : 0.5
            }
        }
    ],
    "meshes" : [
        {
            "name" : "Mesh_0.033",
            "primitives" : [
                {
                    "attributes" : {
                        "POSITION" : 0,
                        "NORMAL" : 1
                    },
                    "indices" : 2,
                    "material" : 0
                }
            ]
        }
    ],
    "accessors" : [
        {
            "bufferView" : 0,
            "componentType" : 5126,
            "count" : 9150,
            "max" : [
                19.011940002441406,
                5,
                52.64617156982422
            ],
            "min" : [
                8.352761268615723,
                0,
                45.48796844482422
            ],
            "type" : "VEC3"
        },
        {
            "bufferView" : 1,
            "componentType" : 5126,
            "count" : 9150,
            "type" : "VEC3"
        },
        {
            "bufferView" : 2,
            "componentType" : 5123,
            "count" : 9606,
            "type" : "SCALAR"
        }
    ],
    "bufferViews" : [
        {
            "buffer" : 0,
            "byteLength" : 109800,
            "byteOffset" : 0
        },
        {
            "buffer" : 0,
            "byteLength" : 109800,
            "byteOffset" : 109800
        },
        {
            "buffer" : 0,
            "byteLength" : 19212,
            "byteOffset" : 219600
        }
    ],
    "buffers" : [
        {
            "byteLength" : 238812,
            "uri" : "data:application/octet-stream;base64,"
        }
    ]
}
