{
    "asset" : {
        "generator" : "Khronos glTF Blender I/O v1.4.40",
        "version" : "2.0"
    },
    "scene" : 0,
    "scenes" : [
        {
            "name" : "Scene",
            "nodes" : [
                0
            ]
        }
    ],
    "nodes" : [
        {
            "mesh" : 0,
            "name" : "Mesh_0.017",
            "rotation" : [
                0.02437816560268402,
                0.7027294635772705,
                -0.7106307148933411,
                0.024107113480567932
            ],
            "scale" : [
                0.9981911778450012,
                0.48382991552352905,
                0.9999521374702454
            ],
            "translation" : [
                75.52558898925781,
                27.548368453979492,
                0
            ]
        }
    ],
    "materials" : [
        {
            "doubleSided" : true,
            "name" : "\u041c\u0430\u0442\u0435\u0440\u0438\u0430\u043b.002",
            "pbrMetallicRoughness" : {
                "baseColorFactor" : [
                    0.00739755155518651,
                    0.11249273270368576,
                    0.8000000715255737,
                    1
                ],
                "metallicFactor" : 0,
                "roughnessFactor" : 0.5
            }
        }
    ],
    "meshes" : [
        {
            "name" : "Mesh_0.017",
            "primitives" : [
                {
                    "attributes" : {
                        "POSITION" : 0,
                        "NORMAL" : 1
                    },
                    "indices" : 2,
                    "material" : 0
                }
            ]
        }
    ],
    "accessors" : [
        {
            "bufferView" : 0,
            "componentType" : 5126,
            "count" : 252,
            "max" : [
                69.74868774414062,
                5,
                24.979999542236328
            ],
            "min" : [
                58.46939468383789,
                0,
                17.821796417236328
            ],
            "type" : "VEC3"
        },
        {
            "bufferView" : 1,
            "componentType" : 5126,
            "count" : 252,
            "type" : "VEC3"
        },
        {
            "bufferView" : 2,
            "componentType" : 5123,
            "count" : 264,
            "type" : "SCALAR"
        }
    ],
    "bufferViews" : [
        {
            "buffer" : 0,
            "byteLength" : 3024,
            "byteOffset" : 0
        },
        {
            "buffer" : 0,
            "byteLength" : 3024,
            "byteOffset" : 3024
        },
        {
            "buffer" : 0,
            "byteLength" : 528,
            "byteOffset" : 6048
        }
    ],
    "buffers" : [
        {
            "byteLength" : 6576,
            "uri" : "data:application/octet-stream;base64,"
        }
    ]
}
