{
    "asset" : {
        "generator" : "Khronos glTF Blender I/O v1.4.40",
        "version" : "2.0"
    },
    "scene" : 0,
    "scenes" : [
        {
            "name" : "Scene",
            "nodes" : [
                0,
                1,
                2
            ]
        }
    ],
    "nodes" : [
        {
            "mesh" : 0,
            "name" : "Mesh_0.003",
            "rotation" : [
                -0.0006123624043539166,
                0.7256975769996643,
                -0.6877184510231018,
                -0.020149532705545425
            ],
            "scale" : [
                0.9996175765991211,
                0.39794325828552246,
                0.9988004565238953
            ],
            "translation" : [
                63.24675369262695,
                22.39512062072754,
                -3.617140531539917
            ]
        },
        {
            "mesh" : 1,
            "name" : "\u041a\u0443\u0431",
            "rotation" : [
                -0.0006123624043539166,
                0.7256975769996643,
                -0.6877184510231018,
                -0.020149532705545425
            ],
            "scale" : [
                0.4587486684322357,
                1.0014581680297852,
                0.7057685852050781
            ],
            "translation" : [
                -1.520833969116211,
                -1.3338980674743652,
                -3.699953079223633
            ]
        },
        {
            "mesh" : 2,
            "name" : "\u041a\u0443\u0431.001",
            "rotation" : [
                -0.0006123624043539166,
                0.7256975769996643,
                -0.6877184510231018,
                -0.020149532705545425
            ],
            "scale" : [
                0.4587486684322357,
                1.0014581680297852,
                0.7057685852050781
            ],
            "translation" : [
                -7.285579681396484,
                -1.1911029815673828,
                -3.8940536975860596
            ]
        }
    ],
    "materials" : [
        {
            "doubleSided" : true,
            "name" : "\u041c\u0430\u0442\u0435\u0440\u0438\u0430\u043b.008",
            "pbrMetallicRoughness" : {
                "baseColorFactor" : [
                    0.00739755155518651,
                    0.11249273270368576,
                    0.8000000715255737,
                    1
                ],
                "metallicFactor" : 0,
                "roughnessFactor" : 0.5
            }
        },
        {
            "doubleSided" : true,
            "name" : "\u041c\u0430\u0442\u0435\u0440\u0438\u0430\u043b.001",
            "pbrMetallicRoughness" : {
                "baseColorFactor" : [
                    0.0055471607483923435,
                    0.09551609307527542,
                    0.8000000715255737,
                    1
                ],
                "metallicFactor" : 0,
                "roughnessFactor" : 0.5
            }
        }
    ],
    "meshes" : [
        {
            "name" : "Mesh_0.041",
            "primitives" : [
                {
                    "attributes" : {
                        "POSITION" : 0,
                        "NORMAL" : 1
                    },
                    "indices" : 2,
                    "material" : 0
                }
            ]
        },
        {
            "name" : "\u041a\u0443\u0431.014",
            "primitives" : [
                {
                    "attributes" : {
                        "POSITION" : 3,
                        "NORMAL" : 4,
                        "TEXCOORD_0" : 5
                    },
                    "indices" : 6,
                    "material" : 1
                }
            ]
        },
        {
            "name" : "\u041a\u0443\u0431.015",
            "primitives" : [
                {
                    "attributes" : {
                        "POSITION" : 7,
                        "NORMAL" : 8,
                        "TEXCOORD_0" : 9
                    },
                    "indices" : 6,
                    "material" : 1
                }
            ]
        }
    ],
    "accessors" : [
        {
            "bufferView" : 0,
            "componentType" : 5126,
            "count" : 252,
            "max" : [
                69.74868774414062,
                5,
                24.979999542236328
            ],
            "min" : [
                58.46939468383789,
                0,
                17.821796417236328
            ],
            "type" : "VEC3"
        },
        {
            "bufferView" : 1,
            "componentType" : 5126,
            "count" : 252,
            "type" : "VEC3"
        },
        {
            "bufferView" : 2,
            "componentType" : 5123,
            "count" : 264,
            "type" : "SCALAR"
        },
        {
            "bufferView" : 3,
            "componentType" : 5126,
            "count" : 24,
            "max" : [
                1,
                1,
                1
            ],
            "min" : [
                -1,
                -1,
                -1
            ],
            "type" : "VEC3"
        },
        {
            "bufferView" : 4,
            "componentType" : 5126,
            "count" : 24,
            "type" : "VEC3"
        },
        {
            "bufferView" : 5,
            "componentType" : 5126,
            "count" : 24,
            "type" : "VEC2"
        },
        {
            "bufferView" : 6,
            "componentType" : 5123,
            "count" : 36,
            "type" : "SCALAR"
        },
        {
            "bufferView" : 7,
            "componentType" : 5126,
            "count" : 24,
            "max" : [
                1,
                1,
                1
            ],
            "min" : [
                -1,
                -1,
                -1
            ],
            "type" : "VEC3"
        },
        {
            "bufferView" : 8,
            "componentType" : 5126,
            "count" : 24,
            "type" : "VEC3"
        },
        {
            "bufferView" : 9,
            "componentType" : 5126,
            "count" : 24,
            "type" : "VEC2"
        }
    ],
    "bufferViews" : [
        {
            "buffer" : 0,
            "byteLength" : 3024,
            "byteOffset" : 0
        },
        {
            "buffer" : 0,
            "byteLength" : 3024,
            "byteOffset" : 3024
        },
        {
            "buffer" : 0,
            "byteLength" : 528,
            "byteOffset" : 6048
        },
        {
            "buffer" : 0,
            "byteLength" : 288,
            "byteOffset" : 6576
        },
        {
            "buffer" : 0,
            "byteLength" : 288,
            "byteOffset" : 6864
        },
        {
            "buffer" : 0,
            "byteLength" : 192,
            "byteOffset" : 7152
        },
        {
            "buffer" : 0,
            "byteLength" : 72,
            "byteOffset" : 7344
        },
        {
            "buffer" : 0,
            "byteLength" : 288,
            "byteOffset" : 7416
        },
        {
            "buffer" : 0,
            "byteLength" : 288,
            "byteOffset" : 7704
        },
        {
            "buffer" : 0,
            "byteLength" : 192,
            "byteOffset" : 7992
        }
    ],
    "buffers" : [
        {
            "byteLength" : 8184,
            "uri" : "data:application/octet-stream;base64,"
        }
    ]
}
