{
    "asset" : {
        "generator" : "Khronos glTF Blender I/O v1.4.40",
        "version" : "2.0"
    },
    "scene" : 0,
    "scenes" : [
        {
            "name" : "Scene",
            "nodes" : [
                0,
                1,
                2
            ]
        }
    ],
    "nodes" : [
        {
            "mesh" : 0,
            "name" : "Mesh_0.004",
            "rotation" : [
                0.042879343032836914,
                -0.7254245281219482,
                0.6844477653503418,
                0.058752983808517456
            ],
            "scale" : [
                0.9902791976928711,
                0.2974497079849243,
                0.9985264539718628
            ],
            "translation" : [
                79.21688842773438,
                23.631916046142578,
                -9.431320190429688
            ]
        },
        {
            "mesh" : 1,
            "name" : "\u041a\u0443\u0431",
            "rotation" : [
                0.042879343032836914,
                -0.7254245281219482,
                0.6844477653503418,
                0.058752983808517456
            ],
            "scale" : [
                3.385601043701172,
                0.7485575675964355,
                0.41453471779823303
            ],
            "translation" : [
                1.7490051984786987,
                3.847829818725586,
                -0.1833258867263794
            ]
        },
        {
            "mesh" : 2,
            "name" : "\u041a\u0443\u0431.001",
            "rotation" : [
                0.042879343032836914,
                -0.7254245281219482,
                0.6844477653503418,
                0.058752983808517456
            ],
            "scale" : [
                1.842707633972168,
                0.7485575675964355,
                0.3490310609340668
            ],
            "translation" : [
                -4.725804328918457,
                3.006776809692383,
                0.7163405418395996
            ]
        }
    ],
    "materials" : [
        {
            "doubleSided" : true,
            "name" : "\u041c\u0430\u0442\u0435\u0440\u0438\u0430\u043b.003",
            "pbrMetallicRoughness" : {
                "baseColorFactor" : [
                    0.8000000715255737,
                    0.002420209115371108,
                    0,
                    1
                ],
                "metallicFactor" : 0,
                "roughnessFactor" : 0.5
            }
        },
        {
            "doubleSided" : true,
            "name" : "\u041c\u0430\u0442\u0435\u0440\u0438\u0430\u043b.004",
            "pbrMetallicRoughness" : {
                "baseColorFactor" : [
                    0.8000000715255737,
                    0.002420209115371108,
                    0,
                    1
                ],
                "metallicFactor" : 0,
                "roughnessFactor" : 0.5
            }
        }
    ],
    "meshes" : [
        {
            "name" : "Mesh_0.020",
            "primitives" : [
                {
                    "attributes" : {
                        "POSITION" : 0,
                        "NORMAL" : 1
                    },
                    "indices" : 2,
                    "material" : 0
                }
            ]
        },
        {
            "name" : "\u041a\u0443\u0431.007",
            "primitives" : [
                {
                    "attributes" : {
                        "POSITION" : 3,
                        "NORMAL" : 4,
                        "TEXCOORD_0" : 5
                    },
                    "indices" : 6,
                    "material" : 0
                }
            ]
        },
        {
            "name" : "\u041a\u0443\u0431.008",
            "primitives" : [
                {
                    "attributes" : {
                        "POSITION" : 7,
                        "NORMAL" : 8,
                        "TEXCOORD_0" : 9
                    },
                    "indices" : 6,
                    "material" : 1
                }
            ]
        }
    ],
    "accessors" : [
        {
            "bufferView" : 0,
            "componentType" : 5126,
            "count" : 18799,
            "max" : [
                87.49535369873047,
                5,
                24.984882354736328
            ],
            "min" : [
                75.01000213623047,
                0,
                17.577655792236328
            ],
            "type" : "VEC3"
        },
        {
            "bufferView" : 1,
            "componentType" : 5126,
            "count" : 18799,
            "type" : "VEC3"
        },
        {
            "bufferView" : 2,
            "componentType" : 5123,
            "count" : 19650,
            "type" : "SCALAR"
        },
        {
            "bufferView" : 3,
            "componentType" : 5126,
            "count" : 24,
            "max" : [
                1,
                1,
                1
            ],
            "min" : [
                -1,
                -1,
                -1
            ],
            "type" : "VEC3"
        },
        {
            "bufferView" : 4,
            "componentType" : 5126,
            "count" : 24,
            "type" : "VEC3"
        },
        {
            "bufferView" : 5,
            "componentType" : 5126,
            "count" : 24,
            "type" : "VEC2"
        },
        {
            "bufferView" : 6,
            "componentType" : 5123,
            "count" : 36,
            "type" : "SCALAR"
        },
        {
            "bufferView" : 7,
            "componentType" : 5126,
            "count" : 24,
            "max" : [
                1,
                1,
                1
            ],
            "min" : [
                -1,
                -1,
                -1
            ],
            "type" : "VEC3"
        },
        {
            "bufferView" : 8,
            "componentType" : 5126,
            "count" : 24,
            "type" : "VEC3"
        },
        {
            "bufferView" : 9,
            "componentType" : 5126,
            "count" : 24,
            "type" : "VEC2"
        }
    ],
    "bufferViews" : [
        {
            "buffer" : 0,
            "byteLength" : 225588,
            "byteOffset" : 0
        },
        {
            "buffer" : 0,
            "byteLength" : 225588,
            "byteOffset" : 225588
        },
        {
            "buffer" : 0,
            "byteLength" : 39300,
            "byteOffset" : 451176
        },
        {
            "buffer" : 0,
            "byteLength" : 288,
            "byteOffset" : 490476
        },
        {
            "buffer" : 0,
            "byteLength" : 288,
            "byteOffset" : 490764
        },
        {
            "buffer" : 0,
            "byteLength" : 192,
            "byteOffset" : 491052
        },
        {
            "buffer" : 0,
            "byteLength" : 72,
            "byteOffset" : 491244
        },
        {
            "buffer" : 0,
            "byteLength" : 288,
            "byteOffset" : 491316
        },
        {
            "buffer" : 0,
            "byteLength" : 288,
            "byteOffset" : 491604
        },
        {
            "buffer" : 0,
            "byteLength" : 192,
            "byteOffset" : 491892
        }
    ],
    "buffers" : [
        {
            "byteLength" : 492084,
            "uri" : "data:application/octet-stream;base64,"
        }
    ]
}
