{
    "asset" : {
        "generator" : "Khronos glTF Blender I/O v1.4.40",
        "version" : "2.0"
    },
    "scene" : 0,
    "scenes" : [
        {
            "name" : "Scene",
            "nodes" : [
                0
            ]
        }
    ],
    "nodes" : [
        {
            "mesh" : 0,
            "name" : "Mesh_0.022",
            "rotation" : [
                0.0037879380397498608,
                0.7155193090438843,
                -0.6985781192779541,
                0.0025276695378124714
            ],
            "scale" : [
                0.9999673366546631,
                0.4223135709762573,
                0.9997639656066895
            ],
            "translation" : [
                110.41829681396484,
                23.902400970458984,
                0
            ]
        }
    ],
    "materials" : [
        {
            "doubleSided" : true,
            "name" : "\u041c\u0430\u0442\u0435\u0440\u0438\u0430\u043b.002",
            "pbrMetallicRoughness" : {
                "baseColorFactor" : [
                    0.00739755155518651,
                    0.11249273270368576,
                    0.8000000715255737,
                    1
                ],
                "metallicFactor" : 0,
                "roughnessFactor" : 0.5
            }
        }
    ],
    "meshes" : [
        {
            "name" : "Mesh_0.022",
            "primitives" : [
                {
                    "attributes" : {
                        "POSITION" : 0,
                        "NORMAL" : 1
                    },
                    "indices" : 2,
                    "material" : 0
                }
            ]
        }
    ],
    "accessors" : [
        {
            "bufferView" : 0,
            "componentType" : 5126,
            "count" : 12328,
            "max" : [
                121.06957244873047,
                5,
                24.979999542236328
            ],
            "min" : [
                110.01000213623047,
                0,
                15.834491729736328
            ],
            "type" : "VEC3"
        },
        {
            "bufferView" : 1,
            "componentType" : 5126,
            "count" : 12328,
            "type" : "VEC3"
        },
        {
            "bufferView" : 2,
            "componentType" : 5123,
            "count" : 13002,
            "type" : "SCALAR"
        }
    ],
    "bufferViews" : [
        {
            "buffer" : 0,
            "byteLength" : 147936,
            "byteOffset" : 0
        },
        {
            "buffer" : 0,
            "byteLength" : 147936,
            "byteOffset" : 147936
        },
        {
            "buffer" : 0,
            "byteLength" : 26004,
            "byteOffset" : 295872
        }
    ],
    "buffers" : [
        {
            "byteLength" : 321876,
            "uri" : "data:application/octet-stream;base64,"
        }
    ]
}
