{
    "asset" : {
        "generator" : "Khronos glTF Blender I/O v1.4.40",
        "version" : "2.0"
    },
    "scene" : 0,
    "scenes" : [
        {
            "name" : "Scene",
            "nodes" : [
                0
            ]
        }
    ],
    "nodes" : [
        {
            "mesh" : 0,
            "name" : "Mesh_0.023",
            "rotation" : [
                0.007258373778313398,
                -0.7146553993225098,
                0.6993997097015381,
                0.007416697684675455
            ],
            "scale" : [
                0.9998265504837036,
                0.44159066677093506,
                0.9998125433921814
            ],
            "translation" : [
                140.88128662109375,
                24.609333038330078,
                0
            ]
        }
    ],
    "materials" : [
        {
            "doubleSided" : true,
            "name" : "\u041c\u0430\u0442\u0435\u0440\u0438\u0430\u043b.001",
            "pbrMetallicRoughness" : {
                "baseColorFactor" : [
                    0.0055471607483923435,
                    0.09551609307527542,
                    0.8000000715255737,
                    1
                ],
                "metallicFactor" : 0,
                "roughnessFactor" : 0.5
            }
        }
    ],
    "meshes" : [
        {
            "name" : "Mesh_0.023",
            "primitives" : [
                {
                    "attributes" : {
                        "POSITION" : 0,
                        "NORMAL" : 1
                    },
                    "indices" : 2,
                    "material" : 0
                }
            ]
        }
    ],
    "accessors" : [
        {
            "bufferView" : 0,
            "componentType" : 5126,
            "count" : 18226,
            "max" : [
                139.8585205078125,
                5,
                24.056398391723633
            ],
            "min" : [
                128.2276611328125,
                0,
                16.654054641723633
            ],
            "type" : "VEC3"
        },
        {
            "bufferView" : 1,
            "componentType" : 5126,
            "count" : 18226,
            "type" : "VEC3"
        },
        {
            "bufferView" : 2,
            "componentType" : 5123,
            "count" : 19068,
            "type" : "SCALAR"
        }
    ],
    "bufferViews" : [
        {
            "buffer" : 0,
            "byteLength" : 218712,
            "byteOffset" : 0
        },
        {
            "buffer" : 0,
            "byteLength" : 218712,
            "byteOffset" : 218712
        },
        {
            "buffer" : 0,
            "byteLength" : 38136,
            "byteOffset" : 437424
        }
    ],
    "buffers" : [
        {
            "byteLength" : 475560,
            "uri" : "data:application/octet-stream;base64,"
        }
    ]
}
