{
    "asset" : {
        "generator" : "Khronos glTF Blender I/O v1.4.40",
        "version" : "2.0"
    },
    "scene" : 0,
    "scenes" : [
        {
            "name" : "Scene",
            "nodes" : [
                0
            ]
        }
    ],
    "nodes" : [
        {
            "mesh" : 0,
            "name" : "Mesh_0.032",
            "rotation" : [
                0.02431601472198963,
                0.6799522638320923,
                -0.7321457266807556,
                0.03219306841492653
            ],
            "scale" : [
                0.9971555471420288,
                0.3749992251396179,
                0.9955275654792786
            ],
            "translation" : [
                59.81941604614258,
                46.9499397277832,
                0
            ]
        }
    ],
    "materials" : [
        {
            "doubleSided" : true,
            "name" : "\u041c\u0430\u0442\u0435\u0440\u0438\u0430\u043b.001",
            "pbrMetallicRoughness" : {
                "baseColorFactor" : [
                    0.0055471607483923435,
                    0.09551609307527542,
                    0.8000000715255737,
                    1
                ],
                "metallicFactor" : 0,
                "roughnessFactor" : 0.5
            }
        }
    ],
    "meshes" : [
        {
            "name" : "Mesh_0.032",
            "primitives" : [
                {
                    "attributes" : {
                        "POSITION" : 0,
                        "NORMAL" : 1
                    },
                    "indices" : 2,
                    "material" : 0
                }
            ]
        }
    ],
    "accessors" : [
        {
            "bufferView" : 0,
            "componentType" : 5126,
            "count" : 8529,
            "max" : [
                68.1888656616211,
                5,
                52.17888641357422
            ],
            "min" : [
                54.38027572631836,
                0,
                45.02068328857422
            ],
            "type" : "VEC3"
        },
        {
            "bufferView" : 1,
            "componentType" : 5126,
            "count" : 8529,
            "type" : "VEC3"
        },
        {
            "bufferView" : 2,
            "componentType" : 5123,
            "count" : 8952,
            "type" : "SCALAR"
        }
    ],
    "bufferViews" : [
        {
            "buffer" : 0,
            "byteLength" : 102348,
            "byteOffset" : 0
        },
        {
            "buffer" : 0,
            "byteLength" : 102348,
            "byteOffset" : 102348
        },
        {
            "buffer" : 0,
            "byteLength" : 17904,
            "byteOffset" : 204696
        }
    ],
    "buffers" : [
        {
            "byteLength" : 222600,
            "uri" : "data:application/octet-stream;base64,"
        }
    ]
}
