{
    "asset" : {
        "generator" : "Khronos glTF Blender I/O v1.4.40",
        "version" : "2.0"
    },
    "scene" : 0,
    "scenes" : [
        {
            "name" : "Scene",
            "nodes" : [
                0
            ]
        }
    ],
    "nodes" : [
        {
            "mesh" : 0,
            "name" : "Mesh_0.025",
            "rotation" : [
                -0.010163994506001472,
                0.7221951484680176,
                -0.691466212272644,
                -0.014332257211208344
            ],
            "scale" : [
                0.9995349049568176,
                0.48215746879577637,
                0.9992767572402954
            ],
            "translation" : [
                165.49844360351562,
                28.25031280517578,
                0
            ]
        }
    ],
    "materials" : [
        {
            "doubleSided" : true,
            "name" : "\u041c\u0430\u0442\u0435\u0440\u0438\u0430\u043b.002",
            "pbrMetallicRoughness" : {
                "baseColorFactor" : [
                    0.00739755155518651,
                    0.11249273270368576,
                    0.8000000715255737,
                    1
                ],
                "metallicFactor" : 0,
                "roughnessFactor" : 0.5
            }
        }
    ],
    "meshes" : [
        {
            "name" : "Mesh_0.025",
            "primitives" : [
                {
                    "attributes" : {
                        "POSITION" : 0,
                        "NORMAL" : 1
                    },
                    "indices" : 2,
                    "material" : 0
                }
            ]
        }
    ],
    "accessors" : [
        {
            "bufferView" : 0,
            "componentType" : 5126,
            "count" : 4322,
            "max" : [
                171.22581481933594,
                5,
                24.979999542236328
            ],
            "min" : [
                160.00999450683594,
                0,
                15.717304229736328
            ],
            "type" : "VEC3"
        },
        {
            "bufferView" : 1,
            "componentType" : 5126,
            "count" : 4322,
            "type" : "VEC3"
        },
        {
            "bufferView" : 2,
            "componentType" : 5123,
            "count" : 4518,
            "type" : "SCALAR"
        }
    ],
    "bufferViews" : [
        {
            "buffer" : 0,
            "byteLength" : 51864,
            "byteOffset" : 0
        },
        {
            "buffer" : 0,
            "byteLength" : 51864,
            "byteOffset" : 51864
        },
        {
            "buffer" : 0,
            "byteLength" : 9036,
            "byteOffset" : 103728
        }
    ],
    "buffers" : [
        {
            "byteLength" : 112764,
            "uri" : "data:application/octet-stream;base64,"
        }
    ]
}
