{
    "asset" : {
        "generator" : "Khronos glTF Blender I/O v1.4.40",
        "version" : "2.0"
    },
    "scene" : 0,
    "scenes" : [
        {
            "name" : "Scene",
            "nodes" : [
                0,
                1,
                2,
                3
            ]
        }
    ],
    "nodes" : [
        {
            "mesh" : 0,
            "name" : "\u041a\u0443\u0431",
            "rotation" : [
                -0.020524680614471436,
                -0.7007903456687927,
                0.7127864956855774,
                -0.02017924189567566
            ],
            "scale" : [
                3.4156270027160645,
                1.6606606245040894,
                0.6341891884803772
            ],
            "translation" : [
                8.043327331542969,
                10.802682876586914,
                -15.647188186645508
            ]
        },
        {
            "mesh" : 1,
            "name" : "\u041a\u0443\u0431.001",
            "rotation" : [
                -0.020524680614471436,
                -0.7007903456687927,
                0.7127864956855774,
                -0.02017924189567566
            ],
            "scale" : [
                1.8590501546859741,
                0.7733491659164429,
                0.34951773285865784
            ],
            "translation" : [
                -5.808478355407715,
                5.207365036010742,
                -16.82328987121582
            ]
        },
        {
            "mesh" : 2,
            "name" : "uploads_files_1950256_Y",
            "rotation" : [
                -0.028782028704881668,
                0.008482636883854866,
                0.9995498061180115,
                0.00024425741867162287
            ],
            "scale" : [
                0.9990615248680115,
                0.9999187588691711,
                0.6598865389823914
            ],
            "translation" : [
                -142.28363037109375,
                67.37873840332031,
                -23.523027420043945
            ]
        },
        {
            "mesh" : 3,
            "name" : "uploads_files_1950256_Y.001",
            "rotation" : [
                -0.028782028704881668,
                0.008482636883854866,
                0.9995498061180115,
                0.00024425741867162287
            ],
            "scale" : [
                0.48510682582855225,
                0.6970208287239075,
                0.31889986991882324
            ],
            "translation" : [
                -78.9417953491211,
                45.43504333496094,
                -20.943662643432617
            ]
        }
    ],
    "materials" : [
        {
            "doubleSided" : true,
            "name" : "\u041c\u0430\u0442\u0435\u0440\u0438\u0430\u043b",
            "pbrMetallicRoughness" : {
                "baseColorFactor" : [
                    0.8000000715255737,
                    0.002420209115371108,
                    0,
                    1
                ],
                "metallicFactor" : 0,
                "roughnessFactor" : 0.5
            }
        },
        {
            "doubleSided" : true,
            "name" : "\u041c\u0430\u0442\u0435\u0440\u0438\u0430\u043b.004",
            "pbrMetallicRoughness" : {
                "baseColorFactor" : [
                    0.8000000715255737,
                    0.002420209115371108,
                    0,
                    1
                ],
                "metallicFactor" : 0,
                "roughnessFactor" : 0.5
            }
        }
    ],
    "meshes" : [
        {
            "name" : "\u041a\u0443\u0431.009",
            "primitives" : [
                {
                    "attributes" : {
                        "POSITION" : 0,
                        "NORMAL" : 1,
                        "TEXCOORD_0" : 2
                    },
                    "indices" : 3,
                    "material" : 0
                }
            ]
        },
        {
            "name" : "\u041a\u0443\u0431.010",
            "primitives" : [
                {
                    "attributes" : {
                        "POSITION" : 4,
                        "NORMAL" : 5,
                        "TEXCOORD_0" : 6
                    },
                    "indices" : 3,
                    "material" : 0
                }
            ]
        },
        {
            "name" : "uploads_files_1950256_Y",
            "primitives" : [
                {
                    "attributes" : {
                        "POSITION" : 7,
                        "NORMAL" : 8,
                        "TEXCOORD_0" : 9
                    },
                    "indices" : 10,
                    "material" : 1
                }
            ]
        },
        {
            "name" : "uploads_files_1950256_Y.001",
            "primitives" : [
                {
                    "attributes" : {
                        "POSITION" : 11,
                        "NORMAL" : 12,
                        "TEXCOORD_0" : 13
                    },
                    "indices" : 10,
                    "material" : 0
                }
            ]
        }
    ],
    "accessors" : [
        {
            "bufferView" : 0,
            "componentType" : 5126,
            "count" : 24,
            "max" : [
                1,
                1,
                1
            ],
            "min" : [
                -1,
                -1,
                -1
            ],
            "type" : "VEC3"
        },
        {
            "bufferView" : 1,
            "componentType" : 5126,
            "count" : 24,
            "type" : "VEC3"
        },
        {
            "bufferView" : 2,
            "componentType" : 5126,
            "count" : 24,
            "type" : "VEC2"
        },
        {
            "bufferView" : 3,
            "componentType" : 5123,
            "count" : 36,
            "type" : "SCALAR"
        },
        {
            "bufferView" : 4,
            "componentType" : 5126,
            "count" : 24,
            "max" : [
                1,
                1,
                1
            ],
            "min" : [
                -1,
                -1,
                -1
            ],
            "type" : "VEC3"
        },
        {
            "bufferView" : 5,
            "componentType" : 5126,
            "count" : 24,
            "type" : "VEC3"
        },
        {
            "bufferView" : 6,
            "componentType" : 5126,
            "count" : 24,
            "type" : "VEC2"
        },
        {
            "bufferView" : 7,
            "componentType" : 5126,
            "count" : 100,
            "max" : [
                -140.54713439941406,
                63.52861785888672,
                0
            ],
            "min" : [
                -160.41551208496094,
                41.856727600097656,
                -5
            ],
            "type" : "VEC3"
        },
        {
            "bufferView" : 8,
            "componentType" : 5126,
            "count" : 100,
            "type" : "VEC3"
        },
        {
            "bufferView" : 9,
            "componentType" : 5126,
            "count" : 100,
            "type" : "VEC2"
        },
        {
            "bufferView" : 10,
            "componentType" : 5123,
            "count" : 192,
            "type" : "SCALAR"
        },
        {
            "bufferView" : 11,
            "componentType" : 5126,
            "count" : 100,
            "max" : [
                -140.54713439941406,
                63.52861785888672,
                0
            ],
            "min" : [
                -160.41551208496094,
                41.856727600097656,
                -5
            ],
            "type" : "VEC3"
        },
        {
            "bufferView" : 12,
            "componentType" : 5126,
            "count" : 100,
            "type" : "VEC3"
        },
        {
            "bufferView" : 13,
            "componentType" : 5126,
            "count" : 100,
            "type" : "VEC2"
        }
    ],
    "bufferViews" : [
        {
            "buffer" : 0,
            "byteLength" : 288,
            "byteOffset" : 0
        },
        {
            "buffer" : 0,
            "byteLength" : 288,
            "byteOffset" : 288
        },
        {
            "buffer" : 0,
            "byteLength" : 192,
            "byteOffset" : 576
        },
        {
            "buffer" : 0,
            "byteLength" : 72,
            "byteOffset" : 768
        },
        {
            "buffer" : 0,
            "byteLength" : 288,
            "byteOffset" : 840
        },
        {
            "buffer" : 0,
            "byteLength" : 288,
            "byteOffset" : 1128
        },
        {
            "buffer" : 0,
            "byteLength" : 192,
            "byteOffset" : 1416
        },
        {
            "buffer" : 0,
            "byteLength" : 1200,
            "byteOffset" : 1608
        },
        {
            "buffer" : 0,
            "byteLength" : 1200,
            "byteOffset" : 2808
        },
        {
            "buffer" : 0,
            "byteLength" : 800,
            "byteOffset" : 4008
        },
        {
            "buffer" : 0,
            "byteLength" : 384,
            "byteOffset" : 4808
        },
        {
            "buffer" : 0,
            "byteLength" : 1200,
            "byteOffset" : 5192
        },
        {
            "buffer" : 0,
            "byteLength" : 1200,
            "byteOffset" : 6392
        },
        {
            "buffer" : 0,
            "byteLength" : 800,
            "byteOffset" : 7592
        }
    ],
    "buffers" : [
        {
            "byteLength" : 8392,
            "uri" : "data:application/octet-stream;base64,"
        }
    ]
}
