{
    "asset" : {
        "generator" : "Khronos glTF Blender I/O v1.4.40",
        "version" : "2.0"
    },
    "scene" : 0,
    "scenes" : [
        {
            "name" : "Scene",
            "nodes" : [
                0,
                1
            ]
        }
    ],
    "nodes" : [
        {
            "mesh" : 0,
            "name" : "uploads_files_1950256_Y",
            "rotation" : [
                0.015409743413329124,
                -0.01612120307981968,
                -0.9997512698173523,
                -0.0002484853903297335
            ],
            "translation" : [
                -138.55087280273438,
                56.611392974853516,
                -45.96211242675781
            ]
        },
        {
            "mesh" : 1,
            "name" : "uploads_files_1950256_Y.001",
            "rotation" : [
                0.015409743413329124,
                -0.01612120307981968,
                -0.9997512698173523,
                -0.0002484853903297335
            ],
            "scale" : [
                0.4855625033378601,
                0.6970775127410889,
                0.4832647442817688
            ],
            "translation" : [
                -74.61969757080078,
                34.249298095703125,
                -43.25483703613281
            ]
        }
    ],
    "materials" : [
        {
            "doubleSided" : true,
            "name" : "\u041c\u0430\u0442\u0435\u0440\u0438\u0430\u043b",
            "pbrMetallicRoughness" : {
                "baseColorFactor" : [
                    0.8000000715255737,
                    0.002420209115371108,
                    0,
                    1
                ],
                "metallicFactor" : 0,
                "roughnessFactor" : 0.5
            }
        }
    ],
    "meshes" : [
        {
            "name" : "uploads_files_1950256_Y.002",
            "primitives" : [
                {
                    "attributes" : {
                        "POSITION" : 0,
                        "NORMAL" : 1,
                        "TEXCOORD_0" : 2
                    },
                    "indices" : 3,
                    "material" : 0
                }
            ]
        },
        {
            "name" : "uploads_files_1950256_Y.003",
            "primitives" : [
                {
                    "attributes" : {
                        "POSITION" : 4,
                        "NORMAL" : 5,
                        "TEXCOORD_0" : 6
                    },
                    "indices" : 3,
                    "material" : 0
                }
            ]
        }
    ],
    "accessors" : [
        {
            "bufferView" : 0,
            "componentType" : 5126,
            "count" : 100,
            "max" : [
                -140.54713439941406,
                63.52861785888672,
                0
            ],
            "min" : [
                -160.41551208496094,
                41.856727600097656,
                -5
            ],
            "type" : "VEC3"
        },
        {
            "bufferView" : 1,
            "componentType" : 5126,
            "count" : 100,
            "type" : "VEC3"
        },
        {
            "bufferView" : 2,
            "componentType" : 5126,
            "count" : 100,
            "type" : "VEC2"
        },
        {
            "bufferView" : 3,
            "componentType" : 5123,
            "count" : 192,
            "type" : "SCALAR"
        },
        {
            "bufferView" : 4,
            "componentType" : 5126,
            "count" : 100,
            "max" : [
                -140.54713439941406,
                63.52861785888672,
                0
            ],
            "min" : [
                -160.41551208496094,
                41.856727600097656,
                -5
            ],
            "type" : "VEC3"
        },
        {
            "bufferView" : 5,
            "componentType" : 5126,
            "count" : 100,
            "type" : "VEC3"
        },
        {
            "bufferView" : 6,
            "componentType" : 5126,
            "count" : 100,
            "type" : "VEC2"
        }
    ],
    "bufferViews" : [
        {
            "buffer" : 0,
            "byteLength" : 1200,
            "byteOffset" : 0
        },
        {
            "buffer" : 0,
            "byteLength" : 1200,
            "byteOffset" : 1200
        },
        {
            "buffer" : 0,
            "byteLength" : 800,
            "byteOffset" : 2400
        },
        {
            "buffer" : 0,
            "byteLength" : 384,
            "byteOffset" : 3200
        },
        {
            "buffer" : 0,
            "byteLength" : 1200,
            "byteOffset" : 3584
        },
        {
            "buffer" : 0,
            "byteLength" : 1200,
            "byteOffset" : 4784
        },
        {
            "buffer" : 0,
            "byteLength" : 800,
            "byteOffset" : 5984
        }
    ],
    "buffers" : [
        {
            "byteLength" : 6784,
            "uri" : "data:application/octet-stream;base64,"
        }
    ]
}
