{
    "asset" : {
        "generator" : "Khronos glTF Blender I/O v1.4.40",
        "version" : "2.0"
    },
    "scene" : 0,
    "scenes" : [
        {
            "name" : "Scene",
            "nodes" : [
                0
            ]
        }
    ],
    "nodes" : [
        {
            "mesh" : 0,
            "name" : "Mesh_0.010",
            "rotation" : [
                -0.0015185887459665537,
                0.6986144185066223,
                -0.7154943346977234,
                -0.0018933857791125774
            ],
            "scale" : [
                0.9999898672103882,
                0.3564835786819458,
                0.9997511506080627
            ],
            "translation" : [
                135.19789123535156,
                18.02895164489746,
                0
            ]
        }
    ],
    "materials" : [
        {
            "doubleSided" : true,
            "name" : "\u041c\u0430\u0442\u0435\u0440\u0438\u0430\u043b.001",
            "pbrMetallicRoughness" : {
                "baseColorFactor" : [
                    0.0055471607483923435,
                    0.09551609307527542,
                    0.8000000715255737,
                    1
                ],
                "metallicFactor" : 0,
                "roughnessFactor" : 0.5
            }
        }
    ],
    "meshes" : [
        {
            "name" : "Mesh_0.010",
            "primitives" : [
                {
                    "attributes" : {
                        "POSITION" : 0,
                        "NORMAL" : 1
                    },
                    "indices" : 2,
                    "material" : 0
                }
            ]
        }
    ],
    "accessors" : [
        {
            "bufferView" : 0,
            "componentType" : 5126,
            "count" : 24184,
            "max" : [
                139.89768981933594,
                5,
                9.984882354736328
            ],
            "min" : [
                130.00999450683594,
                0,
                2.5825390815734863
            ],
            "type" : "VEC3"
        },
        {
            "bufferView" : 1,
            "componentType" : 5126,
            "count" : 24184,
            "type" : "VEC3"
        },
        {
            "bufferView" : 2,
            "componentType" : 5123,
            "count" : 25416,
            "type" : "SCALAR"
        }
    ],
    "bufferViews" : [
        {
            "buffer" : 0,
            "byteLength" : 290208,
            "byteOffset" : 0
        },
        {
            "buffer" : 0,
            "byteLength" : 290208,
            "byteOffset" : 290208
        },
        {
            "buffer" : 0,
            "byteLength" : 50832,
            "byteOffset" : 580416
        }
    ],
    "buffers" : [
        {
            "byteLength" : 631248,
            "uri" : "data:application/octet-stream;base64,"
        }
    ]
}
