{
    "asset" : {
        "generator" : "Khronos glTF Blender I/O v1.4.40",
        "version" : "2.0"
    },
    "scene" : 0,
    "scenes" : [
        {
            "name" : "Scene",
            "nodes" : [
                0
            ]
        }
    ],
    "nodes" : [
        {
            "mesh" : 0,
            "name" : "Mesh_0.007",
            "rotation" : [
                0.011412923224270344,
                -0.7245640158653259,
                0.6890060901641846,
                0.012144778855144978
            ],
            "scale" : [
                0.9995714426040649,
                0.480865478515625,
                0.9990255832672119
            ],
            "translation" : [
                117.91034698486328,
                13.673192977905273,
                0
            ]
        }
    ],
    "materials" : [
        {
            "doubleSided" : true,
            "name" : "\u041c\u0430\u0442\u0435\u0440\u0438\u0430\u043b.002",
            "pbrMetallicRoughness" : {
                "baseColorFactor" : [
                    0.00739755155518651,
                    0.11249273270368576,
                    0.8000000715255737,
                    1
                ],
                "metallicFactor" : 0,
                "roughnessFactor" : 0.5
            }
        }
    ],
    "meshes" : [
        {
            "name" : "Mesh_0.007",
            "primitives" : [
                {
                    "attributes" : {
                        "POSITION" : 0,
                        "NORMAL" : 1
                    },
                    "indices" : 2,
                    "material" : 0
                }
            ]
        }
    ],
    "accessors" : [
        {
            "bufferView" : 0,
            "componentType" : 5126,
            "count" : 15093,
            "max" : [
                125.92797088623047,
                5,
                9.979999542236328
            ],
            "min" : [
                110.01000213623047,
                0,
                2.816181182861328
            ],
            "type" : "VEC3"
        },
        {
            "bufferView" : 1,
            "componentType" : 5126,
            "count" : 15093,
            "type" : "VEC3"
        },
        {
            "bufferView" : 2,
            "componentType" : 5123,
            "count" : 15780,
            "type" : "SCALAR"
        }
    ],
    "bufferViews" : [
        {
            "buffer" : 0,
            "byteLength" : 181116,
            "byteOffset" : 0
        },
        {
            "buffer" : 0,
            "byteLength" : 181116,
            "byteOffset" : 181116
        },
        {
            "buffer" : 0,
            "byteLength" : 31560,
            "byteOffset" : 362232
        }
    ],
    "buffers" : [
        {
            "byteLength" : 393792,
            "uri" : "data:application/octet-stream;base64,"
        }
    ]
}
