{
    "asset" : {
        "generator" : "Khronos glTF Blender I/O v1.4.40",
        "version" : "2.0"
    },
    "scene" : 0,
    "scenes" : [
        {
            "name" : "Scene",
            "nodes" : [
                0,
                1,
                8
            ]
        }
    ],
    "nodes" : [
        {
            "name" : "Light",
            "rotation" : [
                0.16907575726509094,
                0.7558803558349609,
                -0.27217137813568115,
                0.570947527885437
            ],
            "translation" : [
                4.076245307922363,
                5.903861999511719,
                -1.0054539442062378
            ]
        },
        {
            "name" : "Camera",
            "rotation" : [
                0.483536034822464,
                0.33687159419059753,
                -0.20870360732078552,
                0.7804827094078064
            ],
            "translation" : [
                7.358891487121582,
                4.958309173583984,
                6.925790786743164
            ]
        },
        {
            "mesh" : 0,
            "name" : "body_geo"
        },
        {
            "mesh" : 1,
            "name" : "eye_l_geo"
        },
        {
            "mesh" : 2,
            "name" : "eye_r_geo"
        },
        {
            "mesh" : 3,
            "name" : "teeth_down_geo"
        },
        {
            "mesh" : 4,
            "name" : "teeth_up_geo"
        },
        {
            "mesh" : 5,
            "name" : "tongue_geo"
        },
        {
            "children" : [
                2,
                3,
                4,
                5,
                6,
                7
            ],
            "name" : "dino",
            "rotation" : [
                0.7071068286895752,
                0,
                0,
                0.7071067094802856
            ],
            "scale" : [
                0.009999999776482582,
                0.009999999776482582,
                0.009999999776482582
            ]
        }
    ],
    "materials" : [
        {
            "doubleSided" : true,
            "name" : "dino1",
            "pbrMetallicRoughness" : {
                "baseColorTexture" : {
                    "index" : 0,
                    "texCoord" : 0
                },
                "metallicFactor" : 0.5,
                "roughnessFactor" : 0.7487671971321106
            }
        }
    ],
    "meshes" : [
        {
            "name" : "Mesh.001",
            "primitives" : [
                {
                    "attributes" : {
                        "POSITION" : 0,
                        "NORMAL" : 1,
                        "TEXCOORD_0" : 2
                    },
                    "indices" : 3,
                    "material" : 0
                }
            ]
        },
        {
            "name" : "Mesh",
            "primitives" : [
                {
                    "attributes" : {
                        "POSITION" : 4,
                        "NORMAL" : 5,
                        "TEXCOORD_0" : 6
                    },
                    "indices" : 7,
                    "material" : 0
                }
            ]
        },
        {
            "name" : "Mesh.002",
            "primitives" : [
                {
                    "attributes" : {
                        "POSITION" : 8,
                        "NORMAL" : 9,
                        "TEXCOORD_0" : 10
                    },
                    "indices" : 11,
                    "material" : 0
                }
            ]
        },
        {
            "name" : "Mesh.005",
            "primitives" : [
                {
                    "attributes" : {
                        "POSITION" : 12,
                        "NORMAL" : 13,
                        "TEXCOORD_0" : 14
                    },
                    "indices" : 15,
                    "material" : 0
                }
            ]
        },
        {
            "name" : "Mesh.003",
            "primitives" : [
                {
                    "attributes" : {
                        "POSITION" : 16,
                        "NORMAL" : 17,
                        "TEXCOORD_0" : 18
                    },
                    "indices" : 15,
                    "material" : 0
                }
            ]
        },
        {
            "name" : "Mesh.004",
            "primitives" : [
                {
                    "attributes" : {
                        "POSITION" : 19,
                        "NORMAL" : 20,
                        "TEXCOORD_0" : 21
                    },
                    "indices" : 22,
                    "material" : 0
                }
            ]
        }
    ],
    "textures" : [
        {
            "sampler" : 0,
            "source" : 0
        }
    ],
    "images" : [
        {
            "bufferView" : 4,
            "mimeType" : "image/jpeg",
            "name" : "file1"
        }
    ],
    "accessors" : [
        {
            "bufferView" : 0,
            "componentType" : 5126,
            "count" : 5473,
            "max" : [
                15.742593765258789,
                67.0055160522461,
                -0.008608818054199219
            ],
            "min" : [
                -15.742593765258789,
                -61.885231018066406,
                -99.50155639648438
            ],
            "type" : "VEC3"
        },
        {
            "bufferView" : 1,
            "componentType" : 5126,
            "count" : 5473,
            "type" : "VEC3"
        },
        {
            "bufferView" : 2,
            "componentType" : 5126,
            "count" : 5473,
            "type" : "VEC2"
        },
        {
            "bufferView" : 3,
            "componentType" : 5123,
            "count" : 29616,
            "type" : "SCALAR"
        },
        {
            "bufferView" : 5,
            "componentType" : 5126,
            "count" : 402,
            "max" : [
                4.916261196136475,
                55.050010681152344,
                -92.65111541748047
            ],
            "min" : [
                -0.6742427945137024,
                49.459503173828125,
                -98.25015258789062
            ],
            "type" : "VEC3"
        },
        {
            "bufferView" : 6,
            "componentType" : 5126,
            "count" : 402,
            "type" : "VEC3"
        },
        {
            "bufferView" : 7,
            "componentType" : 5126,
            "count" : 402,
            "type" : "VEC2"
        },
        {
            "bufferView" : 8,
            "componentType" : 5123,
            "count" : 2280,
            "type" : "SCALAR"
        },
        {
            "bufferView" : 9,
            "componentType" : 5126,
            "count" : 402,
            "max" : [
                0.6742427945137024,
                55.050010681152344,
                -92.65111541748047
            ],
            "min" : [
                -4.916261196136475,
                49.459503173828125,
                -98.25015258789062
            ],
            "type" : "VEC3"
        },
        {
            "bufferView" : 10,
            "componentType" : 5126,
            "count" : 402,
            "type" : "VEC3"
        },
        {
            "bufferView" : 11,
            "componentType" : 5126,
            "count" : 402,
            "type" : "VEC2"
        },
        {
            "bufferView" : 12,
            "componentType" : 5123,
            "count" : 2280,
            "type" : "SCALAR"
        },
        {
            "bufferView" : 13,
            "componentType" : 5126,
            "count" : 1776,
            "max" : [
                3.7558255195617676,
                62.15371322631836,
                -83.43807983398438
            ],
            "min" : [
                -3.7558255195617676,
                52.335548400878906,
                -90.06315612792969
            ],
            "type" : "VEC3"
        },
        {
            "bufferView" : 14,
            "componentType" : 5126,
            "count" : 1776,
            "type" : "VEC3"
        },
        {
            "bufferView" : 15,
            "componentType" : 5126,
            "count" : 1776,
            "type" : "VEC2"
        },
        {
            "bufferView" : 16,
            "componentType" : 5123,
            "count" : 8448,
            "type" : "SCALAR"
        },
        {
            "bufferView" : 17,
            "componentType" : 5126,
            "count" : 1776,
            "max" : [
                4.224790573120117,
                62.77334213256836,
                -84.17063903808594
            ],
            "min" : [
                -4.224790573120117,
                52.22502136230469,
                -89.76142883300781
            ],
            "type" : "VEC3"
        },
        {
            "bufferView" : 18,
            "componentType" : 5126,
            "count" : 1776,
            "type" : "VEC3"
        },
        {
            "bufferView" : 19,
            "componentType" : 5126,
            "count" : 1776,
            "type" : "VEC2"
        },
        {
            "bufferView" : 20,
            "componentType" : 5126,
            "count" : 77,
            "max" : [
                2.2103447914123535,
                61.661598205566406,
                -83.86263275146484
            ],
            "min" : [
                -2.2103447914123535,
                51.01373291015625,
                -89.31272888183594
            ],
            "type" : "VEC3"
        },
        {
            "bufferView" : 21,
            "componentType" : 5126,
            "count" : 77,
            "type" : "VEC3"
        },
        {
            "bufferView" : 22,
            "componentType" : 5126,
            "count" : 77,
            "type" : "VEC2"
        },
        {
            "bufferView" : 23,
            "componentType" : 5123,
            "count" : 384,
            "type" : "SCALAR"
        }
    ],
    "bufferViews" : [
        {
            "buffer" : 0,
            "byteLength" : 65676,
            "byteOffset" : 0
        },
        {
            "buffer" : 0,
            "byteLength" : 65676,
            "byteOffset" : 65676
        },
        {
            "buffer" : 0,
            "byteLength" : 43784,
            "byteOffset" : 131352
        },
        {
            "buffer" : 0,
            "byteLength" : 59232,
            "byteOffset" : 175136
        },
        {
            "buffer" : 0,
            "byteLength" : 402358,
            "byteOffset" : 234368
        },
        {
            "buffer" : 0,
            "byteLength" : 4824,
            "byteOffset" : 636728
        },
        {
            "buffer" : 0,
            "byteLength" : 4824,
            "byteOffset" : 641552
        },
        {
            "buffer" : 0,
            "byteLength" : 3216,
            "byteOffset" : 646376
        },
        {
            "buffer" : 0,
            "byteLength" : 4560,
            "byteOffset" : 649592
        },
        {
            "buffer" : 0,
            "byteLength" : 4824,
            "byteOffset" : 654152
        },
        {
            "buffer" : 0,
            "byteLength" : 4824,
            "byteOffset" : 658976
        },
        {
            "buffer" : 0,
            "byteLength" : 3216,
            "byteOffset" : 663800
        },
        {
            "buffer" : 0,
            "byteLength" : 4560,
            "byteOffset" : 667016
        },
        {
            "buffer" : 0,
            "byteLength" : 21312,
            "byteOffset" : 671576
        },
        {
            "buffer" : 0,
            "byteLength" : 21312,
            "byteOffset" : 692888
        },
        {
            "buffer" : 0,
            "byteLength" : 14208,
            "byteOffset" : 714200
        },
        {
            "buffer" : 0,
            "byteLength" : 16896,
            "byteOffset" : 728408
        },
        {
            "buffer" : 0,
            "byteLength" : 21312,
            "byteOffset" : 745304
        },
        {
            "buffer" : 0,
            "byteLength" : 21312,
            "byteOffset" : 766616
        },
        {
            "buffer" : 0,
            "byteLength" : 14208,
            "byteOffset" : 787928
        },
        {
            "buffer" : 0,
            "byteLength" : 924,
            "byteOffset" : 802136
        },
        {
            "buffer" : 0,
            "byteLength" : 924,
            "byteOffset" : 803060
        },
        {
            "buffer" : 0,
            "byteLength" : 616,
            "byteOffset" : 803984
        },
        {
            "buffer" : 0,
            "byteLength" : 768,
            "byteOffset" : 804600
        }
    ],
    "samplers" : [
        {
            "magFilter" : 9729,
            "minFilter" : 9986
        }
    ],
    "buffers" : [
        {
            "byteLength" : 805368,
            "uri" : "data:application/octet-stream;base64,"
        }
    ]
}
