{
    "asset" : {
        "generator" : "Khronos glTF Blender I/O v1.4.40",
        "version" : "2.0"
    },
    "scene" : 0,
    "scenes" : [
        {
            "name" : "Scene",
            "nodes" : [
                0
            ]
        }
    ],
    "nodes" : [
        {
            "mesh" : 0,
            "name" : "15370_Bust-Coal_Miner_with_Hard_Hat_v1",
            "rotation" : [
                -0.032525356858968735,
                0.6033689975738525,
                0.0216374434530735,
                0.7965047359466553
            ]
        }
    ],
    "materials" : [
        {
            "doubleSided" : true,
            "name" : "wire_134110008",
            "pbrMetallicRoughness" : {
                "baseColorFactor" : [
                    0.4700283408164978,
                    0.6877206563949585,
                    0.8000000715255737,
                    1
                ],
                "metallicFactor" : 0,
                "roughnessFactor" : 0.5
            }
        }
    ],
    "meshes" : [
        {
            "name" : "15370_Bust-Coal_Miner_with_Hard_Hat_v1",
            "primitives" : [
                {
                    "attributes" : {
                        "POSITION" : 0,
                        "NORMAL" : 1,
                        "TEXCOORD_0" : 2
                    },
                    "indices" : 3,
                    "material" : 0
                }
            ]
        }
    ],
    "accessors" : [
        {
            "bufferView" : 0,
            "componentType" : 5126,
            "count" : 11234,
            "max" : [
                15.320799827575684,
                60.743499755859375,
                13.797300338745117
            ],
            "min" : [
                -15.320799827575684,
                0,
                -12.161700248718262
            ],
            "type" : "VEC3"
        },
        {
            "bufferView" : 1,
            "componentType" : 5126,
            "count" : 11234,
            "type" : "VEC3"
        },
        {
            "bufferView" : 2,
            "componentType" : 5126,
            "count" : 11234,
            "type" : "VEC2"
        },
        {
            "bufferView" : 3,
            "componentType" : 5123,
            "count" : 66492,
            "type" : "SCALAR"
        }
    ],
    "bufferViews" : [
        {
            "buffer" : 0,
            "byteLength" : 134808,
            "byteOffset" : 0
        },
        {
            "buffer" : 0,
            "byteLength" : 134808,
            "byteOffset" : 134808
        },
        {
            "buffer" : 0,
            "byteLength" : 89872,
            "byteOffset" : 269616
        },
        {
            "buffer" : 0,
            "byteLength" : 132984,
            "byteOffset" : 359488
        }
    ],
    "buffers" : [
        {
            "byteLength" : 492472,
            "uri" : "data:application/octet-stream;base64,"
        }
    ]
}
