{
    "asset" : {
        "generator" : "Khronos glTF Blender I/O v1.4.40",
        "version" : "2.0"
    },
    "scene" : 0,
    "scenes" : [
        {
            "name" : "Scene",
            "nodes" : [
                2
            ]
        }
    ],
    "nodes" : [
        {
            "mesh" : 0,
            "name" : "Cylinder",
            "rotation" : [
                0.5,
                0.5,
                0.5,
                0.5000000596046448
            ],
            "scale" : [
                0.6126954555511475,
                0.3128175139427185,
                0.8547912836074829
            ],
            "translation" : [
                -0.2956138849258423,
                -7.815067768096924,
                9.483899116516113
            ]
        },
        {
            "mesh" : 1,
            "name" : "NurbsPath.001",
            "rotation" : [
                0,
                0,
                0.6960172057151794,
                0.7180252075195312
            ],
            "scale" : [
                1.2389826774597168,
                1.7274731397628784,
                1.3072677850723267
            ],
            "translation" : [
                0.9663461446762085,
                -7.327343463897705,
                2.791611671447754
            ]
        },
        {
            "children" : [
                0,
                1
            ],
            "mesh" : 2,
            "name" : "Cube.001",
            "rotation" : [
                -0.011968239210546017,
                -0.9900243878364563,
                -0.017081663012504578,
                -0.13934393227100372
            ],
            "scale" : [
                0.36577585339546204,
                0.5103058218955994,
                0.4834519028663635
            ],
            "translation" : [
                -0.009436238557100296,
                0.24447083473205566,
                -0.4597207307815552
            ]
        }
    ],
    "materials" : [
        {
            "doubleSided" : true,
            "name" : "Material.003",
            "pbrMetallicRoughness" : {
                "baseColorFactor" : [
                    0,
                    0,
                    0,
                    1
                ],
                "metallicFactor" : 0
            }
        },
        {
            "doubleSided" : true,
            "name" : "Glossy",
            "pbrMetallicRoughness" : {}
        },
        {
            "doubleSided" : true,
            "name" : "Material.004",
            "pbrMetallicRoughness" : {
                "baseColorFactor" : [
                    0,
                    0,
                    0,
                    1
                ],
                "metallicFactor" : 0,
                "roughnessFactor" : 0.5
            }
        },
        {
            "doubleSided" : true,
            "name" : "Material",
            "pbrMetallicRoughness" : {
                "baseColorFactor" : [
                    0.0005133564118295908,
                    0.0005133564118295908,
                    0.0005133564118295908,
                    1
                ],
                "metallicFactor" : 0
            }
        },
        {
            "doubleSided" : true,
            "name" : "Material.001",
            "pbrMetallicRoughness" : {
                "baseColorFactor" : [
                    0.19015848636627197,
                    0.004866115283221006,
                    0.006190576124936342,
                    1
                ],
                "metallicFactor" : 0
            }
        }
    ],
    "meshes" : [
        {
            "name" : "Cylinder",
            "primitives" : [
                {
                    "attributes" : {
                        "POSITION" : 0,
                        "NORMAL" : 1,
                        "TEXCOORD_0" : 2
                    },
                    "indices" : 3,
                    "material" : 0
                },
                {
                    "attributes" : {
                        "POSITION" : 4,
                        "NORMAL" : 5,
                        "TEXCOORD_0" : 6
                    },
                    "indices" : 7,
                    "material" : 1
                }
            ]
        },
        {
            "name" : "NurbsPath.001",
            "primitives" : [
                {
                    "attributes" : {
                        "POSITION" : 8,
                        "NORMAL" : 9,
                        "TEXCOORD_0" : 10
                    },
                    "indices" : 11,
                    "material" : 2
                }
            ]
        },
        {
            "name" : "Cube.005",
            "primitives" : [
                {
                    "attributes" : {
                        "POSITION" : 12,
                        "NORMAL" : 13,
                        "TEXCOORD_0" : 14
                    },
                    "indices" : 15,
                    "material" : 1
                },
                {
                    "attributes" : {
                        "POSITION" : 16,
                        "NORMAL" : 17,
                        "TEXCOORD_0" : 18
                    },
                    "indices" : 19,
                    "material" : 0
                },
                {
                    "attributes" : {
                        "POSITION" : 20,
                        "NORMAL" : 21,
                        "TEXCOORD_0" : 22
                    },
                    "indices" : 23,
                    "material" : 3
                },
                {
                    "attributes" : {
                        "POSITION" : 24,
                        "NORMAL" : 25,
                        "TEXCOORD_0" : 26
                    },
                    "indices" : 27,
                    "material" : 4
                }
            ]
        }
    ],
    "accessors" : [
        {
            "bufferView" : 0,
            "componentType" : 5126,
            "count" : 1849,
            "max" : [
                1.0649237632751465,
                1.721787691116333,
                1.0649235248565674
            ],
            "min" : [
                -1.0649234056472778,
                -2.2309582233428955,
                -1.0649237632751465
            ],
            "type" : "VEC3"
        },
        {
            "bufferView" : 1,
            "componentType" : 5126,
            "count" : 1849,
            "type" : "VEC3"
        },
        {
            "bufferView" : 2,
            "componentType" : 5126,
            "count" : 1849,
            "type" : "VEC2"
        },
        {
            "bufferView" : 3,
            "componentType" : 5123,
            "count" : 6708,
            "type" : "SCALAR"
        },
        {
            "bufferView" : 4,
            "componentType" : 5126,
            "count" : 264,
            "max" : [
                0.584053635597229,
                3.6980783939361572,
                0.1246810108423233
            ],
            "min" : [
                -0.5840551853179932,
                1.5493688583374023,
                -0.12468117475509644
            ],
            "type" : "VEC3"
        },
        {
            "bufferView" : 5,
            "componentType" : 5126,
            "count" : 264,
            "type" : "VEC3"
        },
        {
            "bufferView" : 6,
            "componentType" : 5126,
            "count" : 264,
            "type" : "VEC2"
        },
        {
            "bufferView" : 7,
            "componentType" : 5123,
            "count" : 744,
            "type" : "SCALAR"
        },
        {
            "bufferView" : 8,
            "componentType" : 5126,
            "count" : 5993,
            "max" : [
                2.306063413619995,
                0.5080513954162598,
                4.600191116333008
            ],
            "min" : [
                -2.514111042022705,
                0.000676553463563323,
                -2.4933786392211914
            ],
            "type" : "VEC3"
        },
        {
            "bufferView" : 9,
            "componentType" : 5126,
            "count" : 5993,
            "type" : "VEC3"
        },
        {
            "bufferView" : 10,
            "componentType" : 5126,
            "count" : 5993,
            "type" : "VEC2"
        },
        {
            "bufferView" : 11,
            "componentType" : 5123,
            "count" : 31968,
            "type" : "SCALAR"
        },
        {
            "bufferView" : 12,
            "componentType" : 5126,
            "count" : 13851,
            "max" : [
                1.5768686532974243,
                1.7097722291946411,
                4.80374002456665
            ],
            "min" : [
                -1.5768694877624512,
                -1.90080726146698,
                -2.177625894546509
            ],
            "type" : "VEC3"
        },
        {
            "bufferView" : 13,
            "componentType" : 5126,
            "count" : 13851,
            "type" : "VEC3"
        },
        {
            "bufferView" : 14,
            "componentType" : 5126,
            "count" : 13851,
            "type" : "VEC2"
        },
        {
            "bufferView" : 15,
            "componentType" : 5123,
            "count" : 74772,
            "type" : "SCALAR"
        },
        {
            "bufferView" : 16,
            "componentType" : 5126,
            "count" : 766,
            "max" : [
                1.5082547664642334,
                1.643803358078003,
                4.982688903808594
            ],
            "min" : [
                -1.4017276763916016,
                -1.1164181232452393,
                -1.3249832391738892
            ],
            "type" : "VEC3"
        },
        {
            "bufferView" : 17,
            "componentType" : 5126,
            "count" : 766,
            "type" : "VEC3"
        },
        {
            "bufferView" : 18,
            "componentType" : 5126,
            "count" : 766,
            "type" : "VEC2"
        },
        {
            "bufferView" : 19,
            "componentType" : 5123,
            "count" : 2622,
            "type" : "SCALAR"
        },
        {
            "bufferView" : 20,
            "componentType" : 5126,
            "count" : 2260,
            "max" : [
                0.9517831206321716,
                -1.764360785484314,
                0.40559065341949463
            ],
            "min" : [
                -0.9001863598823547,
                -5.751204490661621,
                -0.9955946803092957
            ],
            "type" : "VEC3"
        },
        {
            "bufferView" : 21,
            "componentType" : 5126,
            "count" : 2260,
            "type" : "VEC3"
        },
        {
            "bufferView" : 22,
            "componentType" : 5126,
            "count" : 2260,
            "type" : "VEC2"
        },
        {
            "bufferView" : 23,
            "componentType" : 5123,
            "count" : 9912,
            "type" : "SCALAR"
        },
        {
            "bufferView" : 24,
            "componentType" : 5126,
            "count" : 410,
            "max" : [
                0.10676050931215286,
                -2.697408437728882,
                0.5146952867507935
            ],
            "min" : [
                -0.12721118330955505,
                -2.8626224994659424,
                0.2513576149940491
            ],
            "type" : "VEC3"
        },
        {
            "bufferView" : 25,
            "componentType" : 5126,
            "count" : 410,
            "type" : "VEC3"
        },
        {
            "bufferView" : 26,
            "componentType" : 5126,
            "count" : 410,
            "type" : "VEC2"
        },
        {
            "bufferView" : 27,
            "componentType" : 5123,
            "count" : 1728,
            "type" : "SCALAR"
        }
    ],
    "bufferViews" : [
        {
            "buffer" : 0,
            "byteLength" : 22188,
            "byteOffset" : 0
        },
        {
            "buffer" : 0,
            "byteLength" : 22188,
            "byteOffset" : 22188
        },
        {
            "buffer" : 0,
            "byteLength" : 14792,
            "byteOffset" : 44376
        },
        {
            "buffer" : 0,
            "byteLength" : 13416,
            "byteOffset" : 59168
        },
        {
            "buffer" : 0,
            "byteLength" : 3168,
            "byteOffset" : 72584
        },
        {
            "buffer" : 0,
            "byteLength" : 3168,
            "byteOffset" : 75752
        },
        {
            "buffer" : 0,
            "byteLength" : 2112,
            "byteOffset" : 78920
        },
        {
            "buffer" : 0,
            "byteLength" : 1488,
            "byteOffset" : 81032
        },
        {
            "buffer" : 0,
            "byteLength" : 71916,
            "byteOffset" : 82520
        },
        {
            "buffer" : 0,
            "byteLength" : 71916,
            "byteOffset" : 154436
        },
        {
            "buffer" : 0,
            "byteLength" : 47944,
            "byteOffset" : 226352
        },
        {
            "buffer" : 0,
            "byteLength" : 63936,
            "byteOffset" : 274296
        },
        {
            "buffer" : 0,
            "byteLength" : 166212,
            "byteOffset" : 338232
        },
        {
            "buffer" : 0,
            "byteLength" : 166212,
            "byteOffset" : 504444
        },
        {
            "buffer" : 0,
            "byteLength" : 110808,
            "byteOffset" : 670656
        },
        {
            "buffer" : 0,
            "byteLength" : 149544,
            "byteOffset" : 781464
        },
        {
            "buffer" : 0,
            "byteLength" : 9192,
            "byteOffset" : 931008
        },
        {
            "buffer" : 0,
            "byteLength" : 9192,
            "byteOffset" : 940200
        },
        {
            "buffer" : 0,
            "byteLength" : 6128,
            "byteOffset" : 949392
        },
        {
            "buffer" : 0,
            "byteLength" : 5244,
            "byteOffset" : 955520
        },
        {
            "buffer" : 0,
            "byteLength" : 27120,
            "byteOffset" : 960764
        },
        {
            "buffer" : 0,
            "byteLength" : 27120,
            "byteOffset" : 987884
        },
        {
            "buffer" : 0,
            "byteLength" : 18080,
            "byteOffset" : 1015004
        },
        {
            "buffer" : 0,
            "byteLength" : 19824,
            "byteOffset" : 1033084
        },
        {
            "buffer" : 0,
            "byteLength" : 4920,
            "byteOffset" : 1052908
        },
        {
            "buffer" : 0,
            "byteLength" : 4920,
            "byteOffset" : 1057828
        },
        {
            "buffer" : 0,
            "byteLength" : 3280,
            "byteOffset" : 1062748
        },
        {
            "buffer" : 0,
            "byteLength" : 3456,
            "byteOffset" : 1066028
        }
    ],
    "buffers" : [
        {
            "byteLength" : 1069484,
            "uri" : "data:application/octet-stream;base64,"
        }
    ]
}
