{
    "asset" : {
        "generator" : "Khronos glTF Blender I/O v1.4.40",
        "version" : "2.0"
    },
    "extensionsUsed" : [
        "KHR_materials_clearcoat",
        "KHR_materials_transmission"
    ],
    "scene" : 0,
    "scenes" : [
        {
            "name" : "Scene",
            "nodes" : [
                0,
                1,
                2,
                3
            ]
        }
    ],
    "nodes" : [
        {
            "mesh" : 0,
            "name" : "\u041f\u043e\u0432\u0435\u0440\u0445\u043d\u043e\u0441\u0442\u044c",
            "scale" : [
                2.583733081817627,
                2.2793314456939697,
                2.583733081817627
            ],
            "translation" : [
                0,
                4.647221565246582,
                0.0071392059326171875
            ]
        },
        {
            "mesh" : 1,
            "name" : "Cylinder",
            "rotation" : [
                0,
                0.9063263535499573,
                0,
                0.4225783944129944
            ],
            "scale" : [
                4.520483016967773,
                2.638834238052368,
                4.520483016967773
            ],
            "translation" : [
                0,
                4.859704494476318,
                0
            ]
        },
        {
            "mesh" : 2,
            "name" : "Circle",
            "scale" : [
                1.8370285034179688,
                4.485874176025391,
                1.8370285034179688
            ],
            "translation" : [
                0,
                8.63664436340332,
                0
            ]
        },
        {
            "mesh" : 3,
            "name" : "Plane",
            "scale" : [
                58.98318099975586,
                58.98318099975586,
                58.98318099975586
            ],
            "translation" : [
                0,
                -1.1760936975479126,
                0
            ]
        }
    ],
    "materials" : [
        {
            "doubleSided" : true,
            "name" : "\u041c\u0430\u0442\u0435\u0440\u0438\u0430\u043b",
            "pbrMetallicRoughness" : {
                "baseColorTexture" : {
                    "index" : 0,
                    "texCoord" : 0
                },
                "metallicFactor" : 0,
                "roughnessFactor" : 0.5
            }
        },
        {
            "doubleSided" : true,
            "emissiveFactor" : [
                0.0011975594097748399,
                0.0012282055104151368,
                0.005783840548247099
            ],
            "extensions" : {
                "KHR_materials_clearcoat" : {
                    "clearcoatFactor" : 0.16017316281795502,
                    "clearcoatRoughnessFactor" : 0
                },
                "KHR_materials_transmission" : {
                    "transmissionFactor" : 1
                }
            },
            "name" : "Material.001",
            "pbrMetallicRoughness" : {
                "baseColorFactor" : [
                    0,
                    0,
                    0,
                    0.2976190447807312
                ],
                "metallicFactor" : 0,
                "roughnessFactor" : 0
            }
        },
        {
            "doubleSided" : true,
            "extensions" : {
                "KHR_materials_clearcoat" : {
                    "clearcoatFactor" : 0.13636364042758942,
                    "clearcoatRoughnessFactor" : 0.3436363637447357
                }
            },
            "name" : "Material.004",
            "pbrMetallicRoughness" : {
                "metallicFactor" : 0,
                "roughnessFactor" : 0.26818180084228516
            }
        },
        {
            "doubleSided" : true,
            "extensions" : {
                "KHR_materials_clearcoat" : {
                    "clearcoatFactor" : 0.07840900123119354,
                    "clearcoatRoughnessFactor" : 0.029999999329447746
                }
            },
            "name" : "Material.006",
            "pbrMetallicRoughness" : {
                "baseColorFactor" : [
                    0.016012409701943398,
                    0.2019004076719284,
                    0,
                    1
                ],
                "metallicFactor" : 0,
                "roughnessFactor" : 0.26159098744392395
            }
        },
        {
            "doubleSided" : true,
            "name" : "Material.005",
            "pbrMetallicRoughness" : {
                "metallicFactor" : 0.22727273404598236,
                "roughnessFactor" : 0.5
            }
        }
    ],
    "meshes" : [
        {
            "name" : "\u041f\u043e\u0432\u0435\u0440\u0445\u043d\u043e\u0441\u0442\u044c",
            "primitives" : [
                {
                    "attributes" : {
                        "POSITION" : 0,
                        "NORMAL" : 1,
                        "TEXCOORD_0" : 2
                    },
                    "indices" : 3,
                    "material" : 0
                }
            ]
        },
        {
            "name" : "Cylinder",
            "primitives" : [
                {
                    "attributes" : {
                        "POSITION" : 4,
                        "NORMAL" : 5,
                        "TEXCOORD_0" : 6
                    },
                    "indices" : 7,
                    "material" : 1
                },
                {
                    "attributes" : {
                        "POSITION" : 8,
                        "NORMAL" : 9,
                        "TEXCOORD_0" : 10
                    },
                    "indices" : 11,
                    "material" : 2
                }
            ]
        },
        {
            "name" : "Circle.001",
            "primitives" : [
                {
                    "attributes" : {
                        "POSITION" : 12,
                        "NORMAL" : 13,
                        "TEXCOORD_0" : 14
                    },
                    "indices" : 15,
                    "material" : 3
                }
            ]
        },
        {
            "name" : "Plane",
            "primitives" : [
                {
                    "attributes" : {
                        "POSITION" : 16,
                        "NORMAL" : 17,
                        "TEXCOORD_0" : 18
                    },
                    "indices" : 19,
                    "material" : 4
                }
            ]
        }
    ],
    "textures" : [
        {
            "sampler" : 0,
            "source" : 0
        }
    ],
    "images" : [
        {
            "bufferView" : 4,
            "mimeType" : "image/png",
            "name" : "iod"
        }
    ],
    "accessors" : [
        {
            "bufferView" : 0,
            "componentType" : 5126,
            "count" : 776,
            "max" : [
                1.0000001192092896,
                1.0000001192092896,
                1.0000001192092896
            ],
            "min" : [
                -1.0000001192092896,
                -1.0000001192092896,
                -1.0000001192092896
            ],
            "type" : "VEC3"
        },
        {
            "bufferView" : 1,
            "componentType" : 5126,
            "count" : 776,
            "type" : "VEC3"
        },
        {
            "bufferView" : 2,
            "componentType" : 5126,
            "count" : 776,
            "type" : "VEC2"
        },
        {
            "bufferView" : 3,
            "componentType" : 5123,
            "count" : 4032,
            "type" : "SCALAR"
        },
        {
            "bufferView" : 5,
            "componentType" : 5126,
            "count" : 6697,
            "max" : [
                0.5608364343643188,
                1.3051080703735352,
                0.5608364343643188
            ],
            "min" : [
                -0.5608364343643188,
                -1.0462599992752075,
                -0.5608364343643188
            ],
            "type" : "VEC3"
        },
        {
            "bufferView" : 6,
            "componentType" : 5126,
            "count" : 6697,
            "type" : "VEC3"
        },
        {
            "bufferView" : 7,
            "componentType" : 5126,
            "count" : 6697,
            "type" : "VEC2"
        },
        {
            "bufferView" : 8,
            "componentType" : 5123,
            "count" : 27696,
            "type" : "SCALAR"
        },
        {
            "bufferView" : 9,
            "componentType" : 5126,
            "count" : 385,
            "max" : [
                0.5608364343643188,
                0.7847990393638611,
                0.5608364343643188
            ],
            "min" : [
                -0.5608364343643188,
                -0.9424667358398438,
                -0.5608364343643188
            ],
            "type" : "VEC3"
        },
        {
            "bufferView" : 10,
            "componentType" : 5126,
            "count" : 385,
            "type" : "VEC3"
        },
        {
            "bufferView" : 11,
            "componentType" : 5126,
            "count" : 385,
            "type" : "VEC2"
        },
        {
            "bufferView" : 12,
            "componentType" : 5123,
            "count" : 1824,
            "type" : "SCALAR"
        },
        {
            "bufferView" : 13,
            "componentType" : 5126,
            "count" : 3321,
            "max" : [
                1.014050841331482,
                0.00555755477398634,
                1.0140517950057983
            ],
            "min" : [
                -1.0140507221221924,
                -0.1292385756969452,
                -1.0140511989593506
            ],
            "type" : "VEC3"
        },
        {
            "bufferView" : 14,
            "componentType" : 5126,
            "count" : 3321,
            "type" : "VEC3"
        },
        {
            "bufferView" : 15,
            "componentType" : 5126,
            "count" : 3321,
            "type" : "VEC2"
        },
        {
            "bufferView" : 16,
            "componentType" : 5123,
            "count" : 13200,
            "type" : "SCALAR"
        },
        {
            "bufferView" : 17,
            "componentType" : 5126,
            "count" : 42,
            "max" : [
                1,
                1.1500540971755981,
                1
            ],
            "min" : [
                -1,
                0,
                -1
            ],
            "type" : "VEC3"
        },
        {
            "bufferView" : 18,
            "componentType" : 5126,
            "count" : 42,
            "type" : "VEC3"
        },
        {
            "bufferView" : 19,
            "componentType" : 5126,
            "count" : 42,
            "type" : "VEC2"
        },
        {
            "bufferView" : 20,
            "componentType" : 5123,
            "count" : 120,
            "type" : "SCALAR"
        }
    ],
    "bufferViews" : [
        {
            "buffer" : 0,
            "byteLength" : 9312,
            "byteOffset" : 0
        },
        {
            "buffer" : 0,
            "byteLength" : 9312,
            "byteOffset" : 9312
        },
        {
            "buffer" : 0,
            "byteLength" : 6208,
            "byteOffset" : 18624
        },
        {
            "buffer" : 0,
            "byteLength" : 8064,
            "byteOffset" : 24832
        },
        {
            "buffer" : 0,
            "byteLength" : 25819,
            "byteOffset" : 32896
        },
        {
            "buffer" : 0,
            "byteLength" : 80364,
            "byteOffset" : 58716
        },
        {
            "buffer" : 0,
            "byteLength" : 80364,
            "byteOffset" : 139080
        },
        {
            "buffer" : 0,
            "byteLength" : 53576,
            "byteOffset" : 219444
        },
        {
            "buffer" : 0,
            "byteLength" : 55392,
            "byteOffset" : 273020
        },
        {
            "buffer" : 0,
            "byteLength" : 4620,
            "byteOffset" : 328412
        },
        {
            "buffer" : 0,
            "byteLength" : 4620,
            "byteOffset" : 333032
        },
        {
            "buffer" : 0,
            "byteLength" : 3080,
            "byteOffset" : 337652
        },
        {
            "buffer" : 0,
            "byteLength" : 3648,
            "byteOffset" : 340732
        },
        {
            "buffer" : 0,
            "byteLength" : 39852,
            "byteOffset" : 344380
        },
        {
            "buffer" : 0,
            "byteLength" : 39852,
            "byteOffset" : 384232
        },
        {
            "buffer" : 0,
            "byteLength" : 26568,
            "byteOffset" : 424084
        },
        {
            "buffer" : 0,
            "byteLength" : 26400,
            "byteOffset" : 450652
        },
        {
            "buffer" : 0,
            "byteLength" : 504,
            "byteOffset" : 477052
        },
        {
            "buffer" : 0,
            "byteLength" : 504,
            "byteOffset" : 477556
        },
        {
            "buffer" : 0,
            "byteLength" : 336,
            "byteOffset" : 478060
        },
        {
            "buffer" : 0,
            "byteLength" : 240,
            "byteOffset" : 478396
        }
    ],
    "samplers" : [
        {
            "magFilter" : 9729,
            "minFilter" : 9986,
            "wrapS" : 33071,
            "wrapT" : 33071
        }
    ],
    "buffers" : [
        {
            "byteLength" : 478636,
            "uri" : "data:application/octet-stream;base64,"
        }
    ]
}
