{
    "asset" : {
        "generator" : "Khronos glTF Blender I/O v1.4.40",
        "version" : "2.0"
    },
    "extensionsUsed" : [
        "KHR_materials_unlit"
    ],
    "scene" : 0,
    "scenes" : [
        {
            "name" : "Scene",
            "nodes" : [
                0,
                1,
                2,
                3,
                4,
                5,
                6,
                7
            ]
        }
    ],
    "nodes" : [
        {
            "mesh" : 0,
            "name" : "Circle.004",
            "translation" : [
                2.757730484008789,
                0.5621261596679688,
                3.4119338989257812
            ]
        },
        {
            "mesh" : 1,
            "name" : "Cube",
            "scale" : [
                6.384578227996826,
                0.1688060760498047,
                4.398770332336426
            ],
            "translation" : [
                0.07283735275268555,
                -1.743680477142334,
                1.3007042407989502
            ]
        },
        {
            "mesh" : 2,
            "name" : "Circle.003",
            "translation" : [
                -1.1100995540618896,
                0.5621261596679688,
                4.023324012756348
            ]
        },
        {
            "mesh" : 3,
            "name" : "Circle.002",
            "translation" : [
                -4.197286128997803,
                0.5621261596679688,
                0.21425390243530273
            ]
        },
        {
            "mesh" : 4,
            "name" : "Circle",
            "rotation" : [
                0,
                0.0152732590213418,
                0,
                0.9998833537101746
            ],
            "scale" : [
                0.8718153238296509,
                0.8718153238296509,
                0.8718153238296509
            ],
            "translation" : [
                3.1489737033843994,
                0.06492966413497925,
                0.18453991413116455
            ]
        },
        {
            "mesh" : 5,
            "name" : "Circle.001",
            "rotation" : [
                -0.006484112236648798,
                0.32427483797073364,
                0.004050604533404112,
                -0.9459320306777954
            ],
            "scale" : [
                1.0730727910995483,
                1.0730727910995483,
                1.0730727910995483
            ],
            "translation" : [
                -3.8361854553222656,
                -1.227170467376709,
                3.3079051971435547
            ]
        },
        {
            "name" : "Lamp",
            "rotation" : [
                0.16907575726509094,
                0.7558803558349609,
                -0.27217137813568115,
                0.570947527885437
            ],
            "translation" : [
                -7.778440475463867,
                4.943942070007324,
                9.995373725891113
            ]
        },
        {
            "name" : "Camera",
            "rotation" : [
                0.42333701252937317,
                -0.45527997612953186,
                0.26826420426368713,
                0.7358942031860352
            ],
            "translation" : [
                -13.948768615722656,
                5.4092559814453125,
                5.940168380737305
            ]
        }
    ],
    "materials" : [
        {
            "doubleSided" : true,
            "name" : "Material.003",
            "pbrMetallicRoughness" : {
                "baseColorFactor" : [
                    0.8000000715255737,
                    0.3377273380756378,
                    0.024925727397203445,
                    1
                ],
                "metallicFactor" : 0,
                "roughnessFactor" : 0.5
            }
        },
        {
            "doubleSided" : true,
            "extensions" : {
                "KHR_materials_unlit" : {}
            },
            "name" : "Material.004",
            "pbrMetallicRoughness" : {
                "baseColorFactor" : [
                    0.8000000715255737,
                    0.5180263519287109,
                    0.11114814877510071,
                    1
                ],
                "metallicFactor" : 0,
                "roughnessFactor" : 0.9
            }
        },
        {
            "doubleSided" : true,
            "name" : "Material.001",
            "pbrMetallicRoughness" : {
                "baseColorFactor" : [
                    0.9471679925918579,
                    0.27018195390701294,
                    0.5457170605659485,
                    1
                ],
                "metallicFactor" : 0,
                "roughnessFactor" : 0.5
            }
        },
        {
            "doubleSided" : true,
            "name" : "Material.002",
            "pbrMetallicRoughness" : {
                "baseColorFactor" : [
                    0.9308426380157471,
                    0.15431655943393707,
                    0.6172330975532532,
                    1
                ],
                "metallicFactor" : 0,
                "roughnessFactor" : 0.5
            }
        }
    ],
    "meshes" : [
        {
            "name" : "Circle.004",
            "primitives" : [
                {
                    "attributes" : {
                        "POSITION" : 0,
                        "NORMAL" : 1,
                        "TEXCOORD_0" : 2
                    },
                    "indices" : 3,
                    "material" : 0
                }
            ]
        },
        {
            "name" : "Cube.001",
            "primitives" : [
                {
                    "attributes" : {
                        "POSITION" : 4,
                        "NORMAL" : 5,
                        "TEXCOORD_0" : 6
                    },
                    "indices" : 7,
                    "material" : 1
                }
            ]
        },
        {
            "name" : "Circle.003",
            "primitives" : [
                {
                    "attributes" : {
                        "POSITION" : 8,
                        "NORMAL" : 9,
                        "TEXCOORD_0" : 10
                    },
                    "indices" : 3,
                    "material" : 0
                }
            ]
        },
        {
            "name" : "Circle.002",
            "primitives" : [
                {
                    "attributes" : {
                        "POSITION" : 11,
                        "NORMAL" : 12,
                        "TEXCOORD_0" : 13
                    },
                    "indices" : 3,
                    "material" : 0
                }
            ]
        },
        {
            "name" : "Circle",
            "primitives" : [
                {
                    "attributes" : {
                        "POSITION" : 14,
                        "NORMAL" : 15,
                        "TEXCOORD_0" : 16
                    },
                    "indices" : 17,
                    "material" : 2
                }
            ]
        },
        {
            "name" : "Circle.001",
            "primitives" : [
                {
                    "attributes" : {
                        "POSITION" : 18,
                        "NORMAL" : 19,
                        "TEXCOORD_0" : 20
                    },
                    "indices" : 21,
                    "material" : 3
                }
            ]
        }
    ],
    "accessors" : [
        {
            "bufferView" : 0,
            "componentType" : 5126,
            "count" : 897,
            "max" : [
                1.3465169668197632,
                -0.18940944969654083,
                1.3772943019866943
            ],
            "min" : [
                -1.4080711603164673,
                -1.8404335975646973,
                -1.3772940635681152
            ],
            "type" : "VEC3"
        },
        {
            "bufferView" : 1,
            "componentType" : 5126,
            "count" : 897,
            "type" : "VEC3"
        },
        {
            "bufferView" : 2,
            "componentType" : 5126,
            "count" : 897,
            "type" : "VEC2"
        },
        {
            "bufferView" : 3,
            "componentType" : 5123,
            "count" : 3840,
            "type" : "SCALAR"
        },
        {
            "bufferView" : 4,
            "componentType" : 5126,
            "count" : 350,
            "max" : [
                1.2081270217895508,
                5.73008918762207,
                1.0000005960464478
            ],
            "min" : [
                -1.2081270217895508,
                -1,
                -1.0000001192092896
            ],
            "type" : "VEC3"
        },
        {
            "bufferView" : 5,
            "componentType" : 5126,
            "count" : 350,
            "type" : "VEC3"
        },
        {
            "bufferView" : 6,
            "componentType" : 5126,
            "count" : 350,
            "type" : "VEC2"
        },
        {
            "bufferView" : 7,
            "componentType" : 5123,
            "count" : 540,
            "type" : "SCALAR"
        },
        {
            "bufferView" : 8,
            "componentType" : 5126,
            "count" : 897,
            "max" : [
                1.3465169668197632,
                -0.18940944969654083,
                1.3772943019866943
            ],
            "min" : [
                -1.4080711603164673,
                -1.8404335975646973,
                -1.3772940635681152
            ],
            "type" : "VEC3"
        },
        {
            "bufferView" : 9,
            "componentType" : 5126,
            "count" : 897,
            "type" : "VEC3"
        },
        {
            "bufferView" : 10,
            "componentType" : 5126,
            "count" : 897,
            "type" : "VEC2"
        },
        {
            "bufferView" : 11,
            "componentType" : 5126,
            "count" : 897,
            "max" : [
                1.3465169668197632,
                -0.18940944969654083,
                1.3772943019866943
            ],
            "min" : [
                -1.4080711603164673,
                -1.8404335975646973,
                -1.3772940635681152
            ],
            "type" : "VEC3"
        },
        {
            "bufferView" : 12,
            "componentType" : 5126,
            "count" : 897,
            "type" : "VEC3"
        },
        {
            "bufferView" : 13,
            "componentType" : 5126,
            "count" : 897,
            "type" : "VEC2"
        },
        {
            "bufferView" : 14,
            "componentType" : 5126,
            "count" : 2438,
            "max" : [
                0.2247513234615326,
                1.6915761232376099,
                2.6346921920776367
            ],
            "min" : [
                -7.509506702423096,
                -1.5216645002365112,
                -2.6346921920776367
            ],
            "type" : "VEC3"
        },
        {
            "bufferView" : 15,
            "componentType" : 5126,
            "count" : 2438,
            "type" : "VEC3"
        },
        {
            "bufferView" : 16,
            "componentType" : 5126,
            "count" : 2438,
            "type" : "VEC2"
        },
        {
            "bufferView" : 17,
            "componentType" : 5123,
            "count" : 10980,
            "type" : "SCALAR"
        },
        {
            "bufferView" : 18,
            "componentType" : 5126,
            "count" : 2655,
            "max" : [
                1.1192463636398315,
                0.9808412194252014,
                1.119246482849121
            ],
            "min" : [
                -1.119246482849121,
                0,
                -1.119246482849121
            ],
            "type" : "VEC3"
        },
        {
            "bufferView" : 19,
            "componentType" : 5126,
            "count" : 2655,
            "type" : "VEC3"
        },
        {
            "bufferView" : 20,
            "componentType" : 5126,
            "count" : 2655,
            "type" : "VEC2"
        },
        {
            "bufferView" : 21,
            "componentType" : 5123,
            "count" : 4032,
            "type" : "SCALAR"
        }
    ],
    "bufferViews" : [
        {
            "buffer" : 0,
            "byteLength" : 10764,
            "byteOffset" : 0
        },
        {
            "buffer" : 0,
            "byteLength" : 10764,
            "byteOffset" : 10764
        },
        {
            "buffer" : 0,
            "byteLength" : 7176,
            "byteOffset" : 21528
        },
        {
            "buffer" : 0,
            "byteLength" : 7680,
            "byteOffset" : 28704
        },
        {
            "buffer" : 0,
            "byteLength" : 4200,
            "byteOffset" : 36384
        },
        {
            "buffer" : 0,
            "byteLength" : 4200,
            "byteOffset" : 40584
        },
        {
            "buffer" : 0,
            "byteLength" : 2800,
            "byteOffset" : 44784
        },
        {
            "buffer" : 0,
            "byteLength" : 1080,
            "byteOffset" : 47584
        },
        {
            "buffer" : 0,
            "byteLength" : 10764,
            "byteOffset" : 48664
        },
        {
            "buffer" : 0,
            "byteLength" : 10764,
            "byteOffset" : 59428
        },
        {
            "buffer" : 0,
            "byteLength" : 7176,
            "byteOffset" : 70192
        },
        {
            "buffer" : 0,
            "byteLength" : 10764,
            "byteOffset" : 77368
        },
        {
            "buffer" : 0,
            "byteLength" : 10764,
            "byteOffset" : 88132
        },
        {
            "buffer" : 0,
            "byteLength" : 7176,
            "byteOffset" : 98896
        },
        {
            "buffer" : 0,
            "byteLength" : 29256,
            "byteOffset" : 106072
        },
        {
            "buffer" : 0,
            "byteLength" : 29256,
            "byteOffset" : 135328
        },
        {
            "buffer" : 0,
            "byteLength" : 19504,
            "byteOffset" : 164584
        },
        {
            "buffer" : 0,
            "byteLength" : 21960,
            "byteOffset" : 184088
        },
        {
            "buffer" : 0,
            "byteLength" : 31860,
            "byteOffset" : 206048
        },
        {
            "buffer" : 0,
            "byteLength" : 31860,
            "byteOffset" : 237908
        },
        {
            "buffer" : 0,
            "byteLength" : 21240,
            "byteOffset" : 269768
        },
        {
            "buffer" : 0,
            "byteLength" : 8064,
            "byteOffset" : 291008
        }
    ],
    "buffers" : [
        {
            "byteLength" : 299072,
            "uri" : "data:application/octet-stream;base64,"
        }
    ]
}
