{
    "asset" : {
        "generator" : "Khronos glTF Blender I/O v1.4.40",
        "version" : "2.0"
    },
    "scene" : 0,
    "scenes" : [
        {
            "name" : "Scene",
            "nodes" : [
                0
            ]
        }
    ],
    "nodes" : [
        {
            "mesh" : 0,
            "name" : "10513_Ice_Skates_L3",
            "rotation" : [
                0.11328896880149841,
                0.41917818784713745,
                -0.12476647645235062,
                0.8921259045600891
            ]
        }
    ],
    "materials" : [
        {
            "doubleSided" : true,
            "name" : "01___Default",
            "pbrMetallicRoughness" : {
                "baseColorTexture" : {
                    "index" : 0,
                    "texCoord" : 0
                },
                "metallicFactor" : 0,
                "roughnessFactor" : 0.8945907354354858
            }
        }
    ],
    "meshes" : [
        {
            "name" : "10513_Ice_Skates_L3",
            "primitives" : [
                {
                    "attributes" : {
                        "POSITION" : 0,
                        "NORMAL" : 1,
                        "TEXCOORD_0" : 2
                    },
                    "indices" : 3,
                    "material" : 0
                }
            ]
        }
    ],
    "textures" : [
        {
            "sampler" : 0,
            "source" : 0
        }
    ],
    "images" : [
        {
            "bufferView" : 4,
            "mimeType" : "image/jpeg",
            "name" : "10513_Ice_Skates_Difuse"
        }
    ],
    "accessors" : [
        {
            "bufferView" : 0,
            "componentType" : 5126,
            "count" : 21258,
            "max" : [
                5.909200191497803,
                23.00830078125,
                3.9946999549865723
            ],
            "min" : [
                -16.135900497436523,
                -0.014399999752640724,
                -3.9946999549865723
            ],
            "type" : "VEC3"
        },
        {
            "bufferView" : 1,
            "componentType" : 5126,
            "count" : 21258,
            "type" : "VEC3"
        },
        {
            "bufferView" : 2,
            "componentType" : 5126,
            "count" : 21258,
            "type" : "VEC2"
        },
        {
            "bufferView" : 3,
            "componentType" : 5123,
            "count" : 114576,
            "type" : "SCALAR"
        }
    ],
    "bufferViews" : [
        {
            "buffer" : 0,
            "byteLength" : 255096,
            "byteOffset" : 0
        },
        {
            "buffer" : 0,
            "byteLength" : 255096,
            "byteOffset" : 255096
        },
        {
            "buffer" : 0,
            "byteLength" : 170064,
            "byteOffset" : 510192
        },
        {
            "buffer" : 0,
            "byteLength" : 229152,
            "byteOffset" : 680256
        },
        {
            "buffer" : 0,
            "byteLength" : 329896,
            "byteOffset" : 909408
        }
    ],
    "samplers" : [
        {
            "magFilter" : 9729,
            "minFilter" : 9986
        }
    ],
    "buffers" : [
        {
            "byteLength" : 1239304,
            "uri" : "data:application/octet-stream;base64,"
        }
    ]
}
