{
    "asset" : {
        "generator" : "Khronos glTF Blender I/O v1.4.40",
        "version" : "2.0"
    },
    "scene" : 0,
    "scenes" : [
        {
            "name" : "Scene",
            "nodes" : [
                0,
                1,
                2,
                3,
                4,
                5,
                6,
                7,
                8,
                9,
                10,
                11,
                12,
                13,
                18,
                19,
                20
            ]
        }
    ],
    "nodes" : [
        {
            "name" : "Group-999024-1-606",
            "scale" : [
                0.0010000000474974513,
                0.0010000000474974513,
                0.0010000000474974513
            ],
            "translation" : [
                -7.979602813720703,
                0,
                23.33269691467285
            ]
        },
        {
            "name" : "Group-999024-2-593",
            "rotation" : [
                -1,
                0,
                0,
                7.549790126404332e-08
            ],
            "scale" : [
                0.0010000000474974513,
                0.0010000000474974513,
                0.0010000000474974513
            ],
            "translation" : [
                -8.408618927001953,
                0,
                23.003822326660156
            ]
        },
        {
            "name" : "Group-999024-3-713",
            "scale" : [
                0.0010000000474974513,
                0.0010000000474974513,
                0.0010000000474974513
            ],
            "translation" : [
                -12.813368797302246,
                0,
                10.429336547851562
            ]
        },
        {
            "name" : "Group-999024-4-520",
            "scale" : [
                0.0010000000474974513,
                0.0010000000474974513,
                0.0010000000474974513
            ],
            "translation" : [
                -12.813368797302246,
                0,
                10.429336547851562
            ]
        },
        {
            "name" : "Group-999024-5-342",
            "scale" : [
                0.0010000000474974513,
                0.0010000000474974513,
                0.0010000000474974513
            ],
            "translation" : [
                -30.759431838989258,
                0.710239052772522,
                14.057782173156738
            ]
        },
        {
            "name" : "Group-999024-6-527",
            "scale" : [
                0.0010000000474974513,
                0.0010000000474974513,
                0.0010000000474974513
            ],
            "translation" : [
                -30.759431838989258,
                0.710239052772522,
                14.057782173156738
            ]
        },
        {
            "name" : "Group-999024-15-895",
            "scale" : [
                0.0010000000474974513,
                0.0010000000474974513,
                0.0010000000474974513
            ],
            "translation" : [
                0.15302039682865143,
                0,
                1.5420830249786377
            ]
        },
        {
            "name" : "Group-999024-16-367",
            "scale" : [
                0.0010000000474974513,
                0.0010000000474974513,
                0.0010000000474974513
            ],
            "translation" : [
                0.15302039682865143,
                0,
                1.5420830249786377
            ]
        },
        {
            "name" : "Group-999024-17-645",
            "scale" : [
                0.0010000000474974513,
                0.0010000000474974513,
                0.0010000000474974513
            ],
            "translation" : [
                0.15302039682865143,
                0,
                1.5420830249786377
            ]
        },
        {
            "name" : "Group-999024-18-39",
            "scale" : [
                0.0010000000474974513,
                0.0010000000474974513,
                0.0010000000474974513
            ],
            "translation" : [
                0.15302039682865143,
                0,
                1.5420830249786377
            ]
        },
        {
            "name" : "\u52a8\u4f5c\u6062\u590d",
            "scale" : [
                0.0010000000474974513,
                0.0010000000474974513,
                0.0010000000474974513
            ],
            "translation" : [
                0.15302039682865143,
                0,
                1.5420830249786377
            ]
        },
        {
            "name" : "(VR)\u706f\u5149003",
            "scale" : [
                0.0010000000474974513,
                0.0010000000474974513,
                0.0010000000474974513
            ],
            "translation" : [
                1.7332532405853271,
                0,
                -0.44740813970565796
            ]
        },
        {
            "name" : "(VR)\u592a\u9633001",
            "rotation" : [
                0.349274218082428,
                0.3707008957862854,
                -0.1528852880001068,
                0.8468851447105408
            ],
            "scale" : [
                0.0010000000474974513,
                0.0010000000474974513,
                0.0010000000474974513
            ],
            "translation" : [
                9.394229888916016,
                10.775556564331055,
                8.989466667175293
            ]
        },
        {
            "name" : "(VR)\u592a\u9633001.Target",
            "scale" : [
                0.0010000000474974513,
                0.0010000000474974513,
                0.0010000000474974513
            ],
            "translation" : [
                -5.425281047821045,
                -9.519654273986816,
                -4.695078372955322
            ]
        },
        {
            "mesh" : 0,
            "name" : "Obj3d66-604642-2-287",
            "translation" : [
                2583.9677734375,
                1023.1806640625,
                12463.314453125
            ]
        },
        {
            "mesh" : 1,
            "name" : "Obj3d66-604642-3-338",
            "translation" : [
                -2583.97265625,
                1023.1806640625,
                12463.310546875
            ]
        },
        {
            "mesh" : 2,
            "name" : "Obj3d66-604642-4-232",
            "translation" : [
                2048.638671875,
                4075.6142578125,
                8301.556640625
            ]
        },
        {
            "mesh" : 3,
            "name" : "Obj3d66-604642-5-575",
            "translation" : [
                -2048.6416015625,
                4075.6142578125,
                8301.556640625
            ]
        },
        {
            "children" : [
                14,
                15,
                16,
                17
            ],
            "mesh" : 4,
            "name" : "Obj3d66-604642-1-200",
            "scale" : [
                0.00042125702020712197,
                0.00042125702020712197,
                0.00042125702020712197
            ],
            "translation" : [
                -5.261246681213379,
                3.7969977855682373,
                4.3296284675598145
            ]
        },
        {
            "name" : "Camera001",
            "rotation" : [
                0.6874634027481079,
                -0.24213983118534088,
                0.16551145911216736,
                0.6643555760383606
            ],
            "scale" : [
                0.0010000000474974513,
                0.0010000000474974513,
                0.0010000000474974513
            ],
            "translation" : [
                4.265763759613037,
                2.776193141937256,
                11.822609901428223
            ]
        },
        {
            "name" : "Camera001.Target",
            "rotation" : [
                0.6573287844657898,
                0.3148912489414215,
                -0.3527359962463379,
                0.5868046283721924
            ],
            "scale" : [
                0.0010000000474974513,
                0.0010000000474974513,
                0.0010000000474974513
            ],
            "translation" : [
                -6.042728900909424,
                4.183211326599121,
                4.983470916748047
            ]
        }
    ],
    "animations" : [
        {
            "channels" : [
                {
                    "sampler" : 0,
                    "target" : {
                        "node" : 12,
                        "path" : "translation"
                    }
                },
                {
                    "sampler" : 1,
                    "target" : {
                        "node" : 12,
                        "path" : "rotation"
                    }
                },
                {
                    "sampler" : 2,
                    "target" : {
                        "node" : 12,
                        "path" : "scale"
                    }
                }
            ],
            "name" : "(VR)\u592a\u9633001|Take 001|BaseLayer",
            "samplers" : [
                {
                    "input" : 20,
                    "interpolation" : "LINEAR",
                    "output" : 21
                },
                {
                    "input" : 20,
                    "interpolation" : "LINEAR",
                    "output" : 22
                },
                {
                    "input" : 20,
                    "interpolation" : "LINEAR",
                    "output" : 23
                }
            ]
        }
    ],
    "materials" : [
        {
            "doubleSided" : true,
            "name" : "Mat3d66-604642-2-490",
            "pbrMetallicRoughness" : {
                "baseColorFactor" : [
                    0.917647123336792,
                    0.8509804606437683,
                    0.686274528503418,
                    1
                ],
                "metallicFactor" : 1,
                "roughnessFactor" : 0.8768855333328247
            }
        },
        {
            "doubleSided" : true,
            "name" : "Mat3d66-604642-3-212",
            "pbrMetallicRoughness" : {
                "baseColorFactor" : [
                    0,
                    0,
                    0,
                    1
                ],
                "roughnessFactor" : 0
            }
        },
        {
            "doubleSided" : true,
            "name" : "Mat3d66-604642-1-243",
            "pbrMetallicRoughness" : {
                "baseColorFactor" : [
                    0.4292253851890564,
                    0.3613179922103882,
                    0.24361248314380646,
                    1
                ],
                "metallicFactor" : 1,
                "roughnessFactor" : 0.47219687700271606
            }
        }
    ],
    "meshes" : [
        {
            "name" : "\u041c\u0435\u0448.001",
            "primitives" : [
                {
                    "attributes" : {
                        "POSITION" : 0,
                        "NORMAL" : 1,
                        "TEXCOORD_0" : 2
                    },
                    "indices" : 3,
                    "material" : 0
                }
            ]
        },
        {
            "name" : "\u041c\u0435\u0448.002",
            "primitives" : [
                {
                    "attributes" : {
                        "POSITION" : 4,
                        "NORMAL" : 5,
                        "TEXCOORD_0" : 6
                    },
                    "indices" : 7,
                    "material" : 0
                }
            ]
        },
        {
            "name" : "\u041c\u0435\u0448.003",
            "primitives" : [
                {
                    "attributes" : {
                        "POSITION" : 8,
                        "NORMAL" : 9,
                        "TEXCOORD_0" : 10
                    },
                    "indices" : 11,
                    "material" : 1
                }
            ]
        },
        {
            "name" : "\u041c\u0435\u0448.004",
            "primitives" : [
                {
                    "attributes" : {
                        "POSITION" : 12,
                        "NORMAL" : 13,
                        "TEXCOORD_0" : 14
                    },
                    "indices" : 15,
                    "material" : 1
                }
            ]
        },
        {
            "name" : "\u041c\u0435\u0448",
            "primitives" : [
                {
                    "attributes" : {
                        "POSITION" : 16,
                        "NORMAL" : 17,
                        "TEXCOORD_0" : 18
                    },
                    "indices" : 19,
                    "material" : 2
                }
            ]
        }
    ],
    "accessors" : [
        {
            "bufferView" : 0,
            "componentType" : 5126,
            "count" : 377,
            "max" : [
                1153.490966796875,
                1226.6005859375,
                3667.9873046875
            ],
            "min" : [
                -1511.7301025390625,
                -1582.0615234375,
                -3687.6357421875
            ],
            "type" : "VEC3"
        },
        {
            "bufferView" : 1,
            "componentType" : 5126,
            "count" : 377,
            "type" : "VEC3"
        },
        {
            "bufferView" : 2,
            "componentType" : 5126,
            "count" : 377,
            "type" : "VEC2"
        },
        {
            "bufferView" : 3,
            "componentType" : 5123,
            "count" : 1632,
            "type" : "SCALAR"
        },
        {
            "bufferView" : 4,
            "componentType" : 5126,
            "count" : 376,
            "max" : [
                1511.731201171875,
                1226.6005859375,
                3667.9912109375
            ],
            "min" : [
                -1153.490478515625,
                -1582.0625,
                -3687.6337890625
            ],
            "type" : "VEC3"
        },
        {
            "bufferView" : 5,
            "componentType" : 5126,
            "count" : 376,
            "type" : "VEC3"
        },
        {
            "bufferView" : 6,
            "componentType" : 5126,
            "count" : 376,
            "type" : "VEC2"
        },
        {
            "bufferView" : 7,
            "componentType" : 5123,
            "count" : 1632,
            "type" : "SCALAR"
        },
        {
            "bufferView" : 8,
            "componentType" : 5126,
            "count" : 161,
            "max" : [
                192.74560546875,
                282.6005859375,
                324.4677734375
            ],
            "min" : [
                -192.745361328125,
                -282.603515625,
                -324.4697265625
            ],
            "type" : "VEC3"
        },
        {
            "bufferView" : 9,
            "componentType" : 5126,
            "count" : 161,
            "type" : "VEC3"
        },
        {
            "bufferView" : 10,
            "componentType" : 5126,
            "count" : 161,
            "type" : "VEC2"
        },
        {
            "bufferView" : 11,
            "componentType" : 5123,
            "count" : 864,
            "type" : "SCALAR"
        },
        {
            "bufferView" : 12,
            "componentType" : 5126,
            "count" : 161,
            "max" : [
                192.745361328125,
                282.6005859375,
                324.4677734375
            ],
            "min" : [
                -192.74560546875,
                -282.603515625,
                -324.4697265625
            ],
            "type" : "VEC3"
        },
        {
            "bufferView" : 13,
            "componentType" : 5126,
            "count" : 161,
            "type" : "VEC3"
        },
        {
            "bufferView" : 14,
            "componentType" : 5126,
            "count" : 161,
            "type" : "VEC2"
        },
        {
            "bufferView" : 15,
            "componentType" : 5123,
            "count" : 864,
            "type" : "SCALAR"
        },
        {
            "bufferView" : 16,
            "componentType" : 5126,
            "count" : 19734,
            "max" : [
                6939.84619140625,
                9100.8583984375,
                12619.6787109375
            ],
            "min" : [
                -6939.84619140625,
                -9100.857421875,
                -12619.6787109375
            ],
            "type" : "VEC3"
        },
        {
            "bufferView" : 17,
            "componentType" : 5126,
            "count" : 19734,
            "type" : "VEC3"
        },
        {
            "bufferView" : 18,
            "componentType" : 5126,
            "count" : 19734,
            "type" : "VEC2"
        },
        {
            "bufferView" : 19,
            "componentType" : 5123,
            "count" : 112878,
            "type" : "SCALAR"
        },
        {
            "bufferView" : 20,
            "componentType" : 5126,
            "count" : 101,
            "max" : [
                3.3666666666666667
            ],
            "min" : [
                0.03333333333333333
            ],
            "type" : "SCALAR"
        },
        {
            "bufferView" : 21,
            "componentType" : 5126,
            "count" : 101,
            "type" : "VEC3"
        },
        {
            "bufferView" : 22,
            "componentType" : 5126,
            "count" : 101,
            "type" : "VEC4"
        },
        {
            "bufferView" : 23,
            "componentType" : 5126,
            "count" : 101,
            "type" : "VEC3"
        }
    ],
    "bufferViews" : [
        {
            "buffer" : 0,
            "byteLength" : 4524,
            "byteOffset" : 0
        },
        {
            "buffer" : 0,
            "byteLength" : 4524,
            "byteOffset" : 4524
        },
        {
            "buffer" : 0,
            "byteLength" : 3016,
            "byteOffset" : 9048
        },
        {
            "buffer" : 0,
            "byteLength" : 3264,
            "byteOffset" : 12064
        },
        {
            "buffer" : 0,
            "byteLength" : 4512,
            "byteOffset" : 15328
        },
        {
            "buffer" : 0,
            "byteLength" : 4512,
            "byteOffset" : 19840
        },
        {
            "buffer" : 0,
            "byteLength" : 3008,
            "byteOffset" : 24352
        },
        {
            "buffer" : 0,
            "byteLength" : 3264,
            "byteOffset" : 27360
        },
        {
            "buffer" : 0,
            "byteLength" : 1932,
            "byteOffset" : 30624
        },
        {
            "buffer" : 0,
            "byteLength" : 1932,
            "byteOffset" : 32556
        },
        {
            "buffer" : 0,
            "byteLength" : 1288,
            "byteOffset" : 34488
        },
        {
            "buffer" : 0,
            "byteLength" : 1728,
            "byteOffset" : 35776
        },
        {
            "buffer" : 0,
            "byteLength" : 1932,
            "byteOffset" : 37504
        },
        {
            "buffer" : 0,
            "byteLength" : 1932,
            "byteOffset" : 39436
        },
        {
            "buffer" : 0,
            "byteLength" : 1288,
            "byteOffset" : 41368
        },
        {
            "buffer" : 0,
            "byteLength" : 1728,
            "byteOffset" : 42656
        },
        {
            "buffer" : 0,
            "byteLength" : 236808,
            "byteOffset" : 44384
        },
        {
            "buffer" : 0,
            "byteLength" : 236808,
            "byteOffset" : 281192
        },
        {
            "buffer" : 0,
            "byteLength" : 157872,
            "byteOffset" : 518000
        },
        {
            "buffer" : 0,
            "byteLength" : 225756,
            "byteOffset" : 675872
        },
        {
            "buffer" : 0,
            "byteLength" : 404,
            "byteOffset" : 901628
        },
        {
            "buffer" : 0,
            "byteLength" : 1212,
            "byteOffset" : 902032
        },
        {
            "buffer" : 0,
            "byteLength" : 1616,
            "byteOffset" : 903244
        },
        {
            "buffer" : 0,
            "byteLength" : 1212,
            "byteOffset" : 904860
        }
    ],
    "buffers" : [
        {
            "byteLength" : 906072,
            "uri" : "data:application/octet-stream;base64,"
        }
    ]
}
