{
    "asset" : {
        "generator" : "Khronos glTF Blender I/O v1.4.40",
        "version" : "2.0"
    },
    "scene" : 0,
    "scenes" : [
        {
            "name" : "Scene",
            "nodes" : [
                0,
                1,
                2,
                3,
                4,
                5,
                6,
                8,
                9
            ]
        }
    ],
    "nodes" : [
        {
            "name" : "Sun.005",
            "rotation" : [
                -0.27059805393218994,
                -0.6532815098762512,
                0.27059802412986755,
                0.6532814502716064
            ],
            "translation" : [
                -0.0036705732345581055,
                24.262561798095703,
                -22.62790298461914
            ]
        },
        {
            "name" : "Sun.004",
            "rotation" : [
                0.27059805393218994,
                -0.6532814502716064,
                -0.27059805393218994,
                0.6532815098762512
            ],
            "translation" : [
                -0.003672480583190918,
                24.262561798095703,
                22.62790298461914
            ]
        },
        {
            "name" : "Sun.003",
            "rotation" : [
                0,
                0,
                -0.3826834559440613,
                0.9238795042037964
            ],
            "translation" : [
                22.62423324584961,
                24.262561798095703,
                0
            ]
        },
        {
            "name" : "Sun",
            "rotation" : [
                -0.003283117664977908,
                0.1558266282081604,
                -0.2279982566833496,
                0.9611057639122009
            ],
            "translation" : [
                0,
                31.020870208740234,
                0
            ]
        },
        {
            "name" : "Camera",
            "rotation" : [
                0.5726650953292847,
                -0.4006114602088928,
                0.37772640585899353,
                0.6073616147041321
            ],
            "translation" : [
                -0.5283805727958679,
                0.12253788858652115,
                0.23885178565979004
            ]
        },
        {
            "name" : "Sun.001",
            "rotation" : [
                0,
                0,
                -1,
                -1.6292068494294654e-07
            ],
            "translation" : [
                0,
                -29.613393783569336,
                0
            ]
        },
        {
            "name" : "Sun.002",
            "rotation" : [
                0,
                0,
                0.3826834559440613,
                0.9238795042037964
            ],
            "translation" : [
                -22.631574630737305,
                24.262561798095703,
                0
            ]
        },
        {
            "mesh" : 0,
            "name" : "Chaynik-Ruchka",
            "scale" : [
                12.90322494506836,
                1,
                12.90322494506836
            ],
            "translation" : [
                0,
                0.13199998438358307,
                0
            ]
        },
        {
            "children" : [
                7
            ],
            "mesh" : 1,
            "name" : "Chaynik",
            "scale" : [
                0.07750000059604645,
                1,
                0.07750000059604645
            ]
        },
        {
            "mesh" : 2,
            "name" : "Chaynik-Krishka",
            "scale" : [
                0.032640788704156876,
                1,
                0.032640788704156876
            ]
        }
    ],
    "materials" : [
        {
            "doubleSided" : true,
            "name" : "Chaynik_Me_Bl",
            "pbrMetallicRoughness" : {
                "baseColorFactor" : [
                    0,
                    0,
                    0,
                    1
                ],
                "metallicFactor" : 0,
                "roughnessFactor" : 0.5
            }
        },
        {
            "doubleSided" : true,
            "name" : "Chaynik_Me",
            "pbrMetallicRoughness" : {
                "baseColorFactor" : [
                    0.46720051765441895,
                    0.424506813287735,
                    0.3732881546020508,
                    1
                ],
                "metallicFactor" : 0,
                "roughnessFactor" : 0.5
            }
        },
        {
            "doubleSided" : true,
            "name" : "Chaynik-Korpus",
            "pbrMetallicRoughness" : {
                "baseColorFactor" : [
                    1,
                    1,
                    1,
                    1
                ],
                "metallicFactor" : 0,
                "roughnessFactor" : 0.5
            }
        },
        {
            "doubleSided" : true,
            "name" : "Chaynik-Nakip",
            "pbrMetallicRoughness" : {
                "baseColorFactor" : [
                    0.7105527520179749,
                    0.6401620507240295,
                    0.41094380617141724,
                    1
                ],
                "metallicFactor" : 0,
                "roughnessFactor" : 0.5
            }
        },
        {
            "doubleSided" : true,
            "name" : "Chaynik-Krishka",
            "pbrMetallicRoughness" : {
                "baseColorFactor" : [
                    0,
                    0,
                    0,
                    1
                ],
                "metallicFactor" : 0,
                "roughnessFactor" : 0.5
            }
        }
    ],
    "meshes" : [
        {
            "name" : "Chaynik-Ruchka",
            "primitives" : [
                {
                    "attributes" : {
                        "POSITION" : 0,
                        "NORMAL" : 1,
                        "TEXCOORD_0" : 2
                    },
                    "indices" : 3,
                    "material" : 0
                },
                {
                    "attributes" : {
                        "POSITION" : 4,
                        "NORMAL" : 5,
                        "TEXCOORD_0" : 6
                    },
                    "indices" : 7,
                    "material" : 1
                }
            ]
        },
        {
            "name" : "Chaynik",
            "primitives" : [
                {
                    "attributes" : {
                        "POSITION" : 8,
                        "NORMAL" : 9,
                        "TEXCOORD_0" : 10
                    },
                    "indices" : 11,
                    "material" : 2
                },
                {
                    "attributes" : {
                        "POSITION" : 12,
                        "NORMAL" : 13,
                        "TEXCOORD_0" : 14
                    },
                    "indices" : 15,
                    "material" : 0
                },
                {
                    "attributes" : {
                        "POSITION" : 16,
                        "NORMAL" : 17,
                        "TEXCOORD_0" : 18
                    },
                    "indices" : 19,
                    "material" : 3
                }
            ]
        },
        {
            "name" : "Chaynik-Krishka",
            "primitives" : [
                {
                    "attributes" : {
                        "POSITION" : 20,
                        "NORMAL" : 21,
                        "TEXCOORD_0" : 22
                    },
                    "indices" : 23,
                    "material" : 2
                },
                {
                    "attributes" : {
                        "POSITION" : 24,
                        "NORMAL" : 25,
                        "TEXCOORD_0" : 26
                    },
                    "indices" : 27,
                    "material" : 3
                },
                {
                    "attributes" : {
                        "POSITION" : 28,
                        "NORMAL" : 29,
                        "TEXCOORD_0" : 30
                    },
                    "indices" : 31,
                    "material" : 4
                }
            ]
        }
    ],
    "accessors" : [
        {
            "bufferView" : 0,
            "componentType" : 5126,
            "count" : 996,
            "max" : [
                0.009818082675337791,
                0.10022123903036118,
                0.08861391991376877
            ],
            "min" : [
                -0.009818087331950665,
                -0.008369304239749908,
                -0.08861391991376877
            ],
            "type" : "VEC3"
        },
        {
            "bufferView" : 1,
            "componentType" : 5126,
            "count" : 996,
            "type" : "VEC3"
        },
        {
            "bufferView" : 2,
            "componentType" : 5126,
            "count" : 996,
            "type" : "VEC2"
        },
        {
            "bufferView" : 3,
            "componentType" : 5123,
            "count" : 5766,
            "type" : "SCALAR"
        },
        {
            "bufferView" : 4,
            "componentType" : 5126,
            "count" : 7804,
            "max" : [
                0.005542275495827198,
                0.005542270839214325,
                0.08947289735078812
            ],
            "min" : [
                -0.005542275495827198,
                -0.005542278289794922,
                -0.08947289735078812
            ],
            "type" : "VEC3"
        },
        {
            "bufferView" : 5,
            "componentType" : 5126,
            "count" : 7804,
            "type" : "VEC3"
        },
        {
            "bufferView" : 6,
            "componentType" : 5126,
            "count" : 7804,
            "type" : "VEC2"
        },
        {
            "bufferView" : 7,
            "componentType" : 5123,
            "count" : 13008,
            "type" : "SCALAR"
        },
        {
            "bufferView" : 8,
            "componentType" : 5126,
            "count" : 5207,
            "max" : [
                1.0322580337524414,
                0.1419992744922638,
                1.7955386638641357
            ],
            "min" : [
                -1.0322577953338623,
                3.725290298461914e-09,
                -1.1406188011169434
            ],
            "type" : "VEC3"
        },
        {
            "bufferView" : 9,
            "componentType" : 5126,
            "count" : 5207,
            "type" : "VEC3"
        },
        {
            "bufferView" : 10,
            "componentType" : 5126,
            "count" : 5207,
            "type" : "VEC2"
        },
        {
            "bufferView" : 11,
            "componentType" : 5123,
            "count" : 26280,
            "type" : "SCALAR"
        },
        {
            "bufferView" : 12,
            "componentType" : 5126,
            "count" : 903,
            "max" : [
                1.0117480754852295,
                0.130863219499588,
                1.011748194694519
            ],
            "min" : [
                -1.0117480754852295,
                0.1250072717666626,
                -1.0117478370666504
            ],
            "type" : "VEC3"
        },
        {
            "bufferView" : 13,
            "componentType" : 5126,
            "count" : 903,
            "type" : "VEC3"
        },
        {
            "bufferView" : 14,
            "componentType" : 5126,
            "count" : 903,
            "type" : "VEC2"
        },
        {
            "bufferView" : 15,
            "componentType" : 5123,
            "count" : 3840,
            "type" : "SCALAR"
        },
        {
            "bufferView" : 16,
            "componentType" : 5126,
            "count" : 2694,
            "max" : [
                1.0205175876617432,
                0.12861642241477966,
                1.7919859886169434
            ],
            "min" : [
                -1.020517349243164,
                0.002449285238981247,
                -1.020517349243164
            ],
            "type" : "VEC3"
        },
        {
            "bufferView" : 17,
            "componentType" : 5126,
            "count" : 2694,
            "type" : "VEC3"
        },
        {
            "bufferView" : 18,
            "componentType" : 5126,
            "count" : 2694,
            "type" : "VEC2"
        },
        {
            "bufferView" : 19,
            "componentType" : 5123,
            "count" : 13722,
            "type" : "SCALAR"
        },
        {
            "bufferView" : 20,
            "componentType" : 5126,
            "count" : 2688,
            "max" : [
                2.379854679107666,
                0.1343657374382019,
                2.379854679107666
            ],
            "min" : [
                -2.379854679107666,
                0.11192993819713593,
                -2.379854679107666
            ],
            "type" : "VEC3"
        },
        {
            "bufferView" : 21,
            "componentType" : 5126,
            "count" : 2688,
            "type" : "VEC3"
        },
        {
            "bufferView" : 22,
            "componentType" : 5126,
            "count" : 2688,
            "type" : "VEC2"
        },
        {
            "bufferView" : 23,
            "componentType" : 5123,
            "count" : 14970,
            "type" : "SCALAR"
        },
        {
            "bufferView" : 24,
            "componentType" : 5126,
            "count" : 2176,
            "max" : [
                2.3585898876190186,
                0.13334599137306213,
                2.3585898876190186
            ],
            "min" : [
                -2.3585898876190186,
                0.11091019213199615,
                -2.3585898876190186
            ],
            "type" : "VEC3"
        },
        {
            "bufferView" : 25,
            "componentType" : 5126,
            "count" : 2176,
            "type" : "VEC3"
        },
        {
            "bufferView" : 26,
            "componentType" : 5126,
            "count" : 2176,
            "type" : "VEC2"
        },
        {
            "bufferView" : 27,
            "componentType" : 5123,
            "count" : 12666,
            "type" : "SCALAR"
        },
        {
            "bufferView" : 28,
            "componentType" : 5126,
            "count" : 2560,
            "max" : [
                0.84250408411026,
                0.15112468600273132,
                0.8425041437149048
            ],
            "min" : [
                -0.8425042033195496,
                0.12192994356155396,
                -0.8425041437149048
            ],
            "type" : "VEC3"
        },
        {
            "bufferView" : 29,
            "componentType" : 5126,
            "count" : 2560,
            "type" : "VEC3"
        },
        {
            "bufferView" : 30,
            "componentType" : 5126,
            "count" : 2560,
            "type" : "VEC2"
        },
        {
            "bufferView" : 31,
            "componentType" : 5123,
            "count" : 14580,
            "type" : "SCALAR"
        }
    ],
    "bufferViews" : [
        {
            "buffer" : 0,
            "byteLength" : 11952,
            "byteOffset" : 0
        },
        {
            "buffer" : 0,
            "byteLength" : 11952,
            "byteOffset" : 11952
        },
        {
            "buffer" : 0,
            "byteLength" : 7968,
            "byteOffset" : 23904
        },
        {
            "buffer" : 0,
            "byteLength" : 11532,
            "byteOffset" : 31872
        },
        {
            "buffer" : 0,
            "byteLength" : 93648,
            "byteOffset" : 43404
        },
        {
            "buffer" : 0,
            "byteLength" : 93648,
            "byteOffset" : 137052
        },
        {
            "buffer" : 0,
            "byteLength" : 62432,
            "byteOffset" : 230700
        },
        {
            "buffer" : 0,
            "byteLength" : 26016,
            "byteOffset" : 293132
        },
        {
            "buffer" : 0,
            "byteLength" : 62484,
            "byteOffset" : 319148
        },
        {
            "buffer" : 0,
            "byteLength" : 62484,
            "byteOffset" : 381632
        },
        {
            "buffer" : 0,
            "byteLength" : 41656,
            "byteOffset" : 444116
        },
        {
            "buffer" : 0,
            "byteLength" : 52560,
            "byteOffset" : 485772
        },
        {
            "buffer" : 0,
            "byteLength" : 10836,
            "byteOffset" : 538332
        },
        {
            "buffer" : 0,
            "byteLength" : 10836,
            "byteOffset" : 549168
        },
        {
            "buffer" : 0,
            "byteLength" : 7224,
            "byteOffset" : 560004
        },
        {
            "buffer" : 0,
            "byteLength" : 7680,
            "byteOffset" : 567228
        },
        {
            "buffer" : 0,
            "byteLength" : 32328,
            "byteOffset" : 574908
        },
        {
            "buffer" : 0,
            "byteLength" : 32328,
            "byteOffset" : 607236
        },
        {
            "buffer" : 0,
            "byteLength" : 21552,
            "byteOffset" : 639564
        },
        {
            "buffer" : 0,
            "byteLength" : 27444,
            "byteOffset" : 661116
        },
        {
            "buffer" : 0,
            "byteLength" : 32256,
            "byteOffset" : 688560
        },
        {
            "buffer" : 0,
            "byteLength" : 32256,
            "byteOffset" : 720816
        },
        {
            "buffer" : 0,
            "byteLength" : 21504,
            "byteOffset" : 753072
        },
        {
            "buffer" : 0,
            "byteLength" : 29940,
            "byteOffset" : 774576
        },
        {
            "buffer" : 0,
            "byteLength" : 26112,
            "byteOffset" : 804516
        },
        {
            "buffer" : 0,
            "byteLength" : 26112,
            "byteOffset" : 830628
        },
        {
            "buffer" : 0,
            "byteLength" : 17408,
            "byteOffset" : 856740
        },
        {
            "buffer" : 0,
            "byteLength" : 25332,
            "byteOffset" : 874148
        },
        {
            "buffer" : 0,
            "byteLength" : 30720,
            "byteOffset" : 899480
        },
        {
            "buffer" : 0,
            "byteLength" : 30720,
            "byteOffset" : 930200
        },
        {
            "buffer" : 0,
            "byteLength" : 20480,
            "byteOffset" : 960920
        },
        {
            "buffer" : 0,
            "byteLength" : 29160,
            "byteOffset" : 981400
        }
    ],
    "buffers" : [
        {
            "byteLength" : 1010560,
            "uri" : "data:application/octet-stream;base64,"
        }
    ]
}
