{
    "asset" : {
        "generator" : "Khronos glTF Blender I/O v1.4.40",
        "version" : "2.0"
    },
    "scene" : 0,
    "scenes" : [
        {
            "name" : "Scene",
            "nodes" : [
                0
            ]
        }
    ],
    "nodes" : [
        {
            "mesh" : 0,
            "name" : "14024_Rotary_Phone_on_Base_v1_l2",
            "rotation" : [
                0.05874023586511612,
                0.633189857006073,
                -0.048287712037563324,
                0.7702523469924927
            ]
        }
    ],
    "materials" : [
        {
            "doubleSided" : true,
            "name" : "14024_Rotary_Phone_on_Base_v1",
            "pbrMetallicRoughness" : {
                "baseColorTexture" : {
                    "index" : 0,
                    "texCoord" : 0
                },
                "metallicFactor" : 0,
                "roughnessFactor" : 0.820494532585144
            }
        }
    ],
    "meshes" : [
        {
            "name" : "14024_Rotary_Phone_on_Base_v1_l2",
            "primitives" : [
                {
                    "attributes" : {
                        "POSITION" : 0,
                        "NORMAL" : 1,
                        "TEXCOORD_0" : 2
                    },
                    "indices" : 3,
                    "material" : 0
                }
            ]
        }
    ],
    "textures" : [
        {
            "sampler" : 0,
            "source" : 0
        }
    ],
    "images" : [
        {
            "bufferView" : 4,
            "mimeType" : "image/jpeg",
            "name" : "14024_Rotary_Phone_on_Base_v1_diff"
        }
    ],
    "accessors" : [
        {
            "bufferView" : 0,
            "componentType" : 5126,
            "count" : 32414,
            "max" : [
                16.126399993896484,
                21.359899520874023,
                10.237099647521973
            ],
            "min" : [
                -25.12540054321289,
                0.08659999817609787,
                -19.671899795532227
            ],
            "type" : "VEC3"
        },
        {
            "bufferView" : 1,
            "componentType" : 5126,
            "count" : 32414,
            "type" : "VEC3"
        },
        {
            "bufferView" : 2,
            "componentType" : 5126,
            "count" : 32414,
            "type" : "VEC2"
        },
        {
            "bufferView" : 3,
            "componentType" : 5123,
            "count" : 174984,
            "type" : "SCALAR"
        }
    ],
    "bufferViews" : [
        {
            "buffer" : 0,
            "byteLength" : 388968,
            "byteOffset" : 0
        },
        {
            "buffer" : 0,
            "byteLength" : 388968,
            "byteOffset" : 388968
        },
        {
            "buffer" : 0,
            "byteLength" : 259312,
            "byteOffset" : 777936
        },
        {
            "buffer" : 0,
            "byteLength" : 349968,
            "byteOffset" : 1037248
        },
        {
            "buffer" : 0,
            "byteLength" : 372143,
            "byteOffset" : 1387216
        }
    ],
    "samplers" : [
        {
            "magFilter" : 9729,
            "minFilter" : 9986
        }
    ],
    "buffers" : [
        {
            "byteLength" : 1759360,
            "uri" : "data:application/octet-stream;base64,"
        }
    ]
}
