{
    "asset" : {
        "generator" : "Khronos glTF Blender I/O v1.4.40",
        "version" : "2.0"
    },
    "scene" : 0,
    "scenes" : [
        {
            "name" : "Scene",
            "nodes" : [
                0
            ]
        }
    ],
    "nodes" : [
        {
            "mesh" : 0,
            "name" : "Circus Tent",
            "scale" : [
                0.041115641593933105,
                0.041115641593933105,
                0.041115641593933105
            ],
            "translation" : [
                0,
                15.610185623168945,
                -0.000793212850112468
            ]
        }
    ],
    "materials" : [
        {
            "doubleSided" : true,
            "name" : "bakedMaterial",
            "pbrMetallicRoughness" : {
                "baseColorTexture" : {
                    "index" : 0,
                    "texCoord" : 0
                },
                "metallicFactor" : 0,
                "roughnessFactor" : 0.5
            }
        }
    ],
    "meshes" : [
        {
            "name" : "Sphere.002",
            "primitives" : [
                {
                    "attributes" : {
                        "POSITION" : 0,
                        "NORMAL" : 1,
                        "TEXCOORD_0" : 2
                    },
                    "indices" : 3,
                    "material" : 0
                }
            ]
        }
    ],
    "textures" : [
        {
            "sampler" : 0,
            "source" : 0
        }
    ],
    "images" : [
        {
            "bufferView" : 4,
            "mimeType" : "image/jpeg",
            "name" : "clp2491987"
        }
    ],
    "accessors" : [
        {
            "bufferView" : 0,
            "componentType" : 5126,
            "count" : 4699,
            "max" : [
                377.1353759765625,
                39.494598388671875,
                377.1546630859375
            ],
            "min" : [
                -377.1353759765625,
                -379.736572265625,
                -377.1160888671875
            ],
            "type" : "VEC3"
        },
        {
            "bufferView" : 1,
            "componentType" : 5126,
            "count" : 4699,
            "type" : "VEC3"
        },
        {
            "bufferView" : 2,
            "componentType" : 5126,
            "count" : 4699,
            "type" : "VEC2"
        },
        {
            "bufferView" : 3,
            "componentType" : 5123,
            "count" : 7137,
            "type" : "SCALAR"
        }
    ],
    "bufferViews" : [
        {
            "buffer" : 0,
            "byteLength" : 56388,
            "byteOffset" : 0
        },
        {
            "buffer" : 0,
            "byteLength" : 56388,
            "byteOffset" : 56388
        },
        {
            "buffer" : 0,
            "byteLength" : 37592,
            "byteOffset" : 112776
        },
        {
            "buffer" : 0,
            "byteLength" : 14274,
            "byteOffset" : 150368
        },
        {
            "buffer" : 0,
            "byteLength" : 158076,
            "byteOffset" : 164644
        }
    ],
    "samplers" : [
        {
            "magFilter" : 9729,
            "minFilter" : 9986
        }
    ],
    "buffers" : [
        {
            "byteLength" : 322720,
            "uri" : "data:application/octet-stream;base64,"
        }
    ]
}
