{
    "asset" : {
        "generator" : "Khronos glTF Blender I/O v1.4.40",
        "version" : "2.0"
    },
    "extensionsUsed" : [
        "KHR_texture_transform"
    ],
    "extensionsRequired" : [
        "KHR_texture_transform"
    ],
    "scene" : 0,
    "scenes" : [
        {
            "name" : "Scene",
            "nodes" : [
                0
            ]
        }
    ],
    "nodes" : [
        {
            "mesh" : 0,
            "name" : "snail",
            "rotation" : [
                0.07560506463050842,
                0,
                0,
                0.9971378445625305
            ],
            "scale" : [
                0.4319179058074951,
                0.4319179058074951,
                0.4319179058074951
            ]
        }
    ],
    "materials" : [
        {
            "doubleSided" : true,
            "name" : "SNALHORN",
            "normalTexture" : {
                "index" : 0,
                "scale" : 1.5,
                "texCoord" : 0
            },
            "pbrMetallicRoughness" : {
                "baseColorTexture" : {
                    "index" : 1,
                    "texCoord" : 0
                },
                "metallicFactor" : 0
            }
        },
        {
            "doubleSided" : true,
            "name" : "SNALSKIN",
            "normalTexture" : {
                "extensions" : {
                    "KHR_texture_transform" : {
                        "offset" : [
                            0,
                            0.8
                        ],
                        "scale" : [
                            0.2,
                            0.2
                        ]
                    }
                },
                "index" : 2,
                "scale" : 2.5,
                "texCoord" : 0
            },
            "pbrMetallicRoughness" : {
                "baseColorTexture" : {
                    "extensions" : {
                        "KHR_texture_transform" : {
                            "offset" : [
                                0,
                                0.8
                            ],
                            "scale" : [
                                0.2,
                                0.2
                            ]
                        }
                    },
                    "index" : 3,
                    "texCoord" : 0
                },
                "metallicFactor" : 0,
                "roughnessFactor" : 0.7211133241653442
            }
        },
        {
            "doubleSided" : true,
            "name" : "SNALCONC",
            "normalTexture" : {
                "index" : 4,
                "scale" : 0.6000000238418579,
                "texCoord" : 0
            },
            "pbrMetallicRoughness" : {
                "baseColorTexture" : {
                    "index" : 5,
                    "texCoord" : 0
                },
                "metallicFactor" : 0,
                "roughnessFactor" : 0.7891814708709717
            }
        }
    ],
    "meshes" : [
        {
            "name" : "snail",
            "primitives" : [
                {
                    "attributes" : {
                        "POSITION" : 0,
                        "NORMAL" : 1,
                        "TEXCOORD_0" : 2
                    },
                    "indices" : 3,
                    "material" : 0
                },
                {
                    "attributes" : {
                        "POSITION" : 4,
                        "NORMAL" : 5,
                        "TEXCOORD_0" : 6
                    },
                    "indices" : 7,
                    "material" : 1
                },
                {
                    "attributes" : {
                        "POSITION" : 8,
                        "NORMAL" : 9,
                        "TEXCOORD_0" : 10
                    },
                    "indices" : 11,
                    "material" : 2
                }
            ]
        }
    ],
    "textures" : [
        {
            "sampler" : 0,
            "source" : 0
        },
        {
            "sampler" : 0,
            "source" : 1
        },
        {
            "sampler" : 0,
            "source" : 2
        },
        {
            "sampler" : 0,
            "source" : 1
        },
        {
            "sampler" : 0,
            "source" : 3
        },
        {
            "sampler" : 0,
            "source" : 3
        }
    ],
    "images" : [
        {
            "bufferView" : 4,
            "mimeType" : "image/jpeg",
            "name" : "SNALHORN"
        },
        {
            "bufferView" : 5,
            "mimeType" : "image/jpeg",
            "name" : "LAKEREM"
        },
        {
            "bufferView" : 10,
            "mimeType" : "image/jpeg",
            "name" : "Snalskin"
        },
        {
            "bufferView" : 15,
            "mimeType" : "image/jpeg",
            "name" : "SNALCNC2"
        }
    ],
    "accessors" : [
        {
            "bufferView" : 0,
            "componentType" : 5126,
            "count" : 3892,
            "max" : [
                46.96870040893555,
                290.2366027832031,
                -230.03810119628906
            ],
            "min" : [
                -89.56829833984375,
                183.38690185546875,
                -368.51849365234375
            ],
            "type" : "VEC3"
        },
        {
            "bufferView" : 1,
            "componentType" : 5126,
            "count" : 3892,
            "type" : "VEC3"
        },
        {
            "bufferView" : 2,
            "componentType" : 5126,
            "count" : 3892,
            "type" : "VEC2"
        },
        {
            "bufferView" : 3,
            "componentType" : 5123,
            "count" : 22923,
            "type" : "SCALAR"
        },
        {
            "bufferView" : 6,
            "componentType" : 5126,
            "count" : 14363,
            "max" : [
                72.22669982910156,
                272.7817077636719,
                368.51849365234375
            ],
            "min" : [
                -114.75,
                0,
                -324.0679931640625
            ],
            "type" : "VEC3"
        },
        {
            "bufferView" : 7,
            "componentType" : 5126,
            "count" : 14363,
            "type" : "VEC3"
        },
        {
            "bufferView" : 8,
            "componentType" : 5126,
            "count" : 14363,
            "type" : "VEC2"
        },
        {
            "bufferView" : 9,
            "componentType" : 5123,
            "count" : 67137,
            "type" : "SCALAR"
        },
        {
            "bufferView" : 11,
            "componentType" : 5126,
            "count" : 17199,
            "max" : [
                133.34210205078125,
                390.5484924316406,
                306.739990234375
            ],
            "min" : [
                -154.7071990966797,
                70.70390319824219,
                -152.56129455566406
            ],
            "type" : "VEC3"
        },
        {
            "bufferView" : 12,
            "componentType" : 5126,
            "count" : 17199,
            "type" : "VEC3"
        },
        {
            "bufferView" : 13,
            "componentType" : 5126,
            "count" : 17199,
            "type" : "VEC2"
        },
        {
            "bufferView" : 14,
            "componentType" : 5123,
            "count" : 101238,
            "type" : "SCALAR"
        }
    ],
    "bufferViews" : [
        {
            "buffer" : 0,
            "byteLength" : 46704,
            "byteOffset" : 0
        },
        {
            "buffer" : 0,
            "byteLength" : 46704,
            "byteOffset" : 46704
        },
        {
            "buffer" : 0,
            "byteLength" : 31136,
            "byteOffset" : 93408
        },
        {
            "buffer" : 0,
            "byteLength" : 45846,
            "byteOffset" : 124544
        },
        {
            "buffer" : 0,
            "byteLength" : 308634,
            "byteOffset" : 170392
        },
        {
            "buffer" : 0,
            "byteLength" : 130856,
            "byteOffset" : 479028
        },
        {
            "buffer" : 0,
            "byteLength" : 172356,
            "byteOffset" : 609884
        },
        {
            "buffer" : 0,
            "byteLength" : 172356,
            "byteOffset" : 782240
        },
        {
            "buffer" : 0,
            "byteLength" : 114904,
            "byteOffset" : 954596
        },
        {
            "buffer" : 0,
            "byteLength" : 134274,
            "byteOffset" : 1069500
        },
        {
            "buffer" : 0,
            "byteLength" : 18189,
            "byteOffset" : 1203776
        },
        {
            "buffer" : 0,
            "byteLength" : 206388,
            "byteOffset" : 1221968
        },
        {
            "buffer" : 0,
            "byteLength" : 206388,
            "byteOffset" : 1428356
        },
        {
            "buffer" : 0,
            "byteLength" : 137592,
            "byteOffset" : 1634744
        },
        {
            "buffer" : 0,
            "byteLength" : 202476,
            "byteOffset" : 1772336
        },
        {
            "buffer" : 0,
            "byteLength" : 280179,
            "byteOffset" : 1974812
        }
    ],
    "samplers" : [
        {
            "magFilter" : 9729,
            "minFilter" : 9986
        }
    ],
    "buffers" : [
        {
            "byteLength" : 2254992,
            "uri" : "data:application/octet-stream;base64,"
        }
    ]
}
