{
    "asset" : {
        "generator" : "Khronos glTF Blender I/O v1.4.40",
        "version" : "2.0"
    },
    "scene" : 0,
    "scenes" : [
        {
            "name" : "Scene",
            "nodes" : [
                0
            ]
        }
    ],
    "nodes" : [
        {
            "mesh" : 0,
            "name" : "zebra",
            "rotation" : [
                0.02855772152543068,
                -0.0033533296082168818,
                -0.023343056440353394,
                0.9993139505386353
            ]
        }
    ],
    "materials" : [
        {
            "doubleSided" : true,
            "name" : "ZEBBODY",
            "normalTexture" : {
                "index" : 0,
                "scale" : 0.30000001192092896,
                "texCoord" : 0
            },
            "pbrMetallicRoughness" : {
                "baseColorTexture" : {
                    "index" : 1,
                    "texCoord" : 0
                },
                "metallicFactor" : 0,
                "roughnessFactor" : 0.8174257874488831
            }
        },
        {
            "doubleSided" : true,
            "name" : "ZEBTAIL",
            "normalTexture" : {
                "index" : 2,
                "scale" : 0,
                "texCoord" : 0
            },
            "pbrMetallicRoughness" : {
                "baseColorTexture" : {
                    "index" : 3,
                    "texCoord" : 0
                },
                "metallicFactor" : 0,
                "roughnessFactor" : 0.9666666388511658
            }
        },
        {
            "doubleSided" : true,
            "name" : "ZEBEYE",
            "pbrMetallicRoughness" : {
                "baseColorTexture" : {
                    "index" : 4,
                    "texCoord" : 0
                },
                "metallicFactor" : 0,
                "roughnessFactor" : 0.7312580943107605
            }
        },
        {
            "doubleSided" : true,
            "name" : "ZEBHAIR",
            "normalTexture" : {
                "index" : 5,
                "scale" : 0.05000000074505806,
                "texCoord" : 0
            },
            "pbrMetallicRoughness" : {
                "baseColorTexture" : {
                    "index" : 6,
                    "texCoord" : 0
                },
                "metallicFactor" : 0,
                "roughnessFactor" : 0.9666666388511658
            }
        }
    ],
    "meshes" : [
        {
            "name" : "zebra",
            "primitives" : [
                {
                    "attributes" : {
                        "POSITION" : 0,
                        "NORMAL" : 1,
                        "TEXCOORD_0" : 2
                    },
                    "indices" : 3,
                    "material" : 0
                },
                {
                    "attributes" : {
                        "POSITION" : 4,
                        "NORMAL" : 5,
                        "TEXCOORD_0" : 6
                    },
                    "indices" : 7,
                    "material" : 1
                },
                {
                    "attributes" : {
                        "POSITION" : 8,
                        "NORMAL" : 9,
                        "TEXCOORD_0" : 10
                    },
                    "indices" : 11,
                    "material" : 2
                },
                {
                    "attributes" : {
                        "POSITION" : 12,
                        "NORMAL" : 13,
                        "TEXCOORD_0" : 14
                    },
                    "indices" : 15,
                    "material" : 3
                }
            ]
        }
    ],
    "textures" : [
        {
            "sampler" : 0,
            "source" : 0
        },
        {
            "sampler" : 0,
            "source" : 1
        },
        {
            "sampler" : 0,
            "source" : 2
        },
        {
            "sampler" : 0,
            "source" : 3
        },
        {
            "sampler" : 0,
            "source" : 4
        },
        {
            "sampler" : 0,
            "source" : 5
        },
        {
            "sampler" : 0,
            "source" : 6
        }
    ],
    "images" : [
        {
            "bufferView" : 4,
            "mimeType" : "image/jpeg",
            "name" : "ZEBSKIN"
        },
        {
            "bufferView" : 5,
            "mimeType" : "image/jpeg",
            "name" : "ZEBBODY"
        },
        {
            "bufferView" : 10,
            "mimeType" : "image/jpeg",
            "name" : "ZEBTAIL"
        },
        {
            "bufferView" : 11,
            "mimeType" : "image/png",
            "name" : "ZEBTAIL-ZEBTAILO"
        },
        {
            "bufferView" : 16,
            "mimeType" : "image/jpeg",
            "name" : "LAKEREM"
        },
        {
            "bufferView" : 21,
            "mimeType" : "image/jpeg",
            "name" : "ZEBHAIR"
        },
        {
            "bufferView" : 22,
            "mimeType" : "image/png",
            "name" : "ZEBHAIR-ZEBHAIRO"
        }
    ],
    "accessors" : [
        {
            "bufferView" : 0,
            "componentType" : 5126,
            "count" : 4531,
            "max" : [
                6.946400165557861,
                122.08460235595703,
                169.44679260253906
            ],
            "min" : [
                -31.831300735473633,
                0.0010000000474974513,
                6.374599933624268
            ],
            "type" : "VEC3"
        },
        {
            "bufferView" : 1,
            "componentType" : 5126,
            "count" : 4531,
            "type" : "VEC3"
        },
        {
            "bufferView" : 2,
            "componentType" : 5126,
            "count" : 4531,
            "type" : "VEC2"
        },
        {
            "bufferView" : 3,
            "componentType" : 5123,
            "count" : 24024,
            "type" : "SCALAR"
        },
        {
            "bufferView" : 6,
            "componentType" : 5126,
            "count" : 216,
            "max" : [
                -10.136099815368652,
                70.06510162353516,
                9.444499969482422
            ],
            "min" : [
                -14.995699882507324,
                25.35070037841797,
                5.238999843597412
            ],
            "type" : "VEC3"
        },
        {
            "bufferView" : 7,
            "componentType" : 5126,
            "count" : 216,
            "type" : "VEC3"
        },
        {
            "bufferView" : 8,
            "componentType" : 5126,
            "count" : 216,
            "type" : "VEC2"
        },
        {
            "bufferView" : 9,
            "componentType" : 5123,
            "count" : 936,
            "type" : "SCALAR"
        },
        {
            "bufferView" : 12,
            "componentType" : 5126,
            "count" : 130,
            "max" : [
                -4.235099792480469,
                99.20249938964844,
                158.50970458984375
            ],
            "min" : [
                -21.178300857543945,
                95.11859893798828,
                154.71690368652344
            ],
            "type" : "VEC3"
        },
        {
            "bufferView" : 13,
            "componentType" : 5126,
            "count" : 130,
            "type" : "VEC3"
        },
        {
            "bufferView" : 14,
            "componentType" : 5126,
            "count" : 130,
            "type" : "VEC2"
        },
        {
            "bufferView" : 15,
            "componentType" : 5123,
            "count" : 672,
            "type" : "SCALAR"
        },
        {
            "bufferView" : 17,
            "componentType" : 5126,
            "count" : 176,
            "max" : [
                -9.201499938964844,
                119.25920104980469,
                161.5529022216797
            ],
            "min" : [
                -15.636199951171875,
                99.32270050048828,
                104.27040100097656
            ],
            "type" : "VEC3"
        },
        {
            "bufferView" : 18,
            "componentType" : 5126,
            "count" : 176,
            "type" : "VEC3"
        },
        {
            "bufferView" : 19,
            "componentType" : 5126,
            "count" : 176,
            "type" : "VEC2"
        },
        {
            "bufferView" : 20,
            "componentType" : 5123,
            "count" : 588,
            "type" : "SCALAR"
        }
    ],
    "bufferViews" : [
        {
            "buffer" : 0,
            "byteLength" : 54372,
            "byteOffset" : 0
        },
        {
            "buffer" : 0,
            "byteLength" : 54372,
            "byteOffset" : 54372
        },
        {
            "buffer" : 0,
            "byteLength" : 36248,
            "byteOffset" : 108744
        },
        {
            "buffer" : 0,
            "byteLength" : 48048,
            "byteOffset" : 144992
        },
        {
            "buffer" : 0,
            "byteLength" : 36611,
            "byteOffset" : 193040
        },
        {
            "buffer" : 0,
            "byteLength" : 769988,
            "byteOffset" : 229652
        },
        {
            "buffer" : 0,
            "byteLength" : 2592,
            "byteOffset" : 999640
        },
        {
            "buffer" : 0,
            "byteLength" : 2592,
            "byteOffset" : 1002232
        },
        {
            "buffer" : 0,
            "byteLength" : 1728,
            "byteOffset" : 1004824
        },
        {
            "buffer" : 0,
            "byteLength" : 1872,
            "byteOffset" : 1006552
        },
        {
            "buffer" : 0,
            "byteLength" : 111679,
            "byteOffset" : 1008424
        },
        {
            "buffer" : 0,
            "byteLength" : 185911,
            "byteOffset" : 1120104
        },
        {
            "buffer" : 0,
            "byteLength" : 1560,
            "byteOffset" : 1306016
        },
        {
            "buffer" : 0,
            "byteLength" : 1560,
            "byteOffset" : 1307576
        },
        {
            "buffer" : 0,
            "byteLength" : 1040,
            "byteOffset" : 1309136
        },
        {
            "buffer" : 0,
            "byteLength" : 1344,
            "byteOffset" : 1310176
        },
        {
            "buffer" : 0,
            "byteLength" : 130856,
            "byteOffset" : 1311520
        },
        {
            "buffer" : 0,
            "byteLength" : 2112,
            "byteOffset" : 1442376
        },
        {
            "buffer" : 0,
            "byteLength" : 2112,
            "byteOffset" : 1444488
        },
        {
            "buffer" : 0,
            "byteLength" : 1408,
            "byteOffset" : 1446600
        },
        {
            "buffer" : 0,
            "byteLength" : 1176,
            "byteOffset" : 1448008
        },
        {
            "buffer" : 0,
            "byteLength" : 76494,
            "byteOffset" : 1449184
        },
        {
            "buffer" : 0,
            "byteLength" : 142392,
            "byteOffset" : 1525680
        }
    ],
    "samplers" : [
        {
            "magFilter" : 9729,
            "minFilter" : 9986
        }
    ],
    "buffers" : [
        {
            "byteLength" : 1668072,
            "uri" : "data:application/octet-stream;base64,"
        }
    ]
}
